<svg width="52" height="92" viewBox="0 0 52 92" fill="none" xmlns="http://www.w3.org/2000/svg">
<path d="M2 1H50C50.5545 1 51 1.44818 51 2V90C51 90.357 50.8118 90.6843 50.4941 90.8672L50.4844 90.873C50.3442 90.9557 50.1779 91 50 91C49.8293 91 49.6563 90.9549 49.4902 90.8594H49.4893L26.5039 77.4492L26 77.1543L25.4961 77.4492L2.50488 90.8623C2.19115 91.045 1.80942 91.044 1.51074 90.8701L1.50586 90.8672C1.18821 90.6843 1 90.357 1 90V2C1 1.45072 1.45072 1 2 1Z" stroke="#0E3131" stroke-width="2"/>
</svg>
