<svg width="134" height="134" viewBox="0 0 134 134" fill="none" xmlns="http://www.w3.org/2000/svg">
<g clip-path="url(#clip0_87_70)">
<path d="M50.6667 8C49.2 9.46667 48 12.4 48 14.6667V18.5333L33.7333 18.9333C23.4667 19.2 19.3333 19.8667 18.9333 21.0667C18.6667 22 19.6 23.2 21.2 23.6C24 24.2667 24 24.6667 24 73.4667C24 120.933 24.1333 122.8 26.6667 125.333C29.2 127.867 31.0667 128 59.7333 128C86.1333 128 90.8 128.267 94.8 130.267C102 134 114.267 133.467 120.933 129.067C130.933 122.533 135.2 110.667 132.133 98.9333C130.133 91.6 122 83.3333 114.8 81.3333L109.333 79.8667V52.1333C109.333 24.9333 109.333 24.2667 112.133 23.6C113.733 23.2 114.667 22 114.4 21.0667C114 19.8667 109.867 19.2 99.6 18.9333L85.3333 18.5333V14.6667C85.3333 7.2 81.7333 5.33333 66.6667 5.33333C55.0667 5.33333 52.9333 5.73333 50.6667 8ZM79.7333 14.9333L80.1333 18.6667H66.8C53.6 18.6667 53.3333 18.6667 53.3333 15.6C53.3333 13.8667 53.7333 12 54.2667 11.4667C54.8 10.9333 60.6667 10.8 67.3333 10.9333C79.3333 11.3333 79.3333 11.3333 79.7333 14.9333ZM52.6667 73.4667C52.6667 103.867 52.4 108.667 50.6667 108.667C48.9333 108.667 48.6667 103.867 48.2667 74.6667C48.1333 56 48.2667 39.8667 48.6667 38.9333C49.0667 37.8667 50.1333 37.3333 51.0667 37.7333C52.2667 38.1333 52.6667 46.4 52.6667 73.4667ZM68.6667 73.4667C68.6667 103.867 68.4 108.667 66.6667 108.667C64.9333 108.667 64.6667 103.867 64.2667 74.6667C64.1333 56 64.2667 39.8667 64.6667 38.9333C65.0667 37.8667 66.1333 37.3333 67.0667 37.7333C68.2667 38.1333 68.6667 46.4 68.6667 73.4667ZM85.0667 64.6667C85.3333 82.2667 84.9333 91.6 84 92.8C83.2 93.7333 82 96.1333 81.3333 98.2667C80.6667 100.533 80.1333 89.8667 80.1333 70.5333C80 53.2 80.4 38.6667 80.9333 38.1333C84 35.2 84.6667 39.7333 85.0667 64.6667ZM115.467 87.4667C129.2 94 132.133 110.8 121.467 121.467C112.667 130.267 100.267 130.133 91.7333 121.2C75.4667 104.133 94.2667 77.4667 115.467 87.4667Z" fill="#660000"/>
<path d="M95.2 96.1333C94.8 96.9333 96.4 99.6 98.8 102.133L103.2 106.667L98.6667 111.333C95.2 114.933 94.5333 116.4 95.7333 117.6C96.9333 118.8 98.4 118.133 102 114.667L106.667 110.133L111.333 114.667C114.933 118.133 116.4 118.8 117.6 117.6C118.8 116.4 118.133 114.933 114.667 111.333L110.133 106.667L114.667 102C118.133 98.4 118.8 96.9333 117.6 95.7333C116.4 94.5333 114.933 95.2 111.333 98.6667L106.667 103.2L102.267 98.9333C97.4667 94.2667 96.6667 94 95.2 96.1333Z" fill="#660000"/>
</g>
<defs>
<clipPath id="clip0_87_70">
<rect width="133.333" height="133.333" fill="white"/>
</clipPath>
</defs>
</svg>
