<svg width="136" height="175" viewBox="0 0 136 175" fill="none" xmlns="http://www.w3.org/2000/svg">
<path d="M69.1953 54.2646C74.375 56.8038 74.375 56.8038 79.8203 62.6075C86.1121 68.925 91.477 69.4548 100.672 70.1041C104.655 70.2364 108.64 70.3341 112.625 70.3459C112.606 71.8646 112.587 73.3833 112.567 74.9481C112.914 86.1528 113.226 93.687 122.32 101.783C124.702 103.615 127.12 105.412 129.625 107.103C126.905 112.642 125.419 114.811 119.93 118.59C111.824 127.861 112.829 138.132 112.625 149.664C110.803 149.647 108.982 149.629 107.105 149.611C89.7177 149.88 89.7177 149.88 75.8359 158.491C73.8606 160.655 71.9276 162.855 70.125 165.141C64.0408 162.665 61.6585 161.312 57.5078 156.314C47.3235 148.935 36.0424 149.85 23.375 149.664C23.3942 148.006 23.4133 146.347 23.4331 144.639C23.1375 128.809 23.1375 128.809 13.6797 116.171C11.3026 114.373 8.88559 112.613 6.375 110.972C9.53175 105.799 12.1827 101.745 17.1328 97.8533C22.461 92.2984 22.496 88.752 22.8438 81.4698C22.9643 79.3849 23.0848 77.3001 23.209 75.1521C23.2638 73.5661 23.3186 71.98 23.375 70.3459C25.0432 70.3633 26.7114 70.3808 28.4302 70.3988C41.8185 70.3366 41.8185 70.3366 53.5068 65.1996C55.9282 62.7356 58.3209 60.2479 60.6787 57.7333C63.75 54.8692 63.75 54.8692 69.1953 54.2646ZM65.875 62.6075C64.1657 64.4829 62.4564 66.3582 60.6953 68.2904C52.9954 75.7199 45.2146 75.7413 34.415 76.1345C32.8756 76.1395 31.3361 76.1445 29.75 76.1496C29.7445 77.5287 29.739 78.9078 29.7334 80.3287C29.1796 92.8149 27.3669 99.8147 17.5894 108.758C16.6936 109.489 15.7979 110.219 14.875 110.972C16.9349 112.449 18.9948 113.925 21.1172 115.446C29.1784 122.612 29.2988 129.722 29.7334 139.613C29.7389 141.015 29.7444 142.416 29.75 143.86C31.2895 143.865 32.8289 143.87 34.415 143.875C53.2845 144.562 53.2845 144.562 60.9609 151.719C62.5826 153.595 64.2042 155.47 65.875 157.402C71.2395 155.309 74.1196 153.84 77.6953 149.543C86.0585 143.491 95.8498 144.187 106.25 143.86C106.255 142.481 106.261 141.102 106.267 139.681C106.82 127.195 108.633 120.195 118.411 111.252C119.306 110.521 120.202 109.79 121.125 109.038C119.065 107.561 117.005 106.085 114.883 104.564C106.822 97.3977 106.701 90.2881 106.267 80.3967C106.258 78.2944 106.258 78.2944 106.25 76.1496C104.711 76.1447 103.171 76.1397 101.585 76.1345C82.7224 75.4476 82.7224 75.4476 75.3047 68.2904C73.5954 66.415 71.8861 64.5397 70.125 62.6075C68.7225 62.6075 67.32 62.6075 65.875 62.6075Z" fill="#619D68"/>
<path d="M65.875 72.2805C73.8266 75.5256 73.8266 75.5256 77.0312 79.1724C83.1566 83.7531 89.9758 83.3079 97.75 83.888C97.9253 86.282 98.1006 88.6761 98.2812 91.1427C99.2838 98.9975 102.024 101.706 108.375 107.103C108.242 111.093 108.242 111.093 106.25 114.841C105.198 115.639 104.146 116.437 103.062 117.26C97.8459 122.8 98.3939 128.97 97.75 136.122C95.1203 136.281 92.4906 136.441 89.7812 136.606C81.1005 137.522 78.3006 140.096 72.25 145.795C66.8047 145.674 66.8047 145.674 61.625 143.86C60.7046 142.903 59.7842 141.945 58.8359 140.958C52.8941 136.15 46.0215 136.702 38.25 136.122C38.0747 133.728 37.8994 131.334 37.7188 128.867C36.7162 121.012 33.9761 118.303 27.625 112.907C27.7578 108.917 27.7578 108.917 29.75 105.168C30.8019 104.37 31.8538 103.572 32.9375 102.75C38.1541 97.2095 37.6061 91.0397 38.25 83.888C42.1288 83.7084 42.1288 83.7084 46.0859 83.5252C55.5868 82.5113 59.7827 79.0402 65.875 72.2805ZM65.875 81.9534C64.4725 83.2302 63.07 84.5071 61.625 85.8226C55.9823 86.916 50.3807 87.2501 44.625 87.7572C44.4059 90.1512 44.1867 92.5453 43.9609 95.0119C43.0567 101.84 41.4776 105.887 36.125 110.972C37.133 111.651 38.1411 112.329 39.1797 113.028C43.9423 118.404 43.9263 123.575 44.625 130.318C46.9479 130.518 49.2708 130.717 51.6641 130.923C59.1931 132.201 61.4814 132.645 65.875 138.056C66.9269 137.498 67.9788 136.939 69.0625 136.364C76.3247 133.389 83.6201 131.965 91.375 130.318C91.5941 128.243 91.8133 126.168 92.0391 124.031C93.4448 117.05 94.7215 114.137 99.875 109.038C98.867 108.399 97.8589 107.761 96.8203 107.103C91.6769 101.109 92.0508 95.2628 91.375 87.7572C87.4305 87.3981 87.4305 87.3981 83.4062 87.0317C76.763 86.2918 71.6363 85.2316 65.875 81.9534Z" fill="#619D68"/>
<mask id="path-3-outside-1_67_28" maskUnits="userSpaceOnUse" x="29" y="8" width="77" height="48" fill="black">
<rect fill="white" x="29" y="8" width="77" height="48"/>
<path d="M43.1734 54.76C41.4134 54.76 39.7601 54.5733 38.2134 54.2C36.6668 53.8267 35.3068 53.2533 34.1334 52.48C32.9868 51.7067 32.0801 50.7067 31.4134 49.48C30.7734 48.2533 30.4534 46.8 30.4534 45.12C30.4534 43.3867 30.8134 41.8533 31.5334 40.52C32.2534 39.2133 33.1734 38.0667 34.2934 37.08C35.4134 36.0667 36.6001 35.16 37.8534 34.36C39.1334 33.5333 40.3334 32.7467 41.4534 32C42.5734 31.2533 43.4934 30.4933 44.2134 29.72C44.9334 28.92 45.2934 28.04 45.2934 27.08C45.2934 26.7333 45.2001 26.4133 45.0134 26.12C44.8534 25.8 44.5734 25.5467 44.1734 25.36C43.8001 25.1467 43.2668 25.04 42.5734 25.04C42.1201 25.04 41.6534 25.0933 41.1734 25.2C40.6934 25.28 40.2268 25.4 39.7734 25.56C39.3201 25.6933 38.8934 25.8667 38.4934 26.08C39.1868 26.64 39.8668 27.2667 40.5334 27.96C41.2268 28.6267 41.8534 29.28 42.4134 29.92C43.0001 30.5333 43.4534 31.0667 43.7734 31.52C44.3868 31.84 45.0534 32.1333 45.7734 32.4C46.4934 32.64 47.2534 32.8533 48.0534 33.04C48.8801 33.2267 49.7334 33.3733 50.6134 33.48C51.4934 33.56 52.4001 33.6 53.3334 33.6C54.3468 33.6 55.0668 33.8667 55.4934 34.4C55.9201 34.9067 56.1334 35.5467 56.1334 36.32C56.1334 37.1467 55.8534 37.84 55.2934 38.4C54.7334 38.9333 53.9468 39.2 52.9334 39.2C50.7201 39.2 48.8268 39.04 47.2534 38.72C45.7068 38.4 44.3068 37.92 43.0534 37.28C41.8268 36.6133 40.5601 35.8 39.2534 34.84C38.9334 34.28 38.4668 33.6667 37.8534 33C37.2401 32.3067 36.6134 31.6533 35.9734 31.04C35.3601 30.4267 34.8401 29.9467 34.4134 29.6C34.3334 29.52 34.2001 29.2533 34.0134 28.8C33.8268 28.32 33.6534 27.8133 33.4934 27.28C33.3601 26.7467 33.2934 26.3733 33.2934 26.16C33.2934 25.6267 33.5468 25.0267 34.0534 24.36C34.5601 23.6667 35.2668 23.0133 36.1734 22.4C37.1068 21.76 38.1868 21.24 39.4134 20.84C40.6401 20.4133 41.9734 20.2 43.4134 20.2C46.0268 20.2 47.9068 20.76 49.0534 21.88C50.2268 22.9733 50.8134 24.3867 50.8134 26.12C50.8134 27.72 50.4534 29.1467 49.7334 30.4C49.0401 31.6533 48.1334 32.8 47.0134 33.84C45.8934 34.88 44.7068 35.84 43.4534 36.72C42.2268 37.6 41.0534 38.4533 39.9334 39.28C38.8134 40.1333 37.8934 40.9867 37.1734 41.84C36.4801 42.72 36.1334 43.6667 36.1334 44.68C36.1334 45.5333 36.3468 46.24 36.7734 46.8C37.2268 47.3867 37.8001 47.8533 38.4934 48.2C39.1868 48.5467 39.9468 48.7867 40.7734 48.92C41.6268 49.08 42.4534 49.16 43.2534 49.16C44.0801 49.16 44.9334 49.0933 45.8134 48.96C46.7201 48.8267 47.6534 48.6133 48.6134 48.32C49.6001 48.0533 50.6134 47.7067 51.6534 47.28L53.3334 52.08C52.3201 52.6133 51.2401 53.08 50.0934 53.48C48.9468 53.9067 47.7868 54.2267 46.6134 54.44C45.4401 54.6533 44.2934 54.76 43.1734 54.76ZM52.9459 39.2L53.3459 33.6C54.5193 33.6 55.4393 33.52 56.1059 33.36C56.7993 33.2 57.2926 32.9067 57.5859 32.48C57.8793 32.0267 58.0259 31.3867 58.0259 30.56C58.0259 29.8133 57.9193 28.92 57.7059 27.88C57.5193 26.84 57.2659 25.76 56.9459 24.64C56.6259 23.52 56.3059 22.4933 55.9859 21.56L61.5059 20.04C61.8259 20.9467 62.1459 22 62.4659 23.2C62.7859 24.4 63.0526 25.64 63.2659 26.92C63.5059 28.1733 63.6259 29.3867 63.6259 30.56C63.6259 32.0267 63.4393 33.2667 63.0659 34.28C62.6926 35.2667 62.1726 36.0933 61.5059 36.76C60.8659 37.4 60.0926 37.9067 59.1859 38.28C58.3059 38.6267 57.3326 38.8667 56.2659 39C55.1993 39.1333 54.0926 39.2 52.9459 39.2ZM57.8659 48.4C57.0926 48.4 56.4259 48.1333 55.8659 47.6C55.3326 47.0667 55.0659 46.4133 55.0659 45.64C55.0659 44.8667 55.3326 44.1867 55.8659 43.6C56.4259 43.04 57.0926 42.76 57.8659 42.76C58.6393 42.76 59.2926 43.04 59.8259 43.6C60.3859 44.1867 60.6659 44.8667 60.6659 45.64C60.6659 46.4133 60.3859 47.0667 59.8259 47.6C59.2926 48.1333 58.6393 48.4 57.8659 48.4ZM66.2812 48.24L64.2412 43.28C65.6546 42.8 66.9479 42.24 68.1212 41.6C69.3212 40.96 70.3612 40.2533 71.2412 39.48C72.1212 38.7067 72.8012 37.8667 73.2812 36.96C73.7612 36.0267 74.0012 35.0267 74.0012 33.96C74.0012 32.84 73.7479 31.6133 73.2412 30.28C72.7346 28.9467 72.1212 27.5867 71.4012 26.2L76.6412 23.68C77.1212 24.5067 77.5346 25.4 77.8812 26.36C78.2546 27.2933 78.5612 28.1333 78.8012 28.88C79.0412 29.6267 79.2012 30.1333 79.2812 30.4C79.6546 31.68 80.1612 32.5333 80.8012 32.96C81.4679 33.3867 82.5346 33.6 84.0012 33.6C85.0146 33.6 85.7346 33.8667 86.1612 34.4C86.6146 34.9067 86.8412 35.5467 86.8412 36.32C86.8412 37.1467 86.5612 37.84 86.0012 38.4C85.4412 38.9333 84.6412 39.2 83.6012 39.2C82.5079 39.2 81.5479 39.04 80.7212 38.72C79.8946 38.4 79.2279 37.9333 78.7212 37.32C78.2412 36.7067 77.9346 35.9867 77.8012 35.16L79.2812 36C79.1212 37.4133 78.6546 38.7467 77.8812 40C77.1346 41.28 76.1612 42.4533 74.9612 43.52C73.7612 44.5867 72.4146 45.52 70.9212 46.32C69.4279 47.12 67.8812 47.76 66.2812 48.24ZM83.6491 39.2L84.0491 33.6C85.2757 33.6 86.1557 33.48 86.6891 33.24C87.2224 32.9733 87.5424 32.4933 87.6491 31.8C87.7557 31.08 87.7824 30.04 87.7291 28.68L87.0091 9.72H92.6491L93.4491 29.08C93.5024 30.6267 93.4357 32.0267 93.2491 33.28C93.0891 34.5067 92.6757 35.56 92.0091 36.44C91.3691 37.32 90.3691 38 89.0091 38.48C87.6757 38.96 85.8891 39.2 83.6491 39.2ZM98.724 39L97.884 9.72H103.484L104.324 39H98.724Z"/>
</mask>
<path d="M43.1734 54.76C41.4134 54.76 39.7601 54.5733 38.2134 54.2C36.6668 53.8267 35.3068 53.2533 34.1334 52.48C32.9868 51.7067 32.0801 50.7067 31.4134 49.48C30.7734 48.2533 30.4534 46.8 30.4534 45.12C30.4534 43.3867 30.8134 41.8533 31.5334 40.52C32.2534 39.2133 33.1734 38.0667 34.2934 37.08C35.4134 36.0667 36.6001 35.16 37.8534 34.36C39.1334 33.5333 40.3334 32.7467 41.4534 32C42.5734 31.2533 43.4934 30.4933 44.2134 29.72C44.9334 28.92 45.2934 28.04 45.2934 27.08C45.2934 26.7333 45.2001 26.4133 45.0134 26.12C44.8534 25.8 44.5734 25.5467 44.1734 25.36C43.8001 25.1467 43.2668 25.04 42.5734 25.04C42.1201 25.04 41.6534 25.0933 41.1734 25.2C40.6934 25.28 40.2268 25.4 39.7734 25.56C39.3201 25.6933 38.8934 25.8667 38.4934 26.08C39.1868 26.64 39.8668 27.2667 40.5334 27.96C41.2268 28.6267 41.8534 29.28 42.4134 29.92C43.0001 30.5333 43.4534 31.0667 43.7734 31.52C44.3868 31.84 45.0534 32.1333 45.7734 32.4C46.4934 32.64 47.2534 32.8533 48.0534 33.04C48.8801 33.2267 49.7334 33.3733 50.6134 33.48C51.4934 33.56 52.4001 33.6 53.3334 33.6C54.3468 33.6 55.0668 33.8667 55.4934 34.4C55.9201 34.9067 56.1334 35.5467 56.1334 36.32C56.1334 37.1467 55.8534 37.84 55.2934 38.4C54.7334 38.9333 53.9468 39.2 52.9334 39.2C50.7201 39.2 48.8268 39.04 47.2534 38.72C45.7068 38.4 44.3068 37.92 43.0534 37.28C41.8268 36.6133 40.5601 35.8 39.2534 34.84C38.9334 34.28 38.4668 33.6667 37.8534 33C37.2401 32.3067 36.6134 31.6533 35.9734 31.04C35.3601 30.4267 34.8401 29.9467 34.4134 29.6C34.3334 29.52 34.2001 29.2533 34.0134 28.8C33.8268 28.32 33.6534 27.8133 33.4934 27.28C33.3601 26.7467 33.2934 26.3733 33.2934 26.16C33.2934 25.6267 33.5468 25.0267 34.0534 24.36C34.5601 23.6667 35.2668 23.0133 36.1734 22.4C37.1068 21.76 38.1868 21.24 39.4134 20.84C40.6401 20.4133 41.9734 20.2 43.4134 20.2C46.0268 20.2 47.9068 20.76 49.0534 21.88C50.2268 22.9733 50.8134 24.3867 50.8134 26.12C50.8134 27.72 50.4534 29.1467 49.7334 30.4C49.0401 31.6533 48.1334 32.8 47.0134 33.84C45.8934 34.88 44.7068 35.84 43.4534 36.72C42.2268 37.6 41.0534 38.4533 39.9334 39.28C38.8134 40.1333 37.8934 40.9867 37.1734 41.84C36.4801 42.72 36.1334 43.6667 36.1334 44.68C36.1334 45.5333 36.3468 46.24 36.7734 46.8C37.2268 47.3867 37.8001 47.8533 38.4934 48.2C39.1868 48.5467 39.9468 48.7867 40.7734 48.92C41.6268 49.08 42.4534 49.16 43.2534 49.16C44.0801 49.16 44.9334 49.0933 45.8134 48.96C46.7201 48.8267 47.6534 48.6133 48.6134 48.32C49.6001 48.0533 50.6134 47.7067 51.6534 47.28L53.3334 52.08C52.3201 52.6133 51.2401 53.08 50.0934 53.48C48.9468 53.9067 47.7868 54.2267 46.6134 54.44C45.4401 54.6533 44.2934 54.76 43.1734 54.76ZM52.9459 39.2L53.3459 33.6C54.5193 33.6 55.4393 33.52 56.1059 33.36C56.7993 33.2 57.2926 32.9067 57.5859 32.48C57.8793 32.0267 58.0259 31.3867 58.0259 30.56C58.0259 29.8133 57.9193 28.92 57.7059 27.88C57.5193 26.84 57.2659 25.76 56.9459 24.64C56.6259 23.52 56.3059 22.4933 55.9859 21.56L61.5059 20.04C61.8259 20.9467 62.1459 22 62.4659 23.2C62.7859 24.4 63.0526 25.64 63.2659 26.92C63.5059 28.1733 63.6259 29.3867 63.6259 30.56C63.6259 32.0267 63.4393 33.2667 63.0659 34.28C62.6926 35.2667 62.1726 36.0933 61.5059 36.76C60.8659 37.4 60.0926 37.9067 59.1859 38.28C58.3059 38.6267 57.3326 38.8667 56.2659 39C55.1993 39.1333 54.0926 39.2 52.9459 39.2ZM57.8659 48.4C57.0926 48.4 56.4259 48.1333 55.8659 47.6C55.3326 47.0667 55.0659 46.4133 55.0659 45.64C55.0659 44.8667 55.3326 44.1867 55.8659 43.6C56.4259 43.04 57.0926 42.76 57.8659 42.76C58.6393 42.76 59.2926 43.04 59.8259 43.6C60.3859 44.1867 60.6659 44.8667 60.6659 45.64C60.6659 46.4133 60.3859 47.0667 59.8259 47.6C59.2926 48.1333 58.6393 48.4 57.8659 48.4ZM66.2812 48.24L64.2412 43.28C65.6546 42.8 66.9479 42.24 68.1212 41.6C69.3212 40.96 70.3612 40.2533 71.2412 39.48C72.1212 38.7067 72.8012 37.8667 73.2812 36.96C73.7612 36.0267 74.0012 35.0267 74.0012 33.96C74.0012 32.84 73.7479 31.6133 73.2412 30.28C72.7346 28.9467 72.1212 27.5867 71.4012 26.2L76.6412 23.68C77.1212 24.5067 77.5346 25.4 77.8812 26.36C78.2546 27.2933 78.5612 28.1333 78.8012 28.88C79.0412 29.6267 79.2012 30.1333 79.2812 30.4C79.6546 31.68 80.1612 32.5333 80.8012 32.96C81.4679 33.3867 82.5346 33.6 84.0012 33.6C85.0146 33.6 85.7346 33.8667 86.1612 34.4C86.6146 34.9067 86.8412 35.5467 86.8412 36.32C86.8412 37.1467 86.5612 37.84 86.0012 38.4C85.4412 38.9333 84.6412 39.2 83.6012 39.2C82.5079 39.2 81.5479 39.04 80.7212 38.72C79.8946 38.4 79.2279 37.9333 78.7212 37.32C78.2412 36.7067 77.9346 35.9867 77.8012 35.16L79.2812 36C79.1212 37.4133 78.6546 38.7467 77.8812 40C77.1346 41.28 76.1612 42.4533 74.9612 43.52C73.7612 44.5867 72.4146 45.52 70.9212 46.32C69.4279 47.12 67.8812 47.76 66.2812 48.24ZM83.6491 39.2L84.0491 33.6C85.2757 33.6 86.1557 33.48 86.6891 33.24C87.2224 32.9733 87.5424 32.4933 87.6491 31.8C87.7557 31.08 87.7824 30.04 87.7291 28.68L87.0091 9.72H92.6491L93.4491 29.08C93.5024 30.6267 93.4357 32.0267 93.2491 33.28C93.0891 34.5067 92.6757 35.56 92.0091 36.44C91.3691 37.32 90.3691 38 89.0091 38.48C87.6757 38.96 85.8891 39.2 83.6491 39.2ZM98.724 39L97.884 9.72H103.484L104.324 39H98.724Z" fill="#19401D"/>
<path d="M38.2134 54.2L37.9788 55.1721L37.9788 55.1721L38.2134 54.2ZM34.1334 52.48L33.5743 53.3091L33.5831 53.315L34.1334 52.48ZM31.4134 49.48L30.5268 49.9426L30.5308 49.9501L30.5348 49.9575L31.4134 49.48ZM31.5334 40.52L30.6576 40.0374L30.6535 40.0449L31.5334 40.52ZM34.2934 37.08L34.9545 37.8304L34.9643 37.8215L34.2934 37.08ZM37.8534 34.36L38.3915 35.2029L38.396 35.2L37.8534 34.36ZM41.4534 32L40.8987 31.1679L40.8987 31.1679L41.4534 32ZM44.2134 29.72L44.9453 30.4014L44.9511 30.3952L44.9567 30.389L44.2134 29.72ZM45.0134 26.12L44.119 26.5672L44.1421 26.6134L44.1698 26.6569L45.0134 26.12ZM44.1734 25.36L43.6773 26.2282L43.7131 26.2487L43.7505 26.2662L44.1734 25.36ZM41.1734 25.2L41.3378 26.1864L41.3642 26.182L41.3904 26.1762L41.1734 25.2ZM39.7734 25.56L40.0556 26.5194L40.0811 26.5119L40.1062 26.503L39.7734 25.56ZM38.4934 26.08L38.0228 25.1976L36.6898 25.9086L37.8651 26.8579L38.4934 26.08ZM40.5334 27.96L39.8126 28.6531L39.8262 28.6672L39.8403 28.6808L40.5334 27.96ZM42.4134 29.92L41.6609 30.5785L41.6755 30.5952L41.6908 30.6112L42.4134 29.92ZM43.7734 31.52L42.9565 32.0967L43.0961 32.2946L43.3109 32.4066L43.7734 31.52ZM45.7734 32.4L45.4261 33.3377L45.4416 33.3435L45.4572 33.3487L45.7734 32.4ZM48.0534 33.04L47.8262 34.0139L47.8332 34.0154L48.0534 33.04ZM50.6134 33.48L50.4931 34.4727L50.508 34.4745L50.5229 34.4759L50.6134 33.48ZM55.4934 34.4L54.7126 35.0247L54.7204 35.0345L54.7285 35.0441L55.4934 34.4ZM55.2934 38.4L55.9831 39.1241L55.9919 39.1157L56.0005 39.1071L55.2934 38.4ZM47.2534 38.72L47.0508 39.6993L47.0541 39.6999L47.2534 38.72ZM43.0534 37.28L42.5759 38.1586L42.5872 38.1648L42.5986 38.1706L43.0534 37.28ZM39.2534 34.84L38.3852 35.3361L38.4904 35.5203L38.6614 35.6459L39.2534 34.84ZM37.8534 33L37.1044 33.6626L37.1109 33.6699L37.1175 33.6771L37.8534 33ZM35.9734 31.04L35.2663 31.7471L35.2738 31.7546L35.2815 31.762L35.9734 31.04ZM34.4134 29.6L33.7063 30.3071L33.7428 30.3436L33.7828 30.3761L34.4134 29.6ZM34.0134 28.8L33.0814 29.1624L33.085 29.1716L33.0887 29.1807L34.0134 28.8ZM33.4934 27.28L32.5233 27.5225L32.5289 27.5451L32.5356 27.5673L33.4934 27.28ZM34.0534 24.36L34.8496 24.9651L34.8553 24.9576L34.8608 24.95L34.0534 24.36ZM36.1734 22.4L36.7337 23.2283L36.739 23.2247L36.1734 22.4ZM39.4134 20.84L39.7234 21.7907L39.7327 21.7877L39.7419 21.7845L39.4134 20.84ZM49.0534 21.88L48.3547 22.5954L48.3631 22.6036L48.3717 22.6116L49.0534 21.88ZM49.7334 30.4L48.8663 29.9019L48.8623 29.9089L48.8584 29.9159L49.7334 30.4ZM47.0134 33.84L46.333 33.1072L47.0134 33.84ZM43.4534 36.72L42.8788 35.9015L42.8705 35.9075L43.4534 36.72ZM39.9334 39.28L39.3396 38.4754L39.3334 38.48L39.3274 38.4846L39.9334 39.28ZM37.1734 41.84L36.4091 41.1951L36.3983 41.208L36.3879 41.2211L37.1734 41.84ZM36.7734 46.8L35.978 47.4061L35.9821 47.4114L36.7734 46.8ZM38.4934 48.2L38.9406 47.3056L38.9406 47.3056L38.4934 48.2ZM40.7734 48.92L40.9577 47.9371L40.9452 47.9348L40.9327 47.9328L40.7734 48.92ZM45.8134 48.96L45.6679 47.9706L45.6636 47.9713L45.8134 48.96ZM48.6134 48.32L48.3525 47.3546L48.3368 47.3589L48.3212 47.3636L48.6134 48.32ZM51.6534 47.28L52.5973 46.9497L52.2491 45.9548L51.2739 46.3548L51.6534 47.28ZM53.3334 52.08L53.7992 52.9649L54.5621 52.5634L54.2773 51.7497L53.3334 52.08ZM50.0934 53.48L49.7641 52.5358L49.7543 52.5392L49.7447 52.5428L50.0934 53.48ZM46.6134 54.44L46.4345 53.4561L46.4345 53.4561L46.6134 54.44ZM43.1734 54.76V53.76C41.4842 53.76 39.9103 53.5809 38.4481 53.2279L38.2134 54.2L37.9788 55.1721C39.6099 55.5658 41.3426 55.76 43.1734 55.76V54.76ZM38.2134 54.2L38.4481 53.2279C36.9991 52.8782 35.7487 52.3469 34.6837 51.645L34.1334 52.48L33.5831 53.315C34.8648 54.1597 36.3345 54.7752 37.9788 55.1721L38.2134 54.2ZM34.1334 52.48L34.6926 51.6509C33.6804 50.9683 32.8828 50.0894 32.2921 49.0025L31.4134 49.48L30.5348 49.9575C31.2774 51.3239 32.2931 52.445 33.5743 53.3091L34.1334 52.48ZM31.4134 49.48L32.3 49.0174C31.7488 47.961 31.4534 46.6731 31.4534 45.12H30.4534H29.4534C29.4534 46.9269 29.798 48.5456 30.5268 49.9426L31.4134 49.48ZM30.4534 45.12H31.4534C31.4534 43.5285 31.7829 42.1627 32.4133 40.9951L31.5334 40.52L30.6535 40.0449C29.844 41.544 29.4534 43.2449 29.4534 45.12H30.4534ZM31.5334 40.52L32.4093 41.0026C33.0736 39.797 33.9209 38.7409 34.9545 37.8304L34.2934 37.08L33.6324 36.3296C32.4259 37.3925 31.4332 38.6297 30.6576 40.0374L31.5334 40.52ZM34.2934 37.08L34.9643 37.8215C36.0436 36.8451 37.1859 35.9724 38.3915 35.2029L37.8534 34.36L37.3154 33.5171C36.0143 34.3476 34.7832 35.2883 33.6225 36.3385L34.2934 37.08ZM37.8534 34.36L38.396 35.2C39.6795 34.3711 40.8836 33.5817 42.0081 32.832L41.4534 32L40.8987 31.1679C39.7833 31.9116 38.5873 32.6956 37.3109 33.52L37.8534 34.36ZM41.4534 32L42.0081 32.832C43.1761 32.0534 44.1602 31.2447 44.9453 30.4014L44.2134 29.72L43.4815 29.0386C42.8267 29.742 41.9707 30.4533 40.8987 31.1679L41.4534 32ZM44.2134 29.72L44.9567 30.389C45.8205 29.4293 46.2934 28.3174 46.2934 27.08H45.2934H44.2934C44.2934 27.7626 44.0464 28.4107 43.4701 29.051L44.2134 29.72ZM45.2934 27.08H46.2934C46.2934 26.5426 46.1455 26.0364 45.8571 25.5831L45.0134 26.12L44.1698 26.6569C44.2546 26.7903 44.2934 26.9241 44.2934 27.08H45.2934ZM45.0134 26.12L45.9079 25.6728C45.6251 25.1074 45.1517 24.713 44.5963 24.4538L44.1734 25.36L43.7505 26.2662C43.9951 26.3803 44.0817 26.4926 44.119 26.5672L45.0134 26.12ZM44.1734 25.36L44.6696 24.4918C44.0794 24.1545 43.345 24.04 42.5734 24.04V25.04V26.04C43.1885 26.04 43.5208 26.1388 43.6773 26.2282L44.1734 25.36ZM42.5734 25.04V24.04C42.0413 24.04 41.5018 24.1026 40.9565 24.2238L41.1734 25.2L41.3904 26.1762C41.8051 26.084 42.1989 26.04 42.5734 26.04V25.04ZM41.1734 25.2L41.009 24.2136C40.4724 24.303 39.9494 24.4374 39.4406 24.617L39.7734 25.56L40.1062 26.503C40.5041 26.3626 40.9144 26.257 41.3378 26.1864L41.1734 25.2ZM39.7734 25.56L39.4913 24.6006C38.9754 24.7524 38.4853 24.951 38.0228 25.1976L38.4934 26.08L38.964 26.9624C39.3015 26.7824 39.6648 26.6343 40.0556 26.5194L39.7734 25.56ZM38.4934 26.08L37.8651 26.8579C38.5234 27.3897 39.1727 27.9876 39.8126 28.6531L40.5334 27.96L41.2543 27.2669C40.5608 26.5457 39.8501 25.8903 39.1218 25.3021L38.4934 26.08ZM40.5334 27.96L39.8403 28.6808C40.5156 29.3301 41.122 29.9627 41.6609 30.5785L42.4134 29.92L43.166 29.2615C42.5848 28.5973 41.9379 27.9232 41.2265 27.2392L40.5334 27.96ZM42.4134 29.92L41.6908 30.6112C42.2591 31.2054 42.6758 31.699 42.9565 32.0967L43.7734 31.52L44.5904 30.9433C44.2311 30.4343 43.7411 29.8613 43.1361 29.2288L42.4134 29.92ZM43.7734 31.52L43.3109 32.4066C43.9653 32.748 44.6709 33.058 45.4261 33.3377L45.7734 32.4L46.1207 31.4623C45.436 31.2086 44.8082 30.932 44.236 30.6334L43.7734 31.52ZM45.7734 32.4L45.4572 33.3487C46.2087 33.5992 46.9986 33.8207 47.8262 34.0138L48.0534 33.04L48.2807 32.0662C47.5083 31.8859 46.7781 31.6808 46.0897 31.4513L45.7734 32.4ZM48.0534 33.04L47.8332 34.0154C48.6943 34.2099 49.581 34.3622 50.4931 34.4727L50.6134 33.48L50.7338 32.4873C49.8858 32.3845 49.0659 32.2434 48.2737 32.0646L48.0534 33.04ZM50.6134 33.48L50.5229 34.4759C51.4346 34.5588 52.3715 34.6 53.3334 34.6V33.6V32.6C52.4286 32.6 51.5522 32.5612 50.704 32.4841L50.6134 33.48ZM53.3334 33.6V34.6C54.1942 34.6 54.5534 34.8258 54.7126 35.0247L55.4934 34.4L56.2743 33.7753C55.5801 32.9076 54.4993 32.6 53.3334 32.6V33.6ZM55.4934 34.4L54.7285 35.0441C54.9786 35.3411 55.1334 35.7408 55.1334 36.32H56.1334H57.1334C57.1334 35.3525 56.8616 34.4723 56.2583 33.7559L55.4934 34.4ZM56.1334 36.32H55.1334C55.1334 36.8944 54.9498 37.3294 54.5863 37.6929L55.2934 38.4L56.0005 39.1071C56.757 38.3506 57.1334 37.3989 57.1334 36.32H56.1334ZM55.2934 38.4L54.6038 37.6759C54.2818 37.9825 53.7722 38.2 52.9334 38.2V39.2V40.2C54.1213 40.2 55.1851 39.8841 55.9831 39.1241L55.2934 38.4ZM52.9334 39.2V38.2C50.7639 38.2 48.9411 38.0428 47.4527 37.7401L47.2534 38.72L47.0541 39.6999C48.7124 40.0372 50.6763 40.2 52.9334 40.2V39.2ZM47.2534 38.72L47.456 37.7407C45.9865 37.4367 44.6728 36.9841 43.5082 36.3894L43.0534 37.28L42.5986 38.1706C43.9407 38.8559 45.427 39.3633 47.0508 39.6993L47.2534 38.72ZM43.0534 37.28L43.5309 36.4014C42.3498 35.7595 41.1213 34.9715 39.8455 34.0341L39.2534 34.84L38.6614 35.6459C39.9988 36.6285 41.3037 37.4672 42.5759 38.1586L43.0534 37.28ZM39.2534 34.84L40.1217 34.3439C39.7529 33.6985 39.2348 33.0245 38.5894 32.3229L37.8534 33L37.1175 33.6771C37.6988 34.3089 38.1139 34.8615 38.3852 35.3361L39.2534 34.84ZM37.8534 33L38.6024 32.3374C37.9717 31.6244 37.326 30.9512 36.6653 30.318L35.9734 31.04L35.2815 31.762C35.9008 32.3555 36.5085 32.9889 37.1044 33.6626L37.8534 33ZM35.9734 31.04L36.6805 30.3329C36.055 29.7074 35.508 29.2009 35.044 28.8239L34.4134 29.6L33.7828 30.3761C34.1722 30.6925 34.6652 31.1459 35.2663 31.7471L35.9734 31.04ZM34.4134 29.6L35.1205 28.8929C35.1829 28.9553 35.2078 29.0016 35.1951 28.9809C35.1891 28.9711 35.1735 28.9441 35.1479 28.8928C35.0967 28.7906 35.0272 28.6357 34.9381 28.4192L34.0134 28.8L33.0887 29.1807C33.1863 29.4176 33.2768 29.6228 33.359 29.7872C33.4199 29.909 33.5364 30.1372 33.7063 30.3071L34.4134 29.6ZM34.0134 28.8L34.9454 28.4376C34.7691 27.9841 34.6042 27.5026 34.4513 26.9927L33.4934 27.28L32.5356 27.5673C32.7026 28.124 32.8844 28.6559 33.0814 29.1624L34.0134 28.8ZM33.4934 27.28L34.4636 27.0375C34.3285 26.4973 34.2934 26.2348 34.2934 26.16H33.2934H32.2934C32.2934 26.5119 32.3917 26.9961 32.5233 27.5225L33.4934 27.28ZM33.2934 26.16H34.2934C34.2934 25.9384 34.4047 25.5505 34.8496 24.9651L34.0534 24.36L33.2573 23.7549C32.6888 24.5029 32.2934 25.3149 32.2934 26.16H33.2934ZM34.0534 24.36L34.8608 24.95C35.2837 24.3713 35.8975 23.7939 36.7337 23.2283L36.1734 22.4L35.6131 21.5717C34.636 22.2327 33.8365 22.962 33.246 23.77L34.0534 24.36ZM36.1734 22.4L36.739 23.2247C37.5834 22.6456 38.5751 22.1652 39.7234 21.7907L39.4134 20.84L39.1034 19.8893C37.7985 20.3148 36.6301 20.8743 35.6079 21.5753L36.1734 22.4ZM39.4134 20.84L39.7419 21.7845C40.8521 21.3983 42.0732 21.2 43.4134 21.2V20.2V19.2C41.8737 19.2 40.428 19.4283 39.0849 19.8955L39.4134 20.84ZM43.4134 20.2V21.2C45.9222 21.2 47.4829 21.7439 48.3547 22.5954L49.0534 21.88L49.7522 21.1646C48.3306 19.7761 46.1313 19.2 43.4134 19.2V20.2ZM49.0534 21.88L48.3717 22.6116C49.3244 23.4994 49.8134 24.6391 49.8134 26.12H50.8134H51.8134C51.8134 24.1342 51.1291 22.4473 49.7352 21.1484L49.0534 21.88ZM50.8134 26.12H49.8134C49.8134 27.5644 49.4902 28.8159 48.8663 29.9019L49.7334 30.4L50.6005 30.8981C51.4167 29.4774 51.8134 27.8756 51.8134 26.12H50.8134ZM49.7334 30.4L48.8584 29.9159C48.2197 31.0705 47.3806 32.1344 46.333 33.1072L47.0134 33.84L47.6939 34.5728C48.8863 33.4656 49.8605 32.2361 50.6085 30.8841L49.7334 30.4ZM47.0134 33.84L46.333 33.1072C45.2463 34.1162 44.095 35.0476 42.8788 35.9016L43.4534 36.72L44.0281 37.5384C45.3185 36.6324 46.5405 35.6438 47.6939 34.5728L47.0134 33.84ZM43.4534 36.72L42.8705 35.9075C41.6405 36.7899 40.4635 37.6459 39.3396 38.4754L39.9334 39.28L40.5273 40.0846C41.6434 39.2608 42.813 38.4101 44.0363 37.5325L43.4534 36.72ZM39.9334 39.28L39.3274 38.4846C38.1636 39.3713 37.1866 40.2737 36.4091 41.1951L37.1734 41.84L37.9377 42.4849C38.6003 41.6996 39.4632 40.8954 40.5395 40.0754L39.9334 39.28ZM37.1734 41.84L36.3879 41.2211C35.5712 42.2577 35.1334 43.4182 35.1334 44.68H36.1334H37.1334C37.1334 43.9151 37.389 43.1823 37.9589 42.4589L37.1734 41.84ZM36.1334 44.68H35.1334C35.1334 45.7046 35.3924 46.6374 35.978 47.406L36.7734 46.8L37.5689 46.194C37.3012 45.8426 37.1334 45.3621 37.1334 44.68H36.1334ZM36.7734 46.8L35.9821 47.4114C36.5316 48.1226 37.2247 48.6837 38.0462 49.0944L38.4934 48.2L38.9406 47.3056C38.3755 47.023 37.9219 46.6508 37.5647 46.1886L36.7734 46.8ZM38.4934 48.2L38.0462 49.0944C38.8373 49.49 39.6954 49.759 40.6142 49.9072L40.7734 48.92L40.9327 47.9328C40.1981 47.8143 39.5363 47.6034 38.9406 47.3056L38.4934 48.2ZM40.7734 48.92L40.5891 49.9029C41.4981 50.0733 42.3866 50.16 43.2534 50.16V49.16V48.16C42.5202 48.16 41.7554 48.0867 40.9577 47.9371L40.7734 48.92ZM43.2534 49.16V50.16C44.1339 50.16 45.0374 50.089 45.9632 49.9487L45.8134 48.96L45.6636 47.9713C44.8295 48.0977 44.0263 48.16 43.2534 48.16V49.16ZM45.8134 48.96L45.9589 49.9494C46.9197 49.8081 47.9021 49.583 48.9056 49.2764L48.6134 48.32L48.3212 47.3636C47.4047 47.6437 46.5205 47.8453 45.6679 47.9706L45.8134 48.96ZM48.6134 48.32L48.8743 49.2854C49.9051 49.0068 50.9581 48.6462 52.033 48.2052L51.6534 47.28L51.2739 46.3548C50.2688 46.7672 49.2951 47.0999 48.3525 47.3546L48.6134 48.32ZM51.6534 47.28L50.7096 47.6104L52.3896 52.4104L53.3334 52.08L54.2773 51.7497L52.5973 46.9497L51.6534 47.28ZM53.3334 52.08L52.8677 51.1951C51.9008 51.704 50.8667 52.1512 49.7641 52.5358L50.0934 53.48L50.4228 54.4242C51.6135 54.0088 52.7394 53.5227 53.7992 52.9649L53.3334 52.08ZM50.0934 53.48L49.7447 52.5428C48.6517 52.9495 47.5485 53.2536 46.4345 53.4561L46.6134 54.44L46.7923 55.4239C48.025 55.1997 49.2418 54.8639 50.4422 54.4172L50.0934 53.48ZM46.6134 54.44L46.4345 53.4561C45.3164 53.6594 44.2297 53.76 43.1734 53.76V54.76V55.76C44.3571 55.76 45.5637 55.6472 46.7923 55.4239L46.6134 54.44ZM52.9459 39.2L51.9485 39.1288L51.872 40.2H52.9459V39.2ZM53.3459 33.6V32.6H52.4148L52.3485 33.5288L53.3459 33.6ZM56.1059 33.36L55.8811 32.3856L55.8726 32.3876L56.1059 33.36ZM57.5859 32.48L58.41 33.0465L58.4179 33.035L58.4255 33.0233L57.5859 32.48ZM57.7059 27.88L56.7217 28.0567L56.7238 28.0688L56.7263 28.0809L57.7059 27.88ZM56.9459 24.64L57.9075 24.3653L57.9075 24.3653L56.9459 24.64ZM55.9859 21.56L55.7204 20.5959L54.695 20.8782L55.04 21.8843L55.9859 21.56ZM61.5059 20.04L62.4489 19.7072L62.1388 18.8285L61.2404 19.0759L61.5059 20.04ZM62.4659 23.2L61.4997 23.4577L61.4997 23.4577L62.4659 23.2ZM63.2659 26.92L62.2795 27.0844L62.2815 27.0963L62.2838 27.1081L63.2659 26.92ZM63.0659 34.28L64.0012 34.6339L64.0043 34.6257L63.0659 34.28ZM61.5059 36.76L62.213 37.4671L62.213 37.4671L61.5059 36.76ZM59.1859 38.28L59.5525 39.2104L59.5596 39.2076L59.5667 39.2047L59.1859 38.28ZM56.2659 39L56.39 39.9923L56.2659 39ZM55.8659 47.6L55.1588 48.3071L55.1674 48.3157L55.1763 48.3241L55.8659 47.6ZM55.8659 43.6L55.1588 42.8929L55.142 42.9097L55.126 42.9273L55.8659 43.6ZM59.8259 43.6L59.1018 44.2897L59.1026 44.2905L59.8259 43.6ZM59.8259 47.6L59.1363 46.8759L59.1274 46.8843L59.1188 46.8929L59.8259 47.6ZM52.9459 39.2L53.9434 39.2712L54.3434 33.6712L53.3459 33.6L52.3485 33.5288L51.9485 39.1288L52.9459 39.2ZM53.3459 33.6V34.6C54.5507 34.6 55.561 34.5192 56.3393 34.3324L56.1059 33.36L55.8726 32.3876C55.3175 32.5208 54.4878 32.6 53.3459 32.6V33.6ZM56.1059 33.36L56.3308 34.3344C57.1758 34.1394 57.9293 33.7457 58.41 33.0465L57.5859 32.48L56.7619 31.9135C56.6559 32.0676 56.4227 32.2606 55.8811 32.3856L56.1059 33.36ZM57.5859 32.48L58.4255 33.0233C58.8654 32.3435 59.0259 31.4845 59.0259 30.56H58.0259H57.0259C57.0259 31.2889 56.8932 31.7099 56.7464 31.9367L57.5859 32.48ZM58.0259 30.56H59.0259C59.0259 29.7242 58.9073 28.7599 58.6855 27.6791L57.7059 27.88L56.7263 28.0809C56.9313 29.0801 57.0259 29.9025 57.0259 30.56H58.0259ZM57.7059 27.88L58.6902 27.7033C58.497 26.6271 58.2358 25.5143 57.9075 24.3653L56.9459 24.64L55.9844 24.9147C56.2961 26.0057 56.5415 27.0529 56.7217 28.0567L57.7059 27.88ZM56.9459 24.64L57.9075 24.3653C57.5835 23.2315 57.2584 22.188 56.9319 21.2357L55.9859 21.56L55.04 21.8843C55.3535 22.7987 55.6683 23.8085 55.9844 24.9147L56.9459 24.64ZM55.9859 21.56L56.2514 22.5241L61.7714 21.0041L61.5059 20.04L61.2404 19.0759L55.7204 20.5959L55.9859 21.56ZM61.5059 20.04L60.5629 20.3728C60.8721 21.2488 61.1846 22.2761 61.4997 23.4577L62.4659 23.2L63.4322 22.9423C63.1072 21.7239 62.7797 20.6445 62.4489 19.7072L61.5059 20.04ZM62.4659 23.2L61.4997 23.4577C61.8111 24.6256 62.0712 25.8344 62.2795 27.0844L63.2659 26.92L64.2523 26.7556C64.034 25.4456 63.7607 24.1744 63.4322 22.9423L62.4659 23.2ZM63.2659 26.92L62.2838 27.1081C62.5129 28.3048 62.6259 29.455 62.6259 30.56H63.6259H64.6259C64.6259 29.3183 64.4989 28.0419 64.2481 26.7319L63.2659 26.92ZM63.6259 30.56H62.6259C62.6259 31.9482 62.4484 33.0635 62.1276 33.9343L63.0659 34.28L64.0043 34.6257C64.4301 33.4699 64.6259 32.1052 64.6259 30.56H63.6259ZM63.0659 34.28L62.1306 33.9261C61.8015 34.796 61.3539 35.4978 60.7988 36.0529L61.5059 36.76L62.213 37.4671C62.9912 36.6889 63.5837 35.7373 64.0012 34.6339L63.0659 34.28ZM61.5059 36.76L60.7988 36.0529C60.2597 36.592 59.6 37.028 58.8052 37.3553L59.1859 38.28L59.5667 39.2047C60.5852 38.7853 61.4721 38.208 62.213 37.4671L61.5059 36.76ZM59.1859 38.28L58.8194 37.3496C58.0271 37.6617 57.1365 37.8834 56.1419 38.0077L56.2659 39L56.39 39.9923C57.5286 39.8499 58.5848 39.5916 59.5525 39.2104L59.1859 38.28ZM56.2659 39L56.1419 38.0077C55.119 38.1356 54.0539 38.2 52.9459 38.2V39.2V40.2C54.1313 40.2 55.2795 40.1311 56.39 39.9923L56.2659 39ZM57.8659 48.4V47.4C57.3494 47.4 56.9296 47.2321 56.5556 46.8759L55.8659 47.6L55.1763 48.3241C55.9222 49.0346 56.8358 49.4 57.8659 49.4V48.4ZM55.8659 47.6L56.573 46.8929C56.2325 46.5523 56.0659 46.1556 56.0659 45.64H55.0659H54.0659C54.0659 46.671 54.4327 47.581 55.1588 48.3071L55.8659 47.6ZM55.0659 45.64H56.0659C56.0659 45.1223 56.2352 44.6804 56.6059 44.2727L55.8659 43.6L55.126 42.9273C54.43 43.6929 54.0659 44.6111 54.0659 45.64H55.0659ZM55.8659 43.6L56.573 44.3071C56.9506 43.9296 57.3649 43.76 57.8659 43.76V42.76V41.76C56.8203 41.76 55.9013 42.1504 55.1588 42.8929L55.8659 43.6ZM57.8659 42.76V43.76C58.3656 43.76 58.7572 43.9278 59.1018 44.2897L59.8259 43.6L60.5501 42.9103C59.828 42.1522 58.9129 41.76 57.8659 41.76V42.76ZM59.8259 43.6L59.1026 44.2905C59.4946 44.7011 59.6659 45.1374 59.6659 45.64H60.6659H61.6659C61.6659 44.596 61.2773 43.6722 60.5493 42.9095L59.8259 43.6ZM60.6659 45.64H59.6659C59.6659 46.1397 59.4981 46.5313 59.1363 46.8759L59.8259 47.6L60.5156 48.3241C61.2738 47.6021 61.6659 46.687 61.6659 45.64H60.6659ZM59.8259 47.6L59.1188 46.8929C58.7783 47.2334 58.3816 47.4 57.8659 47.4V48.4V49.4C58.897 49.4 59.8069 49.0332 60.533 48.3071L59.8259 47.6ZM66.2812 48.24L65.3564 48.6204L65.701 49.4581L66.5686 49.1978L66.2812 48.24ZM64.2412 43.28L63.9197 42.3331L62.9114 42.6756L63.3164 43.6604L64.2412 43.28ZM68.1212 41.6L67.6506 40.7176L67.6424 40.7221L68.1212 41.6ZM71.2412 39.48L70.5811 38.7288L70.5811 38.7288L71.2412 39.48ZM73.2812 36.96L74.1651 37.4279L74.1705 37.4173L73.2812 36.96ZM73.2412 30.28L74.176 29.9248L74.176 29.9248L73.2412 30.28ZM71.4012 26.2L70.9678 25.2988L70.0386 25.7457L70.5137 26.6608L71.4012 26.2ZM76.6412 23.68L77.506 23.1779L77.0415 22.3779L76.2078 22.7788L76.6412 23.68ZM77.8812 26.36L76.9407 26.6996L76.9465 26.7156L76.9528 26.7314L77.8812 26.36ZM78.8012 28.88L79.7533 28.574L79.7533 28.574L78.8012 28.88ZM79.2812 30.4L80.2413 30.12L80.2391 30.1127L79.2812 30.4ZM80.8012 32.96L80.2465 33.792L80.2543 33.7972L80.2622 33.8023L80.8012 32.96ZM86.1612 34.4L85.3804 35.0247L85.3976 35.0462L85.416 35.0668L86.1612 34.4ZM86.0012 38.4L86.6909 39.1241L86.6997 39.1157L86.7083 39.1071L86.0012 38.4ZM80.7212 38.72L80.3602 39.6526L80.3602 39.6526L80.7212 38.72ZM78.7212 37.32L77.9337 37.9363L77.9419 37.9467L77.9503 37.9569L78.7212 37.32ZM77.8012 35.16L78.2948 34.2903L76.4821 33.2615L76.814 35.3192L77.8012 35.16ZM79.2812 36L80.2749 36.1125L80.3492 35.4563L79.7748 35.1303L79.2812 36ZM77.8812 40L77.0302 39.4749L77.0237 39.4854L77.0175 39.4961L77.8812 40ZM74.9612 43.52L74.2969 42.7726L74.2969 42.7726L74.9612 43.52ZM70.9212 46.32L70.449 45.4385L70.449 45.4385L70.9212 46.32ZM66.2812 48.24L67.2061 47.8596L65.1661 42.8996L64.2412 43.28L63.3164 43.6604L65.3564 48.6204L66.2812 48.24ZM64.2412 43.28L64.5628 44.2269C66.0243 43.7305 67.371 43.1483 68.6001 42.4779L68.1212 41.6L67.6424 40.7221C66.5248 41.3317 65.2849 41.8695 63.9197 42.3331L64.2412 43.28ZM68.1212 41.6L68.5918 42.4824C69.8492 41.8117 70.9551 41.0628 71.9014 40.2312L71.2412 39.48L70.5811 38.7288C69.7674 39.4439 68.7932 40.1083 67.6507 40.7176L68.1212 41.6ZM71.2412 39.48L71.9014 40.2312C72.8597 39.389 73.6208 38.4558 74.165 37.4279L73.2812 36.96L72.3975 36.4921C71.9817 37.2775 71.3828 38.0243 70.5811 38.7288L71.2412 39.48ZM73.2812 36.96L74.1705 37.4173C74.7245 36.3402 75.0012 35.1831 75.0012 33.96H74.0012H73.0012C73.0012 34.8703 72.798 35.7132 72.392 36.5027L73.2812 36.96ZM74.0012 33.96H75.0012C75.0012 32.6905 74.7145 31.3419 74.176 29.9248L73.2412 30.28L72.3065 30.6352C72.7813 31.8848 73.0012 32.9895 73.0012 33.96H74.0012ZM73.2412 30.28L74.176 29.9248C73.6544 28.5521 73.0249 27.1569 72.2887 25.7392L71.4012 26.2L70.5137 26.6608C71.2176 28.0164 71.8147 29.3412 72.3065 30.6352L73.2412 30.28ZM71.4012 26.2L71.8346 27.1012L77.0746 24.5812L76.6412 23.68L76.2078 22.7788L70.9678 25.2988L71.4012 26.2ZM76.6412 23.68L75.7765 24.1821C76.2244 24.9537 76.613 25.7922 76.9407 26.6996L77.8812 26.36L78.8218 26.0204C78.4562 25.0078 78.018 24.0597 77.506 23.1779L76.6412 23.68ZM77.8812 26.36L76.9528 26.7314C77.3197 27.6489 77.6179 28.4665 77.8492 29.186L78.8012 28.88L79.7533 28.574C79.5045 27.8001 79.1894 26.9378 78.8097 25.9886L77.8812 26.36ZM78.8012 28.88L77.8492 29.186C78.0896 29.9338 78.2466 30.4314 78.3234 30.6873L79.2812 30.4L80.2391 30.1127C80.1558 29.8352 79.9929 29.3195 79.7533 28.574L78.8012 28.88ZM79.2812 30.4L78.3212 30.68C78.7166 32.0356 79.3111 33.1684 80.2465 33.792L80.8012 32.96L81.3559 32.1279C81.0113 31.8982 80.5925 31.3244 80.2412 30.12L79.2812 30.4ZM80.8012 32.96L80.2622 33.8023C81.1765 34.3875 82.4826 34.6 84.0012 34.6V33.6V32.6C82.5865 32.6 81.7593 32.3859 81.3403 32.1177L80.8012 32.96ZM84.0012 33.6V34.6C84.862 34.6 85.2212 34.8258 85.3804 35.0247L86.1612 34.4L86.9421 33.7753C86.2479 32.9076 85.1671 32.6 84.0012 32.6V33.6ZM86.1612 34.4L85.416 35.0668C85.6826 35.3648 85.8412 35.7565 85.8412 36.32H86.8412H87.8412C87.8412 35.3368 87.5465 34.4485 86.9065 33.7332L86.1612 34.4ZM86.8412 36.32H85.8412C85.8412 36.8944 85.6576 37.3294 85.2941 37.6929L86.0012 38.4L86.7083 39.1071C87.4648 38.3506 87.8412 37.3989 87.8412 36.32H86.8412ZM86.0012 38.4L85.3116 37.6759C84.9941 37.9782 84.475 38.2 83.6012 38.2V39.2V40.2C84.8075 40.2 85.8884 39.8884 86.6909 39.1241L86.0012 38.4ZM83.6012 39.2V38.2C82.6035 38.2 81.7704 38.0538 81.0822 37.7874L80.7212 38.72L80.3602 39.6526C81.3254 40.0262 82.4123 40.2 83.6012 40.2V39.2ZM80.7212 38.72L81.0822 37.7874C80.3967 37.522 79.8777 37.1498 79.4922 36.6831L78.7212 37.32L77.9503 37.9569C78.5781 38.7168 79.3925 39.278 80.3602 39.6526L80.7212 38.72ZM78.7212 37.32L79.5087 36.7037C79.1406 36.2333 78.897 35.6736 78.7885 35.0008L77.8012 35.16L76.814 35.3192C76.9722 36.2998 77.3418 37.18 77.9337 37.9363L78.7212 37.32ZM77.8012 35.16L77.3076 36.0297L78.7876 36.8697L79.2812 36L79.7748 35.1303L78.2948 34.2903L77.8012 35.16ZM79.2812 36L78.2876 35.8875C78.1447 37.1492 77.729 38.3424 77.0302 39.4749L77.8812 40L78.7323 40.5251C79.5801 39.151 80.0977 37.6774 80.2749 36.1125L79.2812 36ZM77.8812 40L77.0175 39.4961C76.3282 40.6776 75.4245 41.7702 74.2969 42.7726L74.9612 43.52L75.6256 44.2674C76.8979 43.1364 77.9409 41.8824 78.745 40.5039L77.8812 40ZM74.9612 43.52L74.2969 42.7726C73.1586 43.7844 71.8771 44.6735 70.449 45.4385L70.9212 46.32L71.3935 47.2015C72.9521 46.3665 74.3639 45.3889 75.6256 44.2674L74.9612 43.52ZM70.9212 46.32L70.449 45.4385C69.0138 46.2074 67.529 46.8217 65.9939 47.2822L66.2812 48.24L66.5686 49.1978C68.2335 48.6983 69.842 48.0326 71.3935 47.2015L70.9212 46.32ZM83.6491 39.2L82.6516 39.1288L82.5751 40.2H83.6491V39.2ZM84.0491 33.6V32.6H83.1179L83.0516 33.5288L84.0491 33.6ZM86.6891 33.24L87.0994 34.1519L87.118 34.1435L87.1363 34.1344L86.6891 33.24ZM87.6491 31.8L88.6374 31.9521L88.6383 31.9465L87.6491 31.8ZM87.7291 28.68L86.7298 28.7179L86.7298 28.7192L87.7291 28.68ZM87.0091 9.72V8.72H85.9704L86.0098 9.75795L87.0091 9.72ZM92.6491 9.72L93.6482 9.67871L93.6086 8.72H92.6491V9.72ZM93.4491 29.08L94.4485 29.0455L94.4482 29.0387L93.4491 29.08ZM93.2491 33.28L92.26 33.1327L92.2586 33.1417L92.2575 33.1507L93.2491 33.28ZM92.0091 36.44L91.212 35.8361L91.2061 35.8439L91.2003 35.8518L92.0091 36.44ZM89.0091 38.48L88.6762 37.537L88.6703 37.5391L89.0091 38.48ZM83.6491 39.2L84.6465 39.2712L85.0465 33.6712L84.0491 33.6L83.0516 33.5288L82.6516 39.1288L83.6491 39.2ZM84.0491 33.6V34.6C85.2955 34.6 86.3594 34.4849 87.0994 34.1519L86.6891 33.24L86.2787 32.3281C85.952 32.4751 85.2559 32.6 84.0491 32.6V33.6ZM86.6891 33.24L87.1363 34.1344C88.0137 33.6957 88.4914 32.9013 88.6374 31.9521L87.6491 31.8L86.6607 31.6479C86.5934 32.0854 86.4311 32.2509 86.2418 32.3456L86.6891 33.24ZM87.6491 31.8L88.6383 31.9465C88.7587 31.1333 88.7823 30.0193 88.7283 28.6408L87.7291 28.68L86.7298 28.7192C86.7824 30.0607 86.7527 31.0267 86.6598 31.6535L87.6491 31.8ZM87.7291 28.68L88.7283 28.6421L88.0083 9.68205L87.0091 9.72L86.0098 9.75795L86.7298 28.7179L87.7291 28.68ZM87.0091 9.72V10.72H92.6491V9.72V8.72H87.0091V9.72ZM92.6491 9.72L91.6499 9.76128L92.4499 29.1213L93.4491 29.08L94.4482 29.0387L93.6482 9.67871L92.6491 9.72ZM93.4491 29.08L92.4496 29.1145C92.5013 30.6131 92.436 31.951 92.26 33.1327L93.2491 33.28L94.2381 33.4273C94.4355 32.1024 94.5034 30.6402 94.4485 29.0455L93.4491 29.08ZM93.2491 33.28L92.2575 33.1507C92.1172 34.2261 91.7614 35.1108 91.212 35.8361L92.0091 36.44L92.8061 37.0439C93.59 36.0092 94.0609 34.7872 94.2407 33.4093L93.2491 33.28ZM92.0091 36.44L91.2003 35.8518C90.7126 36.5225 89.9066 37.1028 88.6762 37.537L89.0091 38.48L89.3419 39.423C90.8315 38.8972 92.0255 38.1175 92.8178 37.0282L92.0091 36.44ZM89.0091 38.48L88.6703 37.5391C87.49 37.964 85.8327 38.2 83.6491 38.2V39.2V40.2C85.9454 40.2 87.8614 39.956 89.3478 39.4209L89.0091 38.48ZM98.724 39L97.7245 39.0287L97.7523 40H98.724V39ZM97.884 9.72V8.72H96.8549L96.8845 9.74867L97.884 9.72ZM103.484 9.72L104.484 9.69132L104.456 8.72H103.484V9.72ZM104.324 39V40H105.353L105.324 38.9713L104.324 39ZM98.724 39L99.7236 38.9713L98.8836 9.69132L97.884 9.72L96.8845 9.74867L97.7245 39.0287L98.724 39ZM97.884 9.72V10.72H103.484V9.72V8.72H97.884V9.72ZM103.484 9.72L102.484 9.74867L103.324 39.0287L104.324 39L105.324 38.9713L104.484 9.69132L103.484 9.72ZM104.324 39V38H98.724V39V40H104.324V39Z" fill="#619D68" mask="url(#path-3-outside-1_67_28)"/>
</svg>
