<?xml version="1.0" standalone="no"?>
<!DOCTYPE svg PUBLIC "-//W3C//DTD SVG 20010904//EN"
 "http://www.w3.org/TR/2001/REC-SVG-20010904/DTD/svg10.dtd">
<svg version="1.0" xmlns="http://www.w3.org/2000/svg"
 width="64.000000pt" height="64.000000pt" viewBox="0 0 64.000000 64.000000"
 preserveAspectRatio="xMidYMid meet">

<g transform="translate(0.000000,64.000000) scale(0.100000,-0.100000)"
fill="#000000" stroke="none">
<path d="M170 571 c-14 -26 -14 -476 0 -502 13 -22 50 -26 50 -4 0 8 5 15 10
15 6 0 9 -6 8 -12 -2 -7 7 -14 20 -16 15 -2 22 2 22 12 0 9 5 16 10 16 6 0 9
-6 8 -12 -2 -8 7 -13 22 -13 15 0 24 5 22 13 -1 6 2 12 8 12 5 0 10 -7 10 -16
0 -10 7 -14 23 -12 12 2 21 9 19 16 -1 6 2 12 8 12 5 0 10 -7 10 -15 0 -22 37
-18 50 4 14 26 14 476 0 502 -13 22 -50 26 -50 4 0 -8 -4 -15 -10 -15 -5 0 -9
6 -7 12 1 7 -8 14 -20 16 -16 2 -23 -2 -23 -12 0 -9 -4 -16 -10 -16 -5 0 -9 6
-7 13 1 7 -8 12 -23 12 -15 0 -24 -5 -22 -12 1 -7 -2 -13 -8 -13 -5 0 -10 7
-10 16 0 10 -7 14 -22 12 -13 -2 -22 -9 -20 -16 1 -6 -3 -12 -8 -12 -5 0 -10
7 -10 15 0 22 -37 18 -50 -4z m278 -248 l-3 -198 -125 0 -125 0 -3 198 -2 197
130 0 130 0 -2 -197z"/>
<path d="M210 320 l0 -180 110 0 110 0 0 180 0 180 -110 0 -110 0 0 -180z
m148 132 c28 -22 43 -74 49 -169 6 -103 -1 -113 -87 -113 -58 0 -71 3 -80 19
-13 24 -13 155 -1 179 6 9 12 28 15 42 5 23 48 59 71 60 6 0 20 -8 33 -18z"/>
<path d="M292 434 c-14 -9 -22 -26 -22 -43 0 -15 -5 -32 -10 -37 -6 -6 -10
-43 -8 -85 l3 -74 65 0 65 0 3 74 c2 42 -2 79 -8 85 -5 5 -10 22 -10 37 0 24
-30 59 -50 59 -3 0 -16 -7 -28 -16z"/>
</g>
</svg>
