<svg width="3380" height="3320" viewBox="0 0 3380 3320" fill="none" xmlns="http://www.w3.org/2000/svg">
<path fill-rule="evenodd" clip-rule="evenodd" d="M1829.26 59.6288C1884.26 49.1717 1953.62 67.7186 1975.25 124.41C1988.93 196.781 1953.42 267.121 1918.43 328.351C1837.56 469.281 1712.99 576.898 1612.92 703.211C1607.92 708.578 1602.39 713.25 1596.36 717.391C1601.97 676.66 1624.01 641.058 1644.46 606.219C1717.01 495.48 1821.04 410.531 1900.21 305.101C1933.29 265.558 1907.29 191.93 1853.15 190.371C1670.92 181.828 1498.62 250.879 1328.67 306.75C1289.4 322.199 1247.19 328.762 1208.54 345.871C930.48 456.711 642.41 551.328 387.578 711.512C624.449 879.051 864.422 1042.16 1101.61 1209.29C1110.9 1215.32 1121.63 1227.88 1133.24 1219.22C1229.44 1170.79 1338.38 1150.07 1445.72 1156.15C1413.93 993.301 1344.57 837.711 1337.45 670.23C1333.27 612.351 1340.7 549.019 1377.86 502.219C1417.69 579.371 1454.85 657.922 1492.83 735.98C1473.23 727.539 1453.46 719.488 1433.03 713.359C1438.39 823.59 1462.33 933.828 1509.19 1034.07C1546.87 1119.26 1616.54 1186.3 1693.9 1236.2C1715.72 1248.46 1716.14 1276.38 1717.95 1298.39C1717.84 1333.43 1721.6 1371.17 1704.83 1403.32C1611.74 1311.59 1474.36 1265.71 1345.03 1290.21C1318.76 1295.92 1291 1300.55 1268.87 1316.79C1436.58 1448.46 1600.07 1585.75 1760 1726.86C1823.12 1783.25 1885.81 1847.24 1968.24 1873.83C1937.79 1497.07 1873.07 1124.1 1838.91 747.789C1831.48 711.039 1852.89 678.32 1868.99 647.191C1934.22 743.969 1991.97 849.578 2012.61 965.719C1988.31 948.769 1966.73 928.262 1942.22 911.621C1972.82 1230.78 2024.8 1547.46 2057.15 1866.41C2058.02 1874.09 2058.96 1881.87 2061.95 1889.14C2111.55 1912.64 2167.8 1892.74 2214.44 1871.47C2247.32 1854.98 2281.83 1835.13 2301.82 1803.28C2288.76 1665.53 2272.59 1527.83 2252.89 1390.74C2215.38 1107.5 2177.19 824.308 2139.25 541.121C2127.75 419.91 2098.18 301.328 2087.24 180.18C2090.38 142.609 2103.18 105.961 2118.86 71.7889C2174.81 174.82 2245.09 274.531 2265.58 392.25C2239.99 375.859 2218 354.512 2192.2 338.391C2189.62 489.75 2222.28 638.68 2239.58 788.449C2279.56 1080.56 2319.72 1372.61 2359.6 1664.76C2374.57 1751.75 2359.41 1848.28 2303.2 1918.47C2247.89 1982.68 2166.35 2013.23 2088.52 2040.39C2096.17 2209.64 2103.44 2386.98 2035.17 2546.28C2038.93 2374.96 2023.18 2203.88 1999.72 2034.37C1877.1 1994.38 1780.95 1904.66 1690.99 1816.13C1568.12 1701.92 1448.97 1579.77 1304.21 1492.94C1300.03 1508.39 1316.29 1516.96 1324.55 1527.31C1398.45 1607.87 1464.65 1703.36 1479.16 1814.21C1481.53 1865.43 1482.88 1919.96 1458.93 1966.91C1430.18 2015 1382.09 2047.62 1333.68 2073.64C1194.44 2151.72 1034.26 2178.31 889.551 2243.6C793.57 2284.32 703.57 2343.22 636.172 2423.46C626.781 2435.02 614.648 2446.8 615.469 2462.99C611.301 2554.61 625.02 2651.87 678.801 2728.61C724.359 2794.72 799.609 2834.31 876.551 2851.83C985.91 2875.74 1103.31 2869.61 1208.23 2829.56C1239.6 2746.07 1266.54 2660.58 1308.14 2581.31C1284.76 2551.05 1251.47 2529.64 1229.74 2498.2C1230.46 2463.92 1258.34 2436.35 1281.14 2413.05C1293.22 2396.71 1311.13 2411.98 1325.06 2417.17C1397.52 2355.74 1468.79 2289.42 1516.67 2206.39C1453.51 2183.68 1463.47 2103.74 1492.68 2057.56C1505.48 2031.95 1545.84 2018.49 1564.21 2045.71C1602.5 2086.84 1584.23 2144.96 1580.45 2194.08C1601.06 2214.64 1622.27 2246.49 1595.48 2272.1C1577.77 2261.28 1566.38 2243.6 1550.68 2230.47C1489.43 2304.17 1418.42 2369.2 1346.84 2432.48C1364.7 2458.56 1396.28 2475.36 1408.2 2505.04C1395.46 2555.09 1350.14 2588.65 1325.99 2633.26C1297.14 2687.32 1271.39 2746.17 1271.03 2808.53C1462.59 2733.28 1648.22 2633.89 1798.61 2491.54C1808.3 2480.72 1826.53 2469.75 1817.49 2453.1C1775.27 2326.79 1710.04 2210.01 1655.95 2088.65C1645.59 2062.97 1626.55 2037.16 1633.67 2008.08C1638.87 1975.36 1642.6 1937.27 1671.39 1915.84C1724.75 1975.06 1778.07 2034.32 1831.16 2093.74C1833.91 2096.42 1838.85 2106.67 1830.7 2105.45C1803.56 2113.78 1783.53 2088.08 1757.78 2085.7C1769.33 2169.13 1825.43 2236.45 1851.86 2314.77C1874.83 2377.44 1879.72 2448.67 1854.33 2511.44C1827.66 2584.04 1772.48 2641.72 1715.11 2691.66C1579.01 2804.09 1416.82 2879.4 1253.22 2942.84C1242.8 3018.96 1261.79 3103.11 1315 3160.37C1351.02 3199.07 1410.88 3205.47 1456.76 3180.92C1606.62 3103.43 1695.08 2954.23 1804.85 2832.8C1878.54 2747.88 1970.86 2680.01 2071.55 2630.43C2197.1 2567.77 2331.23 2523.74 2454.87 2456.9C2423.86 2327.97 2390.84 2181.41 2459.26 2058.49C2487.38 2000.67 2563.2 1969.38 2621.82 1999.9C2664.45 2031.79 2690.72 2081.73 2706.25 2131.67C2750.32 2256.08 2702.28 2398.06 2610.46 2488.14C2599.17 2500.88 2582.91 2509.89 2575.07 2525.25C2600.56 2571.89 2647.27 2607.29 2699.33 2618.73C2798.95 2642.49 2904.16 2600.54 2975.22 2530.4C2944.15 2144.81 2888.43 1761.69 2841.72 1377.76C2805.09 1093.13 2770.29 808.129 2733.04 523.711C2735.98 488.41 2755.23 457.391 2771.18 426.558C2838.11 524.801 2885.02 636.469 2911.02 752.211C2881.35 743.461 2867.89 714.031 2846.42 694.601C2863.19 1017.67 2908.02 1338.38 2946.58 1659.4C2971.24 1869.09 2996.28 2078.74 3022.5 2288.29C3032.92 2358.16 3031.47 2429.96 3020.38 2499.64C3007.84 2583.28 2967.02 2668.73 2888.84 2709.13C2811.53 2743.45 2718.99 2766.79 2638.18 2730.05C2572.03 2697.42 2534.96 2629.55 2501.32 2567.35C2342.28 2621.2 2190.19 2693.78 2040.79 2769.93C1881.17 2853.79 1780.28 3008.6 1662.2 3138.67C1608.69 3191.92 1563.44 3257.02 1483.18 3277.72C1483.18 3277.72 1395.57 3291.51 1313.35 3224.12C1241.56 3168.05 1214.06 3075.33 1204.71 2988.4C1205.8 2959.58 1171.48 2976.13 1154.35 2976.38C1006.39 2996.64 834.539 3013.6 710.07 2913.72C589.16 2810.55 573.109 2639.8 574.031 2491.28C515.461 2522.94 475.051 2591.31 402.711 2594.15C278.488 2598.01 180.23 2483.04 163.453 2367.34C143.129 2231.91 206.031 2104.77 252.32 1981.55C125.875 1958.1 80.8359 1863.82 80.8359 1863.82C30.6562 1788.49 41.6133 1668.63 41.6133 1668.63C60.5 1558.07 102.613 1452.39 162.426 1357.51C169.336 1344.88 181.207 1331.27 174.297 1316.24C156.906 1264.69 151.742 1208.51 165.984 1155.54C193.855 1038.5 273.078 943.359 344.078 849.469C327.461 775.101 342.48 696.91 370.871 627.34C379.07 603.578 406.211 597.101 425.309 584.578C861.59 336.07 1341.84 174.051 1829.26 59.6288ZM363.02 876.101C559.379 1024.02 754.449 1173.67 950.449 1322.1C746.199 1507.58 559.801 1719.24 318.23 1858.43C262.18 1894.59 180.332 1888.79 132.645 1841.47C82.1289 1777.77 81.5 1689.18 98.7383 1613.22C119.23 1536.49 201.34 1363.66 215.949 1349.03C272.559 1367.01 343.871 1244.79 352.09 1169.72C308.59 1234.66 262.23 1235.89 250.621 1219.28C210.801 1187.13 232.039 1090.5 261.512 1034.11C287.98 977.019 327.309 927.488 363.02 876.101ZM356.93 1963.77C334.738 1978.04 297.012 1983.8 297.012 1983.8C250.559 2083.83 198.191 2211.9 203.809 2324.41C204.379 2379.19 226.109 2433.93 263.109 2474.33C291.328 2506.9 339.18 2507.93 378.398 2500.77C458.23 2475.57 510.301 2405.83 565.422 2347.45C674.828 2232.84 818.238 2158.26 964.898 2102.55C1130.4 2038.65 1303.39 1983.45 1446.49 1874.81C1380.7 1675.37 1206.67 1542.66 1051.6 1413.16C796.051 1566.01 628.059 1833.42 356.93 1963.77ZM2467.06 2210.92C2465.51 2282.51 2491.67 2352.91 2528.93 2413.2C2578.37 2387.86 2633.23 2363.68 2665.27 2316.21C2675.76 2265.92 2654.24 2215.16 2629.51 2172.07C2608.71 2140.22 2576.16 2105.34 2534.09 2112.44C2493.69 2126.31 2466.13 2168.47 2467.06 2210.92Z" fill="#0E3131"/>
<path fill-rule="evenodd" clip-rule="evenodd" d="M2619.66 1189.9C2621.58 1188 2549.99 674.809 2523.87 457.281C2552.51 468.148 2568.93 497.07 2595.5 511.539C2572.23 389.98 2509.48 281.488 2448.74 175.328C2424.38 208.16 2413.34 248.719 2407.92 288.559C2467.11 593.539 2586.26 1520.72 2596.23 1653.12C2658.57 1507.26 2639.52 1342.77 2619.66 1189.9Z" fill="#0E3131"/>
<path fill-rule="evenodd" clip-rule="evenodd" d="M841.359 2417.17C991.121 2355.85 1139.48 2291.17 1287.5 2225.78C1283.41 2258.29 1257.56 2285.19 1228.66 2298.69C1088.75 2365.43 939.82 2414.03 806.578 2494.27C821.328 2519.68 849.25 2543.64 840.281 2576.21C812.77 2581.89 796.199 2556.79 779.48 2539.82C765.91 2490.93 794.809 2436.24 841.359 2417.17Z" fill="#0E3131"/>
<path fill-rule="evenodd" clip-rule="evenodd" d="M1544.24 2345.08C1594.5 2346.62 1650.39 2374.81 1663.6 2426.66C1673.3 2471.54 1637.34 2511.22 1599.87 2530.19C1570.81 2541.28 1525.86 2535.45 1518.38 2499.48C1518.38 2447.22 1527.61 2394.66 1544.24 2345.08ZM1548.41 2397.23C1541.54 2423.93 1534.79 2455.31 1546.71 2480.98C1577.26 2499.18 1613.38 2477.32 1637.8 2457.69C1620.98 2424.85 1587.64 2394.86 1548.41 2397.23Z" fill="#0E3131"/>
<path fill-rule="evenodd" clip-rule="evenodd" d="M1955.74 430.621C1999.38 431.961 2047.9 456.441 2059.38 501.441C2067.79 540.422 2036.57 574.871 2004.04 591.34C1978.81 600.961 1939.78 595.898 1933.29 564.672C1933.29 519.301 1941.32 473.648 1955.74 430.621ZM1959.37 475.898C1953.41 499.078 1947.53 526.32 1957.89 548.602C1984.41 564.41 2015.77 545.43 2036.97 528.391C2022.36 499.879 1993.42 473.84 1959.37 475.898Z" fill="#0E3131"/>
<path fill-rule="evenodd" clip-rule="evenodd" d="M524 1230.64C523.27 1227.06 526.121 1222.7 531.84 1214.1C541.859 1208.32 548.309 1203.3 551.891 1202.57C562.66 1200.37 571.301 1206.07 578.539 1223.23C584.32 1233.23 583.672 1248.32 583.012 1263.38C543.469 1252.76 526.199 1241.39 524 1230.64ZM513.738 1180.45C490.18 1211.41 485.27 1242.23 491.129 1270.92C496.262 1295.97 522.91 1316.69 570.352 1329.4C544.66 1368.22 502.488 1417.84 442.379 1471.16C395.172 1514.37 344.371 1558.31 297.148 1601.52C284.988 1615.2 282.129 1619.49 282.871 1623.09L283.602 1626.67C287.191 1625.94 297.219 1620.16 307.238 1614.37C376.719 1570.38 413.25 1547.97 419.691 1542.95C451.898 1517.7 486.961 1488.18 523.422 1447.16C553.441 1411.22 579.871 1375.98 597.66 1335.04C618.52 1345.71 635.07 1353.53 643.711 1359.22C655.781 1326.92 662.879 1306.78 660.68 1296.03C651.309 1286.74 634.762 1278.93 611.051 1272.57C615.219 1238.14 616.539 1208.04 611.41 1182.93C606.289 1157.88 591.859 1142.14 576.789 1141.51C572.078 1140.64 567.328 1140.67 562.488 1141.65C547.43 1144.73 531.602 1157.07 513.738 1180.45Z" fill="#0E3131"/>
<path fill-rule="evenodd" clip-rule="evenodd" d="M524 1230.64C526.199 1241.39 543.469 1252.76 583.012 1263.38C583.672 1248.32 584.32 1233.23 578.539 1223.23C571.301 1206.07 562.66 1200.37 551.891 1202.57C548.309 1203.3 541.859 1208.32 531.84 1214.1C526.121 1222.7 523.27 1227.06 524 1230.64ZM561.57 1141.85L563.398 1141.48L563.621 1141.44C568.078 1140.67 572.449 1140.71 576.789 1141.51C591.859 1142.14 606.289 1157.88 611.41 1182.93C616.539 1208.04 615.219 1238.14 611.051 1272.57C634.762 1278.93 651.309 1286.74 660.68 1296.03L660.711 1296.2C662.801 1306.98 655.719 1327.07 643.711 1359.22C635.07 1353.53 618.52 1345.71 597.66 1335.04C579.871 1375.98 553.441 1411.22 523.422 1447.16C486.961 1488.18 451.898 1517.7 419.691 1542.95C413.25 1547.97 376.719 1570.38 307.238 1614.37C297.219 1620.16 287.191 1625.94 283.602 1626.67L282.871 1623.09C282.129 1619.49 284.988 1615.2 297.148 1601.52C344.371 1558.31 395.172 1514.37 442.379 1471.16C502.488 1417.84 544.66 1368.22 570.352 1329.4C522.91 1316.69 496.262 1295.97 491.129 1270.92C485.27 1242.23 490.18 1211.41 513.738 1180.45C531.238 1157.55 546.781 1145.24 561.57 1141.85Z" fill="#0E3131"/>
<path fill-rule="evenodd" clip-rule="evenodd" d="M2665.5 985.91C2665.24 982.828 2668.05 979.461 2673.7 972.801C2682.69 968.91 2688.59 965.328 2691.67 965.07C2700.93 964.269 2707.62 969.91 2712.03 985.019C2715.91 993.988 2713.88 1006.6 2711.86 1019.19C2679.69 1006.39 2666.3 995.148 2665.5 985.91ZM2661.8 942.769C2638.98 966.461 2631.85 991.871 2633.95 1016.53C2635.81 1038.07 2656.16 1058.07 2694.74 1073.38C2669.36 1103.47 2629.08 1141.02 2573.4 1179.92C2529.5 1211.61 2482.53 1243.53 2438.65 1275.21C2427.09 1285.5 2424.27 1288.83 2424.54 1291.93L2424.81 1295.01C2427.89 1294.74 2436.89 1290.88 2445.87 1286.97C2508.52 1256.84 2541.39 1241.59 2547.31 1238C2576.82 1219.95 2609.16 1198.56 2643.8 1167.7C2672.53 1140.44 2698.18 1113.42 2717.12 1080.79C2733.6 1091.79 2746.73 1099.98 2753.42 1105.6C2766.74 1079.64 2774.66 1063.44 2773.88 1054.2C2766.91 1045.47 2753.79 1037.29 2734.49 1029.64C2741.37 1001.13 2745.42 975.988 2743.58 954.398C2741.74 932.859 2731.17 918.238 2718.57 916.23C2714.71 915.039 2710.7 914.59 2706.54 914.961C2693.59 916.058 2679.1 924.879 2661.8 942.769Z" fill="#0E3131"/>
<path fill-rule="evenodd" clip-rule="evenodd" d="M2665.5 985.91C2666.3 995.148 2679.69 1006.39 2711.86 1019.19C2713.88 1006.6 2715.91 993.988 2712.03 985.019C2707.62 969.91 2700.93 964.269 2691.67 965.07C2688.59 965.328 2682.69 968.91 2673.7 972.801C2668.05 979.461 2665.24 982.828 2665.5 985.91ZM2773.87 1054.19L2773.91 1054.63C2774.41 1063.95 2766.53 1080.05 2753.42 1105.6C2746.73 1099.98 2733.6 1091.79 2717.12 1080.79C2698.18 1113.42 2672.53 1140.44 2643.8 1167.7C2609.16 1198.56 2576.82 1219.95 2547.31 1238C2541.39 1241.59 2508.52 1256.84 2445.87 1286.97C2436.89 1290.88 2427.89 1294.74 2424.81 1295.01L2424.54 1291.93C2424.27 1288.83 2427.09 1285.5 2438.65 1275.21C2482.53 1243.53 2529.5 1211.61 2573.4 1179.92C2629.08 1141.02 2669.36 1103.47 2694.74 1073.38C2656.16 1058.07 2635.81 1038.07 2633.95 1016.53C2631.85 991.871 2638.98 966.461 2661.8 942.769C2679.1 924.879 2693.59 916.058 2706.54 914.961C2710.7 914.59 2714.71 915.039 2718.57 916.23C2731.17 918.238 2741.74 932.859 2743.58 954.398C2745.42 975.988 2741.37 1001.13 2734.49 1029.64C2753.78 1037.29 2766.9 1045.47 2773.87 1054.19Z" fill="#0E3131"/>
<path fill-rule="evenodd" clip-rule="evenodd" d="M1570.2 906.73C1593.72 900.172 1618.66 907.02 1643.51 930.02C1670.49 952.391 1693.45 985.102 1714.51 1027.52C1715.71 1031.81 1716.31 1033.93 1716.89 1036.06C1719.04 1035.47 1719.04 1035.47 1719.04 1035.47C1718.44 1033.33 1719.97 1030.6 1718.79 1026.33C1715.31 997.398 1715.26 956.012 1713.18 899.102C1719.55 855.922 1731.87 834.078 1751.1 828.73C1759.65 826.34 1772.11 829.77 1784.24 840.191C1795.78 848.481 1802.43 855.828 1804.22 862.219C1806 868.621 1805.66 875.629 1805.91 884.77C1805.22 898.738 1802.73 906.352 1798.45 907.52C1796.32 908.141 1790.85 905.059 1779.91 898.898C1771.11 892.148 1763.52 889.672 1754.97 892.039C1737.87 896.809 1733.65 939.391 1740.16 1020.38C1743.29 1056.31 1743.43 1081.57 1741.2 1098.29C1737.16 1108.62 1734.68 1116.21 1730.41 1117.41C1728.28 1117.99 1724.95 1114.32 1721.95 1103.66C1718.38 1090.84 1702.67 1067.62 1676.4 1031.25C1648.57 997.59 1632.52 981.371 1626.1 983.148C1621.83 984.352 1619.7 984.949 1618.75 989.809C1617.21 992.531 1615.66 995.262 1609.27 997.051C1600.72 999.43 1590.37 995.41 1576.71 987.719C1560.91 980.621 1554.25 973.289 1552.46 966.879C1551.86 964.75 1553.75 955.012 1557.53 935.559C1563.45 915.512 1568.07 907.309 1570.2 906.73Z" fill="#0E3131"/>
<path fill-rule="evenodd" clip-rule="evenodd" d="M1018.23 868.532C1041.74 861.989 1066.69 868.84 1091.53 891.809C1118.51 914.192 1141.47 946.899 1162.54 989.328C1163.73 993.61 1164.32 995.739 1164.92 997.871C1167.05 997.282 1167.05 997.282 1167.05 997.282C1166.46 995.141 1168 992.41 1166.81 988.149C1163.33 959.211 1163.29 917.828 1161.2 860.899C1167.57 817.719 1179.89 795.899 1199.13 790.532C1207.67 788.16 1220.15 791.571 1232.27 802C1243.8 810.289 1250.46 817.629 1252.25 824.039C1254.03 830.43 1253.69 837.43 1253.93 846.571C1253.23 860.559 1250.75 868.149 1246.48 869.352C1244.34 869.942 1238.88 866.86 1227.94 860.699C1219.15 853.961 1211.54 851.469 1203 853.871C1185.9 858.621 1181.67 901.199 1188.18 982.192C1191.31 1018.11 1191.46 1043.37 1189.22 1060.09C1185.19 1070.43 1182.7 1078.03 1178.44 1079.21C1176.29 1079.81 1172.97 1076.13 1169.99 1065.46C1166.41 1052.66 1150.71 1029.44 1124.42 993.051C1096.6 959.41 1080.54 943.18 1074.13 944.969C1069.86 946.149 1067.72 946.75 1066.78 951.61C1065.23 954.328 1063.69 957.078 1057.29 958.86C1048.74 961.231 1038.41 957.219 1024.73 949.532C1008.93 942.43 1002.28 935.078 1000.49 928.68C999.891 926.551 1001.78 916.809 1005.56 897.36C1011.47 877.309 1016.1 869.129 1018.23 868.532Z" fill="#0E3131"/>
<path fill-rule="evenodd" clip-rule="evenodd" d="M540.422 1942.55C563.922 1936 588.871 1942.85 613.711 1965.82C640.699 1988.21 663.648 2020.91 684.73 2063.36C685.922 2067.61 686.512 2069.74 687.109 2071.89C689.25 2071.29 689.25 2071.29 689.25 2071.29C688.641 2069.14 690.191 2066.42 688.988 2062.15C685.52 2033.22 685.469 1991.84 683.391 1934.91C689.762 1891.73 702.078 1869.91 721.301 1864.54C729.852 1862.17 742.328 1865.59 754.461 1876.01C765.98 1884.3 772.641 1891.64 774.43 1898.05C776.219 1904.46 775.871 1911.45 776.121 1920.58C775.43 1934.58 772.941 1942.16 768.66 1943.36C766.531 1943.95 761.059 1940.87 750.129 1934.72C741.328 1927.96 733.73 1925.49 725.18 1927.88C708.09 1932.63 703.859 1975.2 710.359 2056.19C713.488 2092.14 713.641 2117.4 711.41 2134.12C707.371 2144.43 704.891 2152.04 700.621 2153.22C698.48 2153.82 695.148 2150.13 692.172 2139.47C688.59 2126.67 672.898 2103.45 646.602 2067.06C618.781 2033.42 602.73 2017.19 596.32 2018.98C592.039 2020.17 589.91 2020.76 588.961 2025.63C587.43 2028.36 585.879 2031.09 579.469 2032.87C570.922 2035.26 560.578 2031.23 546.922 2023.53C531.121 2016.44 524.461 2009.09 522.672 2002.68C522.078 2000.55 523.961 1990.84 527.75 1971.37C533.648 1951.32 538.281 1943.15 540.422 1942.55Z" fill="#0E3131"/>
<path fill-rule="evenodd" clip-rule="evenodd" d="M896.988 2569.59C920.488 2563.03 945.441 2569.88 970.281 2592.87C997.269 2615.25 1020.23 2647.96 1041.29 2690.39C1042.48 2694.64 1043.08 2696.79 1043.68 2698.92C1045.82 2698.32 1045.82 2698.32 1045.82 2698.32C1045.22 2696.19 1046.76 2693.46 1045.56 2689.19C1042.09 2660.26 1042.04 2618.87 1039.96 2561.96C1046.33 2518.78 1058.65 2496.94 1077.88 2491.59C1086.43 2489.2 1098.9 2492.63 1111.02 2503.05C1122.55 2511.34 1129.21 2518.69 1131 2525.08C1132.79 2531.48 1132.44 2538.49 1132.69 2547.61C1132 2561.6 1129.51 2569.2 1125.23 2570.39C1123.1 2570.98 1117.63 2567.92 1106.7 2561.75C1097.9 2555.01 1090.3 2552.53 1081.75 2554.9C1064.65 2559.68 1060.43 2602.25 1066.94 2683.25C1070.06 2719.17 1070.21 2744.43 1067.97 2761.15C1063.95 2771.48 1061.46 2779.07 1057.19 2780.27C1055.05 2780.85 1051.72 2777.18 1048.74 2766.52C1045.16 2753.7 1029.46 2730.48 1003.18 2694.11C975.352 2660.45 959.301 2644.24 952.891 2646.01C948.621 2647.2 946.469 2647.8 945.531 2652.67C944 2655.39 942.449 2658.12 936.039 2659.92C927.488 2662.29 917.16 2658.27 903.48 2650.57C887.691 2643.48 881.031 2636.12 879.238 2629.73C878.648 2627.61 880.531 2617.87 884.309 2598.42C890.23 2578.37 894.852 2570.18 896.988 2569.59Z" fill="#0E3131"/>
<path fill-rule="evenodd" clip-rule="evenodd" d="M2157.13 2833.38C2180.63 2826.81 2205.58 2833.67 2230.42 2856.66C2257.4 2879.04 2280.37 2911.74 2301.44 2954.17C2302.62 2958.43 2303.22 2960.57 2303.81 2962.71C2305.95 2962.11 2305.95 2962.11 2305.95 2962.11C2305.35 2959.98 2306.9 2957.25 2305.7 2952.98C2302.24 2924.05 2302.19 2882.65 2300.1 2825.74C2306.46 2782.57 2318.78 2760.72 2338.01 2755.37C2346.56 2752.98 2359.04 2756.42 2371.16 2766.84C2382.69 2775.13 2389.35 2782.47 2391.14 2788.87C2392.93 2795.27 2392.58 2802.28 2392.82 2811.39C2392.13 2825.39 2389.64 2832.99 2385.38 2834.17C2383.23 2834.77 2377.77 2831.71 2366.84 2825.54C2358.04 2818.79 2350.44 2816.32 2341.89 2818.69C2324.8 2823.46 2320.57 2866.03 2327.07 2947.02C2330.2 2982.96 2330.35 3008.21 2328.11 3024.94C2324.09 3035.27 2321.6 3042.86 2317.32 3044.05C2315.19 3044.65 2311.86 3040.97 2308.88 3030.3C2305.3 3017.49 2289.6 2994.26 2263.31 2957.89C2235.48 2924.24 2219.45 2908.02 2213.03 2909.8C2208.75 2910.99 2206.62 2911.59 2205.68 2916.45C2204.13 2919.18 2202.59 2921.91 2196.18 2923.7C2187.63 2926.07 2177.3 2922.06 2163.64 2914.37C2147.83 2907.27 2141.17 2899.91 2139.39 2893.51C2138.79 2891.39 2140.68 2881.66 2144.45 2862.2C2150.36 2842.16 2154.98 2833.97 2157.13 2833.38Z" fill="#0E3131"/>
<path fill-rule="evenodd" clip-rule="evenodd" d="M823.121 740.301C823.121 737.91 825.52 735.52 825.52 733.129C827.91 733.129 827.91 733.129 827.91 733.129C830.309 735.52 830.309 737.91 827.91 740.301C815.93 809.66 794.379 845.539 768.039 845.539C736.898 845.539 722.531 819.238 722.531 769.012C722.531 706.809 739.301 642.238 775.219 572.871C784.801 556.129 789.59 548.961 791.988 548.961C791.988 551.352 789.59 560.91 784.801 577.648C760.852 647.02 748.879 697.25 748.879 723.551C748.879 764.219 758.461 783.359 780.012 783.359C791.988 783.359 806.352 769.012 823.121 740.301Z" fill="#0E3131"/>
<path fill-rule="evenodd" clip-rule="evenodd" d="M1096.49 670.672C1096.49 668.281 1098.9 665.891 1098.9 663.5C1101.28 663.5 1101.28 663.5 1101.28 663.5C1103.69 665.891 1103.69 668.281 1101.28 670.672C1089.32 740.039 1067.76 775.922 1041.41 775.922C1010.27 775.922 995.898 749.609 995.898 699.379C995.898 637.199 1012.67 572.609 1048.6 503.25C1058.18 486.5 1062.97 479.32 1065.36 479.32C1065.36 481.711 1062.97 491.281 1058.18 508.031C1034.22 577.391 1022.25 627.621 1022.25 653.93C1022.25 694.602 1031.83 713.719 1053.39 713.719C1065.36 713.719 1079.73 699.379 1096.49 670.672Z" fill="#0E3131"/>
<path fill-rule="evenodd" clip-rule="evenodd" d="M1608.05 474.34C1608.05 472.27 1610.13 470.199 1610.13 468.141C1612.2 468.141 1612.2 468.141 1612.2 468.141C1614.27 470.199 1614.27 472.27 1612.2 474.34C1601.82 534.391 1583.17 565.449 1560.36 565.449C1533.41 565.449 1520.97 542.672 1520.97 499.191C1520.97 445.359 1535.48 389.461 1566.58 329.41C1574.88 314.91 1579.03 308.699 1581.1 308.699C1581.1 310.781 1579.03 319.059 1574.88 333.539C1554.14 393.602 1543.77 437.07 1543.77 459.859C1543.77 495.051 1552.07 511.621 1570.73 511.621C1581.1 511.621 1593.53 499.191 1608.05 474.34Z" fill="#0E3131"/>
<path fill-rule="evenodd" clip-rule="evenodd" d="M2395.75 756.148C2395.46 754.102 2397.24 751.77 2396.95 749.711C2399.01 749.441 2399.01 749.441 2399.01 749.441C2401.35 751.199 2401.64 753.262 2399.87 755.59C2397.78 816.48 2383.53 849.789 2360.94 852.898C2334.24 856.559 2318.81 835.691 2312.87 792.621C2305.54 739.301 2312.27 681.922 2334.9 618.211C2341.15 602.719 2344.39 595.988 2346.45 595.719C2346.73 597.781 2345.81 606.27 2343.68 621.18C2331.33 683.488 2326.99 727.98 2330.1 750.539C2334.9 785.41 2345.38 800.699 2363.86 798.148C2374.13 796.738 2384.76 782.75 2395.75 756.148Z" fill="#0E3131"/>
<path fill-rule="evenodd" clip-rule="evenodd" d="M2155.52 1275C2155.03 1272.8 2156.75 1270.12 2156.27 1267.91C2158.47 1267.43 2158.47 1267.43 2158.47 1267.43C2161.17 1269.15 2161.64 1271.35 2159.92 1274.04C2162.95 1340.4 2150.36 1377.84 2126.07 1383.15C2097.38 1389.45 2078.79 1368.1 2068.6 1321.81C2056 1264.49 2058.34 1201.57 2077.41 1130.36C2082.84 1112.99 2085.8 1105.4 2088.01 1104.93C2088.49 1107.12 2088.23 1116.42 2087.2 1132.82C2079.19 1201.62 2078.35 1250.34 2083.67 1274.59C2091.91 1312.06 2104.64 1327.77 2124.5 1323.41C2135.53 1320.98 2145.88 1304.86 2155.52 1275Z" fill="#0E3131"/>
<path fill-rule="evenodd" clip-rule="evenodd" d="M2782.98 1484.97C2782.78 1482.74 2784.82 1480.28 2784.61 1478.03C2786.86 1477.83 2786.86 1477.83 2786.86 1477.83C2789.32 1479.87 2789.53 1482.12 2787.48 1484.57C2782.2 1550.79 2765.02 1586.36 2740.27 1588.62C2710.99 1591.29 2695.23 1567.8 2690.91 1520.59C2685.55 1462.14 2695.75 1400.01 2723.55 1331.73C2731.12 1315.18 2735 1308.02 2737.25 1307.82C2737.45 1310.07 2736.03 1319.27 2732.96 1335.41C2716.43 1402.65 2709.49 1450.88 2711.76 1475.62C2715.26 1513.83 2725.9 1531 2746.16 1529.15C2757.43 1528.12 2769.69 1513.39 2782.98 1484.97Z" fill="#0E3131"/>
<path fill-rule="evenodd" clip-rule="evenodd" d="M2880.41 2362.99C2880.21 2360.74 2882.25 2358.29 2882.05 2356.03C2884.31 2355.83 2884.31 2355.83 2884.31 2355.83C2886.77 2357.87 2886.97 2360.12 2884.93 2362.58C2879.63 2428.79 2862.47 2464.37 2837.7 2466.62C2808.44 2469.29 2792.67 2445.81 2788.35 2398.59C2783 2340.16 2793.19 2278.02 2821 2209.73C2828.55 2193.18 2832.43 2186.02 2834.69 2185.82C2834.89 2188.07 2833.46 2197.27 2830.41 2213.41C2813.86 2280.65 2806.94 2328.88 2809.2 2353.63C2812.69 2391.83 2823.35 2408.99 2843.61 2407.15C2854.86 2406.12 2867.14 2391.39 2880.41 2362.99Z" fill="#0E3131"/>
<path fill-rule="evenodd" clip-rule="evenodd" d="M3286.5 1510.29C3286.21 1508.36 3287.84 1506.14 3287.55 1504.21C3289.48 1503.92 3289.48 1503.92 3289.48 1503.92C3290.7 1504.82 3291.34 1505.8 3291.4 1506.87V1507.15C3291.37 1507.95 3291.02 1508.81 3290.35 1509.71C3289.16 1567.08 3276.16 1598.62 3254.92 1601.83C3229.82 1605.62 3215.02 1586.16 3208.9 1545.67C3201.32 1495.54 3206.95 1441.43 3227.46 1381.15C3233.14 1366.48 3236.13 1360.1 3238.05 1359.81C3238.34 1361.74 3237.59 1369.74 3235.76 1383.83C3224.91 1442.67 3221.38 1484.6 3224.6 1505.82C3229.56 1538.61 3239.62 1552.86 3256.99 1550.24C3266.64 1548.78 3276.48 1535.46 3286.5 1510.29Z" fill="#0E3131"/>
<path fill-rule="evenodd" clip-rule="evenodd" d="M1838.69 1553.76C1838.51 1551.69 1840.4 1549.43 1840.2 1547.37C1842.27 1547.17 1842.27 1547.17 1842.27 1547.17C1844.54 1549.06 1844.73 1551.13 1842.84 1553.38C1837.97 1614.35 1822.17 1647.11 1799.37 1649.19C1772.42 1651.64 1757.9 1630.02 1753.92 1586.55C1749 1532.73 1758.39 1475.53 1783.98 1412.66C1790.94 1397.41 1794.52 1390.83 1796.6 1390.63C1796.78 1392.7 1795.47 1401.18 1792.65 1416.04C1777.42 1477.97 1771.04 1522.37 1773.13 1545.13C1776.35 1580.33 1786.16 1596.13 1804.8 1594.43C1815.17 1593.47 1826.46 1579.93 1838.69 1553.76Z" fill="#0E3131"/>
<path fill-rule="evenodd" clip-rule="evenodd" d="M458.012 2229.61C457.828 2227.54 459.711 2225.28 459.52 2223.21C461.59 2223.02 461.59 2223.02 461.59 2223.02C463.852 2224.9 464.039 2226.98 462.16 2229.23C457.289 2290.2 441.481 2322.95 418.68 2325.02C391.738 2327.49 377.211 2305.87 373.231 2262.4C368.309 2208.59 377.699 2151.37 403.301 2088.51C410.25 2073.26 413.828 2066.68 415.91 2066.48C416.102 2068.55 414.781 2077.02 411.961 2091.89C396.731 2153.8 390.352 2198.22 392.43 2220.98C395.66 2256.18 405.461 2271.98 424.121 2270.28C434.481 2269.32 445.781 2255.77 458.012 2229.61Z" fill="#0E3131"/>
<path fill-rule="evenodd" clip-rule="evenodd" d="M535.719 2724.06C535.57 2722.38 537.09 2720.53 536.949 2718.85C538.629 2718.69 538.629 2718.69 538.629 2718.69C540.469 2720.23 540.629 2721.91 539.09 2723.75C535.129 2773.38 522.262 2800.04 503.711 2801.73C481.781 2803.73 469.961 2786.13 466.719 2750.75C462.711 2706.95 470.352 2660.39 491.18 2609.23C496.859 2596.81 499.762 2591.46 501.461 2591.29C501.602 2592.98 500.539 2599.88 498.25 2611.97C485.852 2662.37 480.648 2698.51 482.34 2717.04C484.969 2745.68 492.949 2758.54 508.129 2757.15C516.57 2756.39 525.77 2745.35 535.719 2724.06Z" fill="#0E3131"/>
<path fill-rule="evenodd" clip-rule="evenodd" d="M1128.27 3144.98C1128.11 3143.29 1129.65 3141.46 1129.49 3139.77C1131.19 3139.62 1131.19 3139.62 1131.19 3139.62C1133.02 3141.15 1133.18 3142.83 1131.65 3144.68C1127.68 3194.29 1114.82 3220.94 1096.26 3222.65C1074.33 3224.66 1062.51 3207.04 1059.27 3171.67C1055.27 3127.86 1062.91 3081.31 1083.74 3030.14C1089.4 3017.74 1092.32 3012.37 1094 3012.22C1094.16 3013.91 1093.08 3020.8 1090.8 3032.9C1078.4 3083.29 1073.21 3119.43 1074.9 3137.96C1077.52 3166.61 1085.5 3179.47 1100.69 3178.07C1109.12 3177.31 1118.31 3166.27 1128.27 3144.98Z" fill="#0E3131"/>
<path fill-rule="evenodd" clip-rule="evenodd" d="M2578.05 2878.3C2577.86 2876.27 2579.72 2874.05 2579.52 2872.02C2581.56 2871.83 2581.56 2871.83 2581.56 2871.83C2583.79 2873.69 2583.97 2875.71 2582.13 2877.93C2577.34 2937.89 2561.79 2970.1 2539.37 2972.14C2512.88 2974.55 2498.6 2953.28 2494.69 2910.55C2489.84 2857.63 2499.08 2801.37 2524.25 2739.57C2531.09 2724.58 2534.61 2718.09 2536.65 2717.92C2536.84 2719.95 2535.55 2728.27 2532.77 2742.89C2517.79 2803.78 2511.51 2847.45 2513.57 2869.83C2516.73 2904.43 2526.37 2919.96 2544.73 2918.29C2554.9 2917.35 2566.01 2904.04 2578.05 2878.3Z" fill="#0E3131"/>
<path fill-rule="evenodd" clip-rule="evenodd" d="M2306.5 2273.69C2304.6 2288.94 2298.87 2298.48 2293.14 2304.2C2274.06 2315.63 2228.24 2346.13 2159.52 2393.78C2157.62 2395.68 2153.8 2397.59 2149.98 2401.4C2148.07 2399.5 2148.07 2399.5 2148.07 2397.59L2151.89 2372.81C2151.89 2367.09 2163.34 2355.65 2186.25 2338.49C2159.52 2328.96 2146.17 2317.53 2146.17 2302.28C2146.17 2285.12 2151.89 2269.88 2167.17 2252.73C2193.89 2218.41 2216.79 2203.17 2235.88 2203.17C2251.15 2203.17 2260.68 2210.79 2260.68 2229.86C2260.68 2241.29 2254.96 2252.73 2247.33 2267.98C2245.41 2271.79 2241.61 2269.88 2239.69 2266.06C2235.88 2254.63 2228.24 2250.83 2220.61 2250.83C2212.97 2250.83 2205.34 2252.73 2195.79 2260.34C2188.16 2266.06 2182.44 2271.79 2182.44 2275.59C2182.44 2281.31 2188.16 2287.03 2199.61 2292.75C2211.07 2298.48 2218.69 2302.28 2226.34 2302.28C2232.06 2302.28 2243.51 2298.48 2258.78 2288.94C2270.23 2281.31 2279.78 2273.69 2291.23 2267.98C2300.78 2262.26 2304.6 2260.34 2306.5 2262.26C2308.41 2262.26 2308.41 2266.06 2306.5 2273.69Z" fill="#0E3131"/>
<path fill-rule="evenodd" clip-rule="evenodd" d="M1037.84 1780.99L1077.73 1698.68C1080.38 1693.37 1083.05 1690.71 1088.36 1690.71C1093.68 1690.71 1114.96 1703.99 1154.84 1730.55C1194.72 1757.09 1213.34 1773.04 1213.34 1778.34C1213.34 1794.28 1197.39 1831.45 1162.82 1887.21C1157.5 1895.18 1152.18 1897.83 1149.52 1892.53C1114.96 1868.64 1075.07 1842.07 1032.53 1812.86C1019.22 1847.39 1003.27 1873.94 989.98 1897.83C984.648 1903.16 982 1905.8 976.68 1903.16C936.789 1871.28 896.898 1844.72 857.031 1818.17C854.359 1818.17 854.359 1815.53 857.031 1810.21L904.879 1706.65C910.199 1701.34 912.871 1698.68 915.52 1698.68C920.84 1698.68 939.449 1709.3 974.02 1733.2C1005.93 1754.45 1027.2 1770.37 1037.84 1780.99Z" fill="#0E3131"/>
<path fill-rule="evenodd" clip-rule="evenodd" d="M2613.18 1737.74L2653.07 1655.41C2655.73 1650.11 2658.38 1647.46 2663.71 1647.46C2669.02 1647.46 2690.29 1660.73 2730.18 1687.28C2770.06 1713.84 2788.67 1729.77 2788.67 1735.09C2788.67 1751.01 2772.73 1788.2 2738.17 1843.96C2732.84 1851.93 2727.53 1854.58 2724.85 1849.26C2690.29 1825.37 2650.4 1798.82 2607.85 1769.6C2594.56 1804.12 2578.61 1830.68 2565.31 1854.58C2560 1859.89 2557.34 1862.55 2552.02 1859.89C2512.13 1828.02 2472.25 1801.47 2432.36 1774.92C2429.71 1774.92 2429.71 1772.26 2432.36 1766.95L2480.22 1663.38C2485.54 1658.08 2488.2 1655.41 2490.85 1655.41C2496.18 1655.41 2514.8 1666.04 2549.36 1689.95C2581.27 1711.19 2602.55 1727.12 2613.18 1737.74Z" fill="#0E3131"/>
<path fill-rule="evenodd" clip-rule="evenodd" d="M1385.48 29.7695C1178.23 107.891 974.898 182.051 783.301 252.34C771.57 275.781 763.738 299.191 759.84 322.629C994.449 225.039 1201.69 146.898 1377.65 80.5586C1381.56 76.6289 1389.38 64.8984 1397.2 41.4805C1401.11 33.7109 1401.11 29.7695 1401.11 29.7695C1400.03 28.7109 1398.95 28.2188 1397.8 28.0781H1396.23C1393.5 28.3516 1390.2 29.7695 1385.48 29.7695Z" fill="#0E3131"/>
<path fill-rule="evenodd" clip-rule="evenodd" d="M1385.48 29.7695C1178.23 107.891 974.898 182.051 783.301 252.34C771.57 275.781 763.738 299.191 759.84 322.629C994.449 225.039 1201.69 146.898 1377.65 80.5586C1381.56 76.6289 1389.38 64.8984 1397.2 41.4805C1401.11 33.7109 1401.11 29.7695 1401.11 29.7695C1400.03 28.7109 1398.95 28.2188 1397.8 28.0781H1396.23C1393.5 28.3516 1390.2 29.7695 1385.48 29.7695Z" fill="#0E3131"/>
<path fill-rule="evenodd" clip-rule="evenodd" d="M2260.63 1600.08C2191.59 1640.43 2123.7 1679.11 2059.74 1715.7C2057 1724.74 2055.63 1733.55 2055.66 1742.14C2133.26 1693.23 2202.3 1652.89 2260.92 1618.65C2262.06 1617 2264.14 1612.36 2265.51 1603.55C2266.43 1600.54 2266.2 1599.15 2266.2 1599.15C2265.64 1598.76 2265.16 1598.68 2264.64 1598.78C2263.62 1598.95 2262.48 1599.77 2260.63 1600.08Z" fill="#0E3131"/>
<path fill-rule="evenodd" clip-rule="evenodd" d="M2266.2 1599.15V1599.17C2266.22 1599.38 2266.35 1600.78 2265.51 1603.55C2264.14 1612.36 2262.06 1617 2260.92 1618.65C2202.3 1652.89 2133.26 1693.23 2055.66 1742.14C2055.63 1733.55 2057 1724.74 2059.74 1715.7C2123.7 1679.11 2191.59 1640.43 2260.63 1600.08C2262.48 1599.77 2263.62 1598.95 2264.64 1598.78C2265.16 1598.68 2265.64 1598.76 2266.2 1599.15Z" fill="#0E3131"/>
<path fill-rule="evenodd" clip-rule="evenodd" d="M3004.2 1004.09C3001.24 957.789 2991.83 922.61 2979.3 894.789C2978.17 876.981 2986.36 837.11 3007.47 774.961C3010.58 767.602 3013.91 763.821 3017.49 763.59C3021.05 763.36 3024.84 766.7 3029.09 777.149C3037.14 790.95 3054.14 832.789 3087.24 902.219C3120.56 975.211 3141.35 1020.38 3146.07 1037.98C3150.32 1048.43 3150.99 1059.12 3151.45 1066.24C3152.82 1087.62 3134.08 1074.5 3092.1 1034.25C3088.08 1027.36 3084.73 1031.16 3085.43 1041.84C3085.65 1045.4 3105.45 1187.22 3141.28 1467.52C3180.68 1747.59 3201.39 1903.66 3203.68 1939.28C3210.74 2049.71 3198.82 2143.48 3171.96 2227.47C3165.96 2245.73 3163.07 2256.65 3156.39 2264.22C3153.74 2278.71 3150.16 2278.93 3146.14 2272.04C3145.47 2261.34 3144.55 2247.1 3146.29 2218.38C3147.58 2182.51 3148.43 2139.55 3145.24 2089.67C3142.27 2043.35 3116.4 1862.58 3074.26 1539.75C3032.36 1220.5 3006.49 1039.71 3004.2 1004.09Z" fill="#0E3131"/>
</svg>
