<svg width="136" height="167" viewBox="0 0 136 167" fill="none" xmlns="http://www.w3.org/2000/svg">
<path d="M69.1953 46.2646C74.375 48.8038 74.375 48.8038 79.8203 54.6075C86.1121 60.925 91.477 61.4548 100.672 62.1041C104.655 62.2364 108.64 62.3341 112.625 62.3459C112.606 63.8646 112.587 65.3833 112.567 66.9481C112.914 78.1528 113.226 85.687 122.32 93.7829C124.702 95.6153 127.12 97.4122 129.625 99.103C126.905 104.642 125.419 106.811 119.93 110.59C111.824 119.861 112.829 130.132 112.625 141.664C110.803 141.647 108.982 141.629 107.105 141.611C89.7177 141.88 89.7177 141.88 75.8359 150.491C73.8606 152.655 71.9276 154.855 70.125 157.141C64.0408 154.665 61.6585 153.312 57.5078 148.314C47.3235 140.935 36.0424 141.85 23.375 141.664C23.3942 140.006 23.4133 138.347 23.4331 136.639C23.1375 120.809 23.1375 120.809 13.6797 108.171C11.3026 106.373 8.88559 104.613 6.375 102.972C9.53175 97.7992 12.1827 93.7453 17.1328 89.8533C22.461 84.2984 22.496 80.752 22.8438 73.4698C22.9643 71.3849 23.0848 69.3001 23.209 67.1521C23.2638 65.5661 23.3186 63.98 23.375 62.3459C25.0432 62.3633 26.7114 62.3808 28.4302 62.3988C41.8185 62.3366 41.8185 62.3366 53.5068 57.1996C55.9282 54.7356 58.3209 52.2479 60.6787 49.7333C63.75 46.8692 63.75 46.8692 69.1953 46.2646ZM65.875 54.6075C64.1657 56.4829 62.4564 58.3582 60.6953 60.2904C52.9954 67.7199 45.2146 67.7413 34.415 68.1345C32.8756 68.1395 31.3361 68.1445 29.75 68.1496C29.7445 69.5287 29.739 70.9078 29.7334 72.3287C29.1796 84.8149 27.3669 91.8147 17.5894 100.758C16.6936 101.489 15.7979 102.219 14.875 102.972C16.9349 104.449 18.9948 105.925 21.1172 107.446C29.1784 114.612 29.2988 121.722 29.7334 131.613C29.7389 133.015 29.7444 134.416 29.75 135.86C31.2895 135.865 32.8289 135.87 34.415 135.875C53.2845 136.562 53.2845 136.562 60.9609 143.719C62.5826 145.595 64.2042 147.47 65.875 149.402C71.2395 147.309 74.1196 145.84 77.6953 141.543C86.0585 135.491 95.8498 136.187 106.25 135.86C106.255 134.481 106.261 133.102 106.267 131.681C106.82 119.195 108.633 112.195 118.411 103.252C119.306 102.521 120.202 101.79 121.125 101.038C119.065 99.5613 117.005 98.085 114.883 96.5639C106.822 89.3977 106.701 82.2881 106.267 72.3967C106.258 70.2944 106.258 70.2944 106.25 68.1496C104.711 68.1447 103.171 68.1397 101.585 68.1345C82.7224 67.4476 82.7224 67.4476 75.3047 60.2904C73.5954 58.415 71.8861 56.5397 70.125 54.6075C68.7225 54.6075 67.32 54.6075 65.875 54.6075Z" fill="#619D68"/>
<path d="M65.875 64.2805C73.8266 67.5256 73.8266 67.5256 77.0312 71.1724C83.1566 75.7531 89.9758 75.3079 97.75 75.888C97.9253 78.282 98.1006 80.6761 98.2812 83.1427C99.2838 90.9975 102.024 93.7065 108.375 99.103C108.242 103.093 108.242 103.093 106.25 106.841C105.198 107.639 104.146 108.437 103.062 109.26C97.8459 114.8 98.3939 120.97 97.75 128.122C95.1203 128.281 92.4906 128.441 89.7812 128.606C81.1005 129.522 78.3006 132.096 72.25 137.795C66.8047 137.674 66.8047 137.674 61.625 135.86C60.7046 134.903 59.7842 133.945 58.8359 132.958C52.8941 128.15 46.0215 128.702 38.25 128.122C38.0747 125.728 37.8994 123.334 37.7188 120.867C36.7162 113.012 33.9761 110.303 27.625 104.907C27.7578 100.917 27.7578 100.917 29.75 97.1685C30.8019 96.3704 31.8538 95.5724 32.9375 94.7502C38.1541 89.2095 37.6061 83.0397 38.25 75.888C42.1288 75.7084 42.1288 75.7084 46.0859 75.5253C55.5868 74.5113 59.7827 71.0402 65.875 64.2805ZM65.875 73.9534C64.4725 75.2302 63.07 76.5071 61.625 77.8226C55.9823 78.916 50.3807 79.2501 44.625 79.7572C44.4059 82.1512 44.1867 84.5453 43.9609 87.0119C43.0567 93.8396 41.4776 97.8874 36.125 102.972C37.133 103.651 38.1411 104.329 39.1797 105.028C43.9423 110.404 43.9263 115.575 44.625 122.318C46.9479 122.518 49.2708 122.717 51.6641 122.923C59.1931 124.201 61.4814 124.645 65.875 130.056C66.9269 129.498 67.9788 128.939 69.0625 128.364C76.3247 125.389 83.6201 123.965 91.375 122.318C91.5941 120.243 91.8133 118.168 92.0391 116.031C93.4448 109.05 94.7215 106.137 99.875 101.038C98.867 100.399 97.8589 99.7608 96.8203 99.103C91.6769 93.1094 92.0508 87.2628 91.375 79.7572C87.4305 79.3981 87.4305 79.3981 83.4062 79.0317C76.763 78.2918 71.6363 77.2316 65.875 73.9534Z" fill="#619D68"/>
<mask id="path-3-outside-1_67_30" maskUnits="userSpaceOnUse" x="29" y="4" width="79" height="37" fill="black">
<rect fill="white" x="29" y="4" width="79" height="37"/>
<path d="M51.6384 39.2C49.7451 39.2 48.1051 38.96 46.7184 38.48C45.3584 37.9733 44.3051 37.1733 43.5584 36.08C42.8118 34.96 42.3851 33.4667 42.2784 31.6L41.5584 15.48H47.1984L47.8784 29.64C47.9318 30.7333 48.1051 31.5733 48.3984 32.16C48.7184 32.72 49.1718 33.1067 49.7584 33.32C50.3451 33.5067 51.1051 33.6 52.0384 33.6C53.0518 33.6 53.7718 33.8667 54.1984 34.4C54.6251 34.9067 54.8384 35.5467 54.8384 36.32C54.8384 37.1467 54.5584 37.84 53.9984 38.4C53.4651 38.9333 52.6784 39.2 51.6384 39.2ZM44.3184 35.48C42.5318 35.88 40.8118 36.0667 39.1584 36.04C37.5051 35.9867 36.0251 35.6933 34.7184 35.16C33.4118 34.6 32.3718 33.8 31.5984 32.76C30.8518 31.72 30.4784 30.4 30.4784 28.8C30.4784 27.3867 30.7851 26.1067 31.3984 24.96C32.0384 23.7867 32.9184 22.76 34.0384 21.88C35.1851 21 36.5184 20.2533 38.0384 19.64C39.5584 19.0267 41.2118 18.56 42.9984 18.24L43.5584 23.92C42.4118 23.9733 41.3718 24.1333 40.4384 24.4C39.5318 24.64 38.7451 24.96 38.0784 25.36C37.4384 25.76 36.9451 26.2133 36.5984 26.72C36.2518 27.2 36.0784 27.72 36.0784 28.28C36.0784 28.7333 36.2384 29.1067 36.5584 29.4C36.8784 29.6933 37.3051 29.9333 37.8384 30.12C38.3718 30.28 38.9851 30.3733 39.6784 30.4C40.3718 30.4267 41.0784 30.3867 41.7984 30.28C42.5451 30.1733 43.2784 30 43.9984 29.76L44.3184 35.48ZM44.4384 11.36C43.6651 11.36 42.9984 11.0933 42.4384 10.56C41.9051 10 41.6384 9.34666 41.6384 8.6C41.6384 7.82667 41.9051 7.16 42.4384 6.6C42.9984 6.04 43.6651 5.76 44.4384 5.76C45.1851 5.76 45.8251 6.04 46.3584 6.6C46.8918 7.16 47.1584 7.82667 47.1584 8.6C47.1584 9.34666 46.8918 10 46.3584 10.56C45.8251 11.0933 45.1851 11.36 44.4384 11.36ZM37.5184 11.32C36.7451 11.32 36.0784 11.0533 35.5184 10.52C34.9851 9.96 34.7184 9.30667 34.7184 8.56C34.7184 7.78667 34.9851 7.12 35.5184 6.56C36.0784 6 36.7451 5.72 37.5184 5.72C38.2651 5.72 38.9051 6 39.4384 6.56C39.9718 7.12 40.2384 7.78667 40.2384 8.56C40.2384 9.30667 39.9718 9.96 39.4384 10.52C38.9051 11.0533 38.2651 11.32 37.5184 11.32ZM51.625 39.2L52.025 33.6C53.625 33.6 54.8517 33.52 55.705 33.36C56.5583 33.2 57.145 32.9067 57.465 32.48C57.8117 32.0267 57.985 31.3867 57.985 30.56C57.985 29.8133 57.8783 28.92 57.665 27.88C57.4783 26.84 57.225 25.76 56.905 24.64C56.6117 23.52 56.2917 22.4933 55.945 21.56L61.465 20.04C61.8117 20.9467 62.145 22 62.465 23.2C62.785 24.4 63.0517 25.64 63.265 26.92C63.4783 28.1733 63.585 29.3867 63.585 30.56C63.585 32.3733 63.2917 33.8533 62.705 35C62.1183 36.12 61.2917 36.9867 60.225 37.6C59.185 38.2133 57.9317 38.64 56.465 38.88C54.9983 39.0933 53.385 39.2 51.625 39.2ZM59.265 11.44C58.5983 11.44 58.0117 11.1867 57.505 10.68C57.025 10.1733 56.785 9.57333 56.785 8.88C56.785 8.18667 57.025 7.6 57.505 7.12C58.0117 6.64 58.5983 6.4 59.265 6.4C59.9583 6.4 60.545 6.64 61.025 7.12C61.505 7.6 61.745 8.18667 61.745 8.88C61.745 9.57333 61.505 10.1733 61.025 10.68C60.545 11.1867 59.9583 11.44 59.265 11.44ZM56.065 16.72C55.3983 16.72 54.8117 16.4667 54.305 15.96C53.825 15.4533 53.585 14.8533 53.585 14.16C53.585 13.4667 53.825 12.88 54.305 12.4C54.8117 11.92 55.3983 11.68 56.065 11.68C56.7583 11.68 57.345 11.92 57.825 12.4C58.305 12.88 58.545 13.4667 58.545 14.16C58.545 14.8533 58.305 15.4533 57.825 15.96C57.345 16.4667 56.7583 16.72 56.065 16.72ZM62.265 16.72C61.5983 16.72 61.0117 16.4667 60.505 15.96C60.025 15.4533 59.785 14.8533 59.785 14.16C59.785 13.4667 60.025 12.88 60.505 12.4C61.0117 11.92 61.5983 11.68 62.265 11.68C62.9583 11.68 63.545 11.92 64.025 12.4C64.505 12.88 64.745 13.4667 64.745 14.16C64.745 14.8533 64.505 15.4533 64.025 15.96C63.545 16.4667 62.9583 16.72 62.265 16.72ZM93.2 39.2C91.3333 39.2 89.7867 39.0667 88.56 38.8C87.36 38.5067 86.4133 38.0667 85.72 37.48C85.0267 36.8667 84.5333 36.1067 84.24 35.2C83.9467 34.2933 83.7733 33.2133 83.72 31.96L82.88 9.72H88.48L89.32 29.28C89.3733 30.5067 89.5067 31.4267 89.72 32.04C89.9333 32.6533 90.3333 33.0667 90.92 33.28C91.5333 33.4933 92.4267 33.6 93.6 33.6C94.6133 33.6 95.3333 33.8667 95.76 34.4C96.2133 34.9067 96.44 35.5467 96.44 36.32C96.44 37.1467 96.16 37.84 95.6 38.4C95.04 38.9333 94.24 39.2 93.2 39.2ZM71.68 39.2C70.96 39.2 70.2267 39.1333 69.48 39C68.76 38.8933 68.2533 38.8133 67.96 38.76L68.72 32.96C70.56 33.2 72.3467 33.2533 74.08 33.12C75.84 32.96 77.4133 32.5333 78.8 31.84C80.2133 31.12 81.3333 30.08 82.16 28.72C82.9867 27.3333 83.4 25.5467 83.4 23.36L85.56 29.64C85.24 31.4533 84.6933 32.96 83.92 34.16C83.1733 35.3333 82.28 36.2667 81.24 36.96C80.2267 37.6267 79.1467 38.12 78 38.44C76.8533 38.76 75.7333 38.96 74.64 39.04C73.5467 39.1467 72.56 39.2 71.68 39.2ZM80.36 33.72C79.96 32.9467 79.3867 32.04 78.64 31C77.8933 29.9333 76.9733 28.76 75.88 27.48C74.8133 26.1733 73.5867 24.8 72.2 23.36C70.8133 21.8933 69.28 20.3867 67.6 18.84L71.08 15.04C73.56 17.3867 75.5733 19.36 77.12 20.96C78.6667 22.56 79.8933 23.9067 80.8 25C81.7333 26.0667 82.44 26.9867 82.92 27.76C83.4267 28.5333 83.8533 29.28 84.2 30L80.36 33.72ZM93.2266 39.2L93.6266 33.6C95.2266 33.6 96.4532 33.52 97.3066 33.36C98.1599 33.2 98.7466 32.9067 99.0666 32.48C99.4132 32.0267 99.5866 31.3867 99.5866 30.56C99.5866 29.8133 99.4799 28.92 99.2666 27.88C99.0799 26.84 98.8266 25.76 98.5066 24.64C98.2132 23.52 97.8932 22.4933 97.5466 21.56L103.067 20.04C103.413 20.9467 103.747 22 104.067 23.2C104.387 24.4 104.653 25.64 104.867 26.92C105.08 28.1733 105.187 29.3867 105.187 30.56C105.187 32.3733 104.893 33.8533 104.307 35C103.72 36.12 102.893 36.9867 101.827 37.6C100.787 38.2133 99.5332 38.64 98.0666 38.88C96.5999 39.0933 94.9866 39.2 93.2266 39.2ZM100.867 11.44C100.2 11.44 99.6132 11.1867 99.1066 10.68C98.6266 10.1733 98.3866 9.57333 98.3866 8.88C98.3866 8.18667 98.6266 7.6 99.1066 7.12C99.6132 6.64 100.2 6.4 100.867 6.4C101.56 6.4 102.147 6.64 102.627 7.12C103.107 7.6 103.347 8.18667 103.347 8.88C103.347 9.57333 103.107 10.1733 102.627 10.68C102.147 11.1867 101.56 11.44 100.867 11.44ZM97.6666 16.72C96.9999 16.72 96.4132 16.4667 95.9066 15.96C95.4266 15.4533 95.1866 14.8533 95.1866 14.16C95.1866 13.4667 95.4266 12.88 95.9066 12.4C96.4132 11.92 96.9999 11.68 97.6666 11.68C98.3599 11.68 98.9466 11.92 99.4266 12.4C99.9066 12.88 100.147 13.4667 100.147 14.16C100.147 14.8533 99.9066 15.4533 99.4266 15.96C98.9466 16.4667 98.3599 16.72 97.6666 16.72ZM103.867 16.72C103.2 16.72 102.613 16.4667 102.107 15.96C101.627 15.4533 101.387 14.8533 101.387 14.16C101.387 13.4667 101.627 12.88 102.107 12.4C102.613 11.92 103.2 11.68 103.867 11.68C104.56 11.68 105.147 11.92 105.627 12.4C106.107 12.88 106.347 13.4667 106.347 14.16C106.347 14.8533 106.107 15.4533 105.627 15.96C105.147 16.4667 104.56 16.72 103.867 16.72Z"/>
</mask>
<path d="M51.6384 39.2C49.7451 39.2 48.1051 38.96 46.7184 38.48C45.3584 37.9733 44.3051 37.1733 43.5584 36.08C42.8118 34.96 42.3851 33.4667 42.2784 31.6L41.5584 15.48H47.1984L47.8784 29.64C47.9318 30.7333 48.1051 31.5733 48.3984 32.16C48.7184 32.72 49.1718 33.1067 49.7584 33.32C50.3451 33.5067 51.1051 33.6 52.0384 33.6C53.0518 33.6 53.7718 33.8667 54.1984 34.4C54.6251 34.9067 54.8384 35.5467 54.8384 36.32C54.8384 37.1467 54.5584 37.84 53.9984 38.4C53.4651 38.9333 52.6784 39.2 51.6384 39.2ZM44.3184 35.48C42.5318 35.88 40.8118 36.0667 39.1584 36.04C37.5051 35.9867 36.0251 35.6933 34.7184 35.16C33.4118 34.6 32.3718 33.8 31.5984 32.76C30.8518 31.72 30.4784 30.4 30.4784 28.8C30.4784 27.3867 30.7851 26.1067 31.3984 24.96C32.0384 23.7867 32.9184 22.76 34.0384 21.88C35.1851 21 36.5184 20.2533 38.0384 19.64C39.5584 19.0267 41.2118 18.56 42.9984 18.24L43.5584 23.92C42.4118 23.9733 41.3718 24.1333 40.4384 24.4C39.5318 24.64 38.7451 24.96 38.0784 25.36C37.4384 25.76 36.9451 26.2133 36.5984 26.72C36.2518 27.2 36.0784 27.72 36.0784 28.28C36.0784 28.7333 36.2384 29.1067 36.5584 29.4C36.8784 29.6933 37.3051 29.9333 37.8384 30.12C38.3718 30.28 38.9851 30.3733 39.6784 30.4C40.3718 30.4267 41.0784 30.3867 41.7984 30.28C42.5451 30.1733 43.2784 30 43.9984 29.76L44.3184 35.48ZM44.4384 11.36C43.6651 11.36 42.9984 11.0933 42.4384 10.56C41.9051 10 41.6384 9.34666 41.6384 8.6C41.6384 7.82667 41.9051 7.16 42.4384 6.6C42.9984 6.04 43.6651 5.76 44.4384 5.76C45.1851 5.76 45.8251 6.04 46.3584 6.6C46.8918 7.16 47.1584 7.82667 47.1584 8.6C47.1584 9.34666 46.8918 10 46.3584 10.56C45.8251 11.0933 45.1851 11.36 44.4384 11.36ZM37.5184 11.32C36.7451 11.32 36.0784 11.0533 35.5184 10.52C34.9851 9.96 34.7184 9.30667 34.7184 8.56C34.7184 7.78667 34.9851 7.12 35.5184 6.56C36.0784 6 36.7451 5.72 37.5184 5.72C38.2651 5.72 38.9051 6 39.4384 6.56C39.9718 7.12 40.2384 7.78667 40.2384 8.56C40.2384 9.30667 39.9718 9.96 39.4384 10.52C38.9051 11.0533 38.2651 11.32 37.5184 11.32ZM51.625 39.2L52.025 33.6C53.625 33.6 54.8517 33.52 55.705 33.36C56.5583 33.2 57.145 32.9067 57.465 32.48C57.8117 32.0267 57.985 31.3867 57.985 30.56C57.985 29.8133 57.8783 28.92 57.665 27.88C57.4783 26.84 57.225 25.76 56.905 24.64C56.6117 23.52 56.2917 22.4933 55.945 21.56L61.465 20.04C61.8117 20.9467 62.145 22 62.465 23.2C62.785 24.4 63.0517 25.64 63.265 26.92C63.4783 28.1733 63.585 29.3867 63.585 30.56C63.585 32.3733 63.2917 33.8533 62.705 35C62.1183 36.12 61.2917 36.9867 60.225 37.6C59.185 38.2133 57.9317 38.64 56.465 38.88C54.9983 39.0933 53.385 39.2 51.625 39.2ZM59.265 11.44C58.5983 11.44 58.0117 11.1867 57.505 10.68C57.025 10.1733 56.785 9.57333 56.785 8.88C56.785 8.18667 57.025 7.6 57.505 7.12C58.0117 6.64 58.5983 6.4 59.265 6.4C59.9583 6.4 60.545 6.64 61.025 7.12C61.505 7.6 61.745 8.18667 61.745 8.88C61.745 9.57333 61.505 10.1733 61.025 10.68C60.545 11.1867 59.9583 11.44 59.265 11.44ZM56.065 16.72C55.3983 16.72 54.8117 16.4667 54.305 15.96C53.825 15.4533 53.585 14.8533 53.585 14.16C53.585 13.4667 53.825 12.88 54.305 12.4C54.8117 11.92 55.3983 11.68 56.065 11.68C56.7583 11.68 57.345 11.92 57.825 12.4C58.305 12.88 58.545 13.4667 58.545 14.16C58.545 14.8533 58.305 15.4533 57.825 15.96C57.345 16.4667 56.7583 16.72 56.065 16.72ZM62.265 16.72C61.5983 16.72 61.0117 16.4667 60.505 15.96C60.025 15.4533 59.785 14.8533 59.785 14.16C59.785 13.4667 60.025 12.88 60.505 12.4C61.0117 11.92 61.5983 11.68 62.265 11.68C62.9583 11.68 63.545 11.92 64.025 12.4C64.505 12.88 64.745 13.4667 64.745 14.16C64.745 14.8533 64.505 15.4533 64.025 15.96C63.545 16.4667 62.9583 16.72 62.265 16.72ZM93.2 39.2C91.3333 39.2 89.7867 39.0667 88.56 38.8C87.36 38.5067 86.4133 38.0667 85.72 37.48C85.0267 36.8667 84.5333 36.1067 84.24 35.2C83.9467 34.2933 83.7733 33.2133 83.72 31.96L82.88 9.72H88.48L89.32 29.28C89.3733 30.5067 89.5067 31.4267 89.72 32.04C89.9333 32.6533 90.3333 33.0667 90.92 33.28C91.5333 33.4933 92.4267 33.6 93.6 33.6C94.6133 33.6 95.3333 33.8667 95.76 34.4C96.2133 34.9067 96.44 35.5467 96.44 36.32C96.44 37.1467 96.16 37.84 95.6 38.4C95.04 38.9333 94.24 39.2 93.2 39.2ZM71.68 39.2C70.96 39.2 70.2267 39.1333 69.48 39C68.76 38.8933 68.2533 38.8133 67.96 38.76L68.72 32.96C70.56 33.2 72.3467 33.2533 74.08 33.12C75.84 32.96 77.4133 32.5333 78.8 31.84C80.2133 31.12 81.3333 30.08 82.16 28.72C82.9867 27.3333 83.4 25.5467 83.4 23.36L85.56 29.64C85.24 31.4533 84.6933 32.96 83.92 34.16C83.1733 35.3333 82.28 36.2667 81.24 36.96C80.2267 37.6267 79.1467 38.12 78 38.44C76.8533 38.76 75.7333 38.96 74.64 39.04C73.5467 39.1467 72.56 39.2 71.68 39.2ZM80.36 33.72C79.96 32.9467 79.3867 32.04 78.64 31C77.8933 29.9333 76.9733 28.76 75.88 27.48C74.8133 26.1733 73.5867 24.8 72.2 23.36C70.8133 21.8933 69.28 20.3867 67.6 18.84L71.08 15.04C73.56 17.3867 75.5733 19.36 77.12 20.96C78.6667 22.56 79.8933 23.9067 80.8 25C81.7333 26.0667 82.44 26.9867 82.92 27.76C83.4267 28.5333 83.8533 29.28 84.2 30L80.36 33.72ZM93.2266 39.2L93.6266 33.6C95.2266 33.6 96.4532 33.52 97.3066 33.36C98.1599 33.2 98.7466 32.9067 99.0666 32.48C99.4132 32.0267 99.5866 31.3867 99.5866 30.56C99.5866 29.8133 99.4799 28.92 99.2666 27.88C99.0799 26.84 98.8266 25.76 98.5066 24.64C98.2132 23.52 97.8932 22.4933 97.5466 21.56L103.067 20.04C103.413 20.9467 103.747 22 104.067 23.2C104.387 24.4 104.653 25.64 104.867 26.92C105.08 28.1733 105.187 29.3867 105.187 30.56C105.187 32.3733 104.893 33.8533 104.307 35C103.72 36.12 102.893 36.9867 101.827 37.6C100.787 38.2133 99.5332 38.64 98.0666 38.88C96.5999 39.0933 94.9866 39.2 93.2266 39.2ZM100.867 11.44C100.2 11.44 99.6132 11.1867 99.1066 10.68C98.6266 10.1733 98.3866 9.57333 98.3866 8.88C98.3866 8.18667 98.6266 7.6 99.1066 7.12C99.6132 6.64 100.2 6.4 100.867 6.4C101.56 6.4 102.147 6.64 102.627 7.12C103.107 7.6 103.347 8.18667 103.347 8.88C103.347 9.57333 103.107 10.1733 102.627 10.68C102.147 11.1867 101.56 11.44 100.867 11.44ZM97.6666 16.72C96.9999 16.72 96.4132 16.4667 95.9066 15.96C95.4266 15.4533 95.1866 14.8533 95.1866 14.16C95.1866 13.4667 95.4266 12.88 95.9066 12.4C96.4132 11.92 96.9999 11.68 97.6666 11.68C98.3599 11.68 98.9466 11.92 99.4266 12.4C99.9066 12.88 100.147 13.4667 100.147 14.16C100.147 14.8533 99.9066 15.4533 99.4266 15.96C98.9466 16.4667 98.3599 16.72 97.6666 16.72ZM103.867 16.72C103.2 16.72 102.613 16.4667 102.107 15.96C101.627 15.4533 101.387 14.8533 101.387 14.16C101.387 13.4667 101.627 12.88 102.107 12.4C102.613 11.92 103.2 11.68 103.867 11.68C104.56 11.68 105.147 11.92 105.627 12.4C106.107 12.88 106.347 13.4667 106.347 14.16C106.347 14.8533 106.107 15.4533 105.627 15.96C105.147 16.4667 104.56 16.72 103.867 16.72Z" fill="#19401D"/>
<path d="M46.7184 38.48L46.3693 39.4171L46.3803 39.4212L46.3913 39.425L46.7184 38.48ZM43.5584 36.08L42.7263 36.6347L42.7326 36.644L43.5584 36.08ZM42.2784 31.6L41.2794 31.6446L41.2801 31.657L42.2784 31.6ZM41.5584 15.48V14.48H40.5128L40.5594 15.5246L41.5584 15.48ZM47.1984 15.48L48.1973 15.432L48.1516 14.48H47.1984V15.48ZM47.8784 29.64L46.8796 29.688L46.8796 29.6887L47.8784 29.64ZM48.3984 32.16L47.504 32.6072L47.5164 32.632L47.5302 32.6561L48.3984 32.16ZM49.7584 33.32L49.4167 34.2598L49.4358 34.2668L49.4552 34.2729L49.7584 33.32ZM54.1984 34.4L53.4176 35.0247L53.4254 35.0345L53.4335 35.0441L54.1984 34.4ZM53.9984 38.4L53.2913 37.6929L53.2913 37.6929L53.9984 38.4ZM44.3184 35.48L44.5369 36.4558L45.3642 36.2706L45.3169 35.4241L44.3184 35.48ZM39.1584 36.04L39.1262 37.0395L39.1343 37.0397L39.1423 37.0399L39.1584 36.04ZM34.7184 35.16L34.3245 36.0791L34.3325 36.0826L34.3405 36.0858L34.7184 35.16ZM31.5984 32.76L30.7861 33.3432L30.791 33.35L30.796 33.3567L31.5984 32.76ZM31.3984 24.96L30.5205 24.4811L30.5167 24.4883L31.3984 24.96ZM34.0384 21.88L33.4296 21.0866L33.4206 21.0937L34.0384 21.88ZM38.0384 19.64L37.6642 18.7126L38.0384 19.64ZM42.9984 18.24L43.9936 18.1419L43.8874 17.0649L42.8221 17.2557L42.9984 18.24ZM43.5584 23.92L43.6049 24.9189L44.6569 24.87L44.5536 23.8219L43.5584 23.92ZM40.4384 24.4L40.6943 25.3667L40.7038 25.3642L40.7132 25.3615L40.4384 24.4ZM38.0784 25.36L37.5639 24.5025L37.5561 24.5072L37.5484 24.512L38.0784 25.36ZM36.5984 26.72L37.4091 27.3055L37.4166 27.2952L37.4237 27.2847L36.5984 26.72ZM36.5584 29.4L35.8827 30.1372L35.8827 30.1372L36.5584 29.4ZM37.8384 30.12L37.5081 31.0639L37.5294 31.0713L37.5511 31.0778L37.8384 30.12ZM39.6784 30.4L39.64 31.3993L39.64 31.3993L39.6784 30.4ZM41.7984 30.28L41.657 29.29L41.6519 29.2908L41.7984 30.28ZM43.9984 29.76L44.9969 29.7041L44.9238 28.3975L43.6822 28.8113L43.9984 29.76ZM42.4384 10.56L41.7143 11.2497L41.7311 11.2673L41.7488 11.2841L42.4384 10.56ZM42.4384 6.6L41.7313 5.89289L41.7227 5.90151L41.7143 5.91034L42.4384 6.6ZM46.3584 6.6L47.0826 5.91034L47.0826 5.91034L46.3584 6.6ZM46.3584 10.56L47.0655 11.2671L47.0742 11.2585L47.0826 11.2497L46.3584 10.56ZM35.5184 10.52L34.7943 11.2097L34.8111 11.2273L34.8288 11.2441L35.5184 10.52ZM35.5184 6.56L34.8113 5.85289L34.8027 5.86151L34.7943 5.87034L35.5184 6.56ZM39.4384 6.56L40.1626 5.87034L40.1626 5.87034L39.4384 6.56ZM39.4384 10.52L40.1455 11.2271L40.1542 11.2185L40.1626 11.2097L39.4384 10.52ZM51.6384 39.2V38.2C49.8258 38.2 48.3015 37.9698 47.0455 37.535L46.7184 38.48L46.3913 39.425C47.9087 39.9502 49.6644 40.2 51.6384 40.2V39.2ZM46.7184 38.48L47.0675 37.5429C45.8816 37.1011 45.0031 36.4223 44.3842 35.516L43.5584 36.08L42.7326 36.644C43.6071 37.9244 44.8352 38.8456 46.3693 39.4171L46.7184 38.48ZM43.5584 36.08L44.3905 35.5253C43.7737 34.6001 43.3771 33.2979 43.2768 31.543L42.2784 31.6L41.2801 31.657C41.3931 33.6355 41.8498 35.3199 42.7264 36.6347L43.5584 36.08ZM42.2784 31.6L43.2774 31.5554L42.5574 15.4354L41.5584 15.48L40.5594 15.5246L41.2794 31.6446L42.2784 31.6ZM41.5584 15.48V16.48H47.1984V15.48V14.48H41.5584V15.48ZM47.1984 15.48L46.1996 15.528L46.8796 29.688L47.8784 29.64L48.8773 29.592L48.1973 15.432L47.1984 15.48ZM47.8784 29.64L46.8796 29.6887C46.9358 30.84 47.1205 31.8402 47.504 32.6072L48.3984 32.16L49.2929 31.7128C49.0897 31.3064 48.9278 30.6266 48.8773 29.5913L47.8784 29.64ZM48.3984 32.16L47.5302 32.6561C47.9634 33.4142 48.5996 33.9627 49.4167 34.2598L49.7584 33.32L50.1002 32.3802C49.7439 32.2507 49.4735 32.0258 49.2667 31.6639L48.3984 32.16ZM49.7584 33.32L49.4552 34.2729C50.1767 34.5025 51.0496 34.6 52.0384 34.6V33.6V32.6C51.1606 32.6 50.5135 32.5109 50.0616 32.3671L49.7584 33.32ZM52.0384 33.6V34.6C52.8992 34.6 53.2584 34.8258 53.4176 35.0247L54.1984 34.4L54.9793 33.7753C54.2851 32.9076 53.2043 32.6 52.0384 32.6V33.6ZM54.1984 34.4L53.4335 35.0441C53.6836 35.3411 53.8384 35.7408 53.8384 36.32H54.8384H55.8384C55.8384 35.3525 55.5666 34.4723 54.9633 33.7559L54.1984 34.4ZM54.8384 36.32H53.8384C53.8384 36.8944 53.6548 37.3294 53.2913 37.6929L53.9984 38.4L54.7055 39.1071C55.462 38.3506 55.8384 37.3989 55.8384 36.32H54.8384ZM53.9984 38.4L53.2913 37.6929C53.0074 37.9769 52.5158 38.2 51.6384 38.2V39.2V40.2C52.8411 40.2 53.9228 39.8898 54.7055 39.1071L53.9984 38.4ZM44.3184 35.48L44.1 34.5042C42.3822 34.8887 40.7411 35.0654 39.1746 35.0401L39.1584 36.04L39.1423 37.0399C40.8824 37.0679 42.6814 36.8713 44.5369 36.4558L44.3184 35.48ZM39.1584 36.04L39.1907 35.0405C37.636 34.9904 36.2759 34.7156 35.0963 34.2342L34.7184 35.16L34.3405 36.0858C35.7743 36.671 37.3742 36.983 39.1262 37.0395L39.1584 36.04ZM34.7184 35.16L35.1124 34.2409C33.9518 33.7435 33.0589 33.0482 32.4009 32.1633L31.5984 32.76L30.796 33.3567C31.6847 34.5518 32.8718 35.4565 34.3245 36.0791L34.7184 35.16ZM31.5984 32.76L32.4108 32.1768C31.8137 31.3451 31.4784 30.2435 31.4784 28.8H30.4784H29.4784C29.4784 30.5565 29.8899 32.0949 30.7861 33.3432L31.5984 32.76ZM30.4784 28.8H31.4784C31.4784 27.5366 31.7511 26.4208 32.2802 25.4317L31.3984 24.96L30.5167 24.4883C29.8191 25.7925 29.4784 27.2368 29.4784 28.8H30.4784ZM31.3984 24.96L32.2763 25.4389C32.8472 24.3923 33.6358 23.4681 34.6563 22.6663L34.0384 21.88L33.4206 21.0937C32.2011 22.0519 31.2297 23.1811 30.5205 24.4811L31.3984 24.96ZM34.0384 21.88L34.6473 22.6733C35.7133 21.8552 36.9655 21.1513 38.4126 20.5673L38.0384 19.64L37.6642 18.7126C36.0713 19.3554 34.6569 20.1448 33.4296 21.0867L34.0384 21.88ZM38.0384 19.64L38.4126 20.5673C39.8624 19.9823 41.4487 19.5335 43.1747 19.2243L42.9984 18.24L42.8221 17.2557C40.9749 17.5865 39.2545 18.071 37.6642 18.7126L38.0384 19.64ZM42.9984 18.24L42.0033 18.3381L42.5633 24.0181L43.5584 23.92L44.5536 23.8219L43.9936 18.1419L42.9984 18.24ZM43.5584 23.92L43.512 22.9211C42.3016 22.9774 41.1835 23.1471 40.1637 23.4385L40.4384 24.4L40.7132 25.3615C41.5601 25.1196 42.5219 24.9693 43.6049 24.9189L43.5584 23.92ZM40.4384 24.4L40.1825 23.4333C39.203 23.6926 38.3258 24.0454 37.5639 24.5025L38.0784 25.36L38.5929 26.2175C39.1644 25.8746 39.8605 25.5874 40.6943 25.3667L40.4384 24.4ZM38.0784 25.36L37.5484 24.512C36.8176 24.9688 36.2133 25.5119 35.7731 26.1553L36.5984 26.72L37.4237 27.2847C37.6769 26.9147 38.0592 26.5512 38.6084 26.208L38.0784 25.36ZM36.5984 26.72L35.7878 26.1345C35.3255 26.7745 35.0784 27.4973 35.0784 28.28H36.0784H37.0784C37.0784 27.9427 37.178 27.6255 37.4091 27.3055L36.5984 26.72ZM36.0784 28.28H35.0784C35.0784 28.9996 35.346 29.6451 35.8827 30.1372L36.5584 29.4L37.2342 28.6628C37.1309 28.5682 37.0784 28.4671 37.0784 28.28H36.0784ZM36.5584 29.4L35.8827 30.1372C36.3279 30.5452 36.8837 30.8453 37.5081 31.0639L37.8384 30.12L38.1688 29.1761C37.7266 29.0214 37.429 28.8414 37.2342 28.6628L36.5584 29.4ZM37.8384 30.12L37.5511 31.0778C38.1823 31.2672 38.882 31.3701 39.64 31.3993L39.6784 30.4L39.7169 29.4007C39.0882 29.3766 38.5613 29.2928 38.1258 29.1622L37.8384 30.12ZM39.6784 30.4L39.64 31.3993C40.3981 31.4284 41.1668 31.3845 41.945 31.2692L41.7984 30.28L41.6519 29.2908C40.9901 29.3888 40.3454 29.4249 39.7169 29.4007L39.6784 30.4ZM41.7984 30.28L41.9399 31.2699C42.7463 31.1547 43.5381 30.9675 44.3147 30.7087L43.9984 29.76L43.6822 28.8113C43.0188 29.0325 42.3439 29.1919 41.657 29.2901L41.7984 30.28ZM43.9984 29.76L43 29.8159L43.32 35.5359L44.3184 35.48L45.3169 35.4241L44.9969 29.7041L43.9984 29.76ZM44.4384 11.36V10.36C43.9219 10.36 43.5022 10.1921 43.1281 9.83586L42.4384 10.56L41.7488 11.2841C42.4947 11.9946 43.4083 12.36 44.4384 12.36V11.36ZM42.4384 10.56L43.1626 9.87034C42.7993 9.48892 42.6384 9.0799 42.6384 8.6H41.6384H40.6384C40.6384 9.61343 41.0109 10.5111 41.7143 11.2497L42.4384 10.56ZM41.6384 8.6H42.6384C42.6384 8.08344 42.8063 7.66371 43.1626 7.28965L42.4384 6.6L41.7143 5.91034C41.0039 6.65629 40.6384 7.56989 40.6384 8.6H41.6384ZM42.4384 6.6L43.1455 7.3071C43.5231 6.92958 43.9374 6.76 44.4384 6.76V5.76V4.76C43.3928 4.76 42.4738 5.15041 41.7313 5.89289L42.4384 6.6ZM44.4384 5.76V6.76C44.9006 6.76 45.2821 6.91987 45.6343 7.28965L46.3584 6.6L47.0826 5.91034C46.3681 5.16013 45.4696 4.76 44.4384 4.76V5.76ZM46.3584 6.6L45.6343 7.28965C45.9905 7.66371 46.1584 8.08344 46.1584 8.6H47.1584H48.1584C48.1584 7.56989 47.793 6.65628 47.0826 5.91034L46.3584 6.6ZM47.1584 8.6H46.1584C46.1584 9.0799 45.9976 9.48892 45.6343 9.87034L46.3584 10.56L47.0826 11.2497C47.786 10.5111 48.1584 9.61343 48.1584 8.6H47.1584ZM46.3584 10.56L45.6513 9.85289C45.3034 10.2008 44.9169 10.36 44.4384 10.36V11.36V12.36C45.4533 12.36 46.3468 11.9858 47.0655 11.2671L46.3584 10.56ZM37.5184 11.32V10.32C37.0019 10.32 36.5822 10.1521 36.2081 9.79586L35.5184 10.52L34.8288 11.2441C35.5747 11.9546 36.4883 12.32 37.5184 12.32V11.32ZM35.5184 10.52L36.2426 9.83034C35.8793 9.44892 35.7184 9.0399 35.7184 8.56H34.7184H33.7184C33.7184 9.57343 34.0909 10.4711 34.7943 11.2097L35.5184 10.52ZM34.7184 8.56H35.7184C35.7184 8.04344 35.8863 7.62371 36.2426 7.24965L35.5184 6.56L34.7943 5.87034C34.0839 6.61629 33.7184 7.52989 33.7184 8.56H34.7184ZM35.5184 6.56L36.2255 7.26711C36.6031 6.88958 37.0174 6.72 37.5184 6.72V5.72V4.72C36.4728 4.72 35.5538 5.11042 34.8113 5.85289L35.5184 6.56ZM37.5184 5.72V6.72C37.9806 6.72 38.3621 6.87987 38.7143 7.24965L39.4384 6.56L40.1626 5.87034C39.4481 5.12013 38.5496 4.72 37.5184 4.72V5.72ZM39.4384 6.56L38.7143 7.24965C39.0705 7.62371 39.2384 8.04344 39.2384 8.56H40.2384H41.2384C41.2384 7.52989 40.873 6.61629 40.1626 5.87034L39.4384 6.56ZM40.2384 8.56H39.2384C39.2384 9.0399 39.0776 9.44892 38.7143 9.83034L39.4384 10.52L40.1626 11.2097C40.866 10.4711 41.2384 9.57343 41.2384 8.56H40.2384ZM39.4384 10.52L38.7313 9.81289C38.3834 10.1608 37.9969 10.32 37.5184 10.32V11.32V12.32C38.5333 12.32 39.4268 11.9458 40.1455 11.2271L39.4384 10.52ZM51.625 39.2L50.6275 39.1288L50.551 40.2H51.625V39.2ZM52.025 33.6V32.6H51.0939L51.0275 33.5288L52.025 33.6ZM55.705 33.36L55.8893 34.3429L55.8893 34.3429L55.705 33.36ZM57.465 32.48L56.6706 31.8725L56.665 31.88L57.465 32.48ZM57.665 27.88L56.6807 28.0567L56.6829 28.0688L56.6854 28.0809L57.665 27.88ZM56.905 24.64L55.9376 24.8934L55.9404 24.9041L55.9435 24.9147L56.905 24.64ZM55.945 21.56L55.6795 20.5959L54.6277 20.8855L55.0076 21.9082L55.945 21.56ZM61.465 20.04L62.3991 19.6829L62.0748 18.8349L61.1995 19.0759L61.465 20.04ZM62.465 23.2L63.4312 22.9423L63.4312 22.9423L62.465 23.2ZM63.265 26.92L62.2786 27.0844L62.2792 27.0878L63.265 26.92ZM62.705 35L63.5909 35.464L63.5952 35.4555L62.705 35ZM60.225 37.6L59.7265 36.733L59.717 36.7386L60.225 37.6ZM56.465 38.88L56.6089 39.8696L56.6177 39.8683L56.6265 39.8669L56.465 38.88ZM57.505 10.68L56.779 11.3677L56.7883 11.3776L56.7979 11.3871L57.505 10.68ZM57.505 7.12L56.8173 6.39405L56.8074 6.40334L56.7979 6.41289L57.505 7.12ZM61.025 10.68L61.751 11.3677L61.751 11.3677L61.025 10.68ZM54.305 15.96L53.579 16.6477L53.5883 16.6576L53.5979 16.6671L54.305 15.96ZM54.305 12.4L53.6173 11.674L53.6074 11.6833L53.5979 11.6929L54.305 12.4ZM57.825 12.4L57.1179 13.1071L57.1179 13.1071L57.825 12.4ZM57.825 15.96L57.099 15.2723L57.099 15.2723L57.825 15.96ZM60.505 15.96L59.779 16.6477L59.7883 16.6576L59.7979 16.6671L60.505 15.96ZM60.505 12.4L59.8173 11.674L59.8074 11.6833L59.7979 11.6929L60.505 12.4ZM64.025 12.4L63.3179 13.1071L63.3179 13.1071L64.025 12.4ZM64.025 15.96L63.299 15.2723L63.299 15.2723L64.025 15.96ZM51.625 39.2L52.6225 39.2712L53.0225 33.6712L52.025 33.6L51.0275 33.5288L50.6275 39.1288L51.625 39.2ZM52.025 33.6V34.6C53.6445 34.6 54.9443 34.5201 55.8893 34.3429L55.705 33.36L55.5207 32.3771C54.759 32.5199 53.6055 32.6 52.025 32.6V33.6ZM55.705 33.36L55.8893 34.3429C56.8429 34.1641 57.7249 33.8001 58.265 33.08L57.465 32.48L56.665 31.88C56.5651 32.0132 56.2738 32.2359 55.5207 32.3771L55.705 33.36ZM57.465 32.48L58.2594 33.0874C58.7875 32.3968 58.985 31.5111 58.985 30.56H57.985H56.985C56.985 31.2622 56.8358 31.6565 56.6706 31.8725L57.465 32.48ZM57.985 30.56H58.985C58.985 29.7242 58.8663 28.7599 58.6446 27.6791L57.665 27.88L56.6854 28.0809C56.8903 29.0801 56.985 29.9025 56.985 30.56H57.985ZM57.665 27.88L58.6493 27.7033C58.4561 26.6271 58.1948 25.5143 57.8665 24.3653L56.905 24.64L55.9435 24.9147C56.2552 26.0057 56.5006 27.0529 56.6807 28.0567L57.665 27.88ZM56.905 24.64L57.8724 24.3866C57.572 23.2396 57.2423 22.1808 56.8824 21.2118L55.945 21.56L55.0076 21.9082C55.341 22.8059 55.6514 23.8004 55.9376 24.8934L56.905 24.64ZM55.945 21.56L56.2105 22.5241L61.7305 21.0041L61.465 20.04L61.1995 19.0759L55.6795 20.5959L55.945 21.56ZM61.465 20.04L60.5309 20.3971C60.8623 21.2637 61.1854 22.2826 61.4988 23.4577L62.465 23.2L63.4312 22.9423C63.1046 21.7174 62.761 20.6296 62.3991 19.6829L61.465 20.04ZM62.465 23.2L61.4988 23.4577C61.8102 24.6256 62.0703 25.8344 62.2786 27.0844L63.265 26.92L64.2514 26.7556C64.0331 25.4456 63.7598 24.1744 63.4312 22.9423L62.465 23.2ZM63.265 26.92L62.2792 27.0878C62.4839 28.2903 62.585 29.4473 62.585 30.56H63.585H64.585C64.585 29.326 64.4728 28.0564 64.2508 26.7522L63.265 26.92ZM63.585 30.56H62.585C62.585 32.2756 62.306 33.5844 61.8148 34.5445L62.705 35L63.5952 35.4555C64.2774 34.1222 64.585 32.471 64.585 30.56H63.585ZM62.705 35L61.8192 34.536C61.3181 35.4925 60.6237 36.2172 59.7265 36.7331L60.225 37.6L60.7235 38.4669C61.9597 37.7561 62.9185 36.7475 63.5908 35.464L62.705 35ZM60.225 37.6L59.717 36.7386C58.8052 37.2763 57.6752 37.6687 56.3035 37.8931L56.465 38.88L56.6265 39.8669C58.1881 39.6113 59.5648 39.1503 60.733 38.4614L60.225 37.6ZM56.465 38.88L56.3211 37.8904C54.9099 38.0957 53.3455 38.2 51.625 38.2V39.2V40.2C53.4245 40.2 55.0868 40.091 56.6089 39.8696L56.465 38.88ZM59.265 11.44V10.44C58.8847 10.44 58.5467 10.3075 58.2121 9.97289L57.505 10.68L56.7979 11.3871C57.4766 12.0658 58.312 12.44 59.265 12.44V11.44ZM57.505 10.68L58.231 9.99226C57.9256 9.66996 57.785 9.31558 57.785 8.88H56.785H55.785C55.785 9.83109 56.1244 10.6767 56.779 11.3677L57.505 10.68ZM56.785 8.88H57.785C57.785 8.44553 57.9241 8.11512 58.2121 7.8271L57.505 7.12L56.7979 6.41289C56.1259 7.08487 55.785 7.9278 55.785 8.88H56.785ZM57.505 7.12L58.1927 7.84595C58.5233 7.53281 58.8672 7.4 59.265 7.4V6.4V5.4C58.3295 5.4 57.5 5.74719 56.8173 6.39405L57.505 7.12ZM59.265 6.4V7.4C59.6995 7.4 60.0299 7.53909 60.3179 7.8271L61.025 7.12L61.7321 6.41289C61.0601 5.74091 60.2172 5.4 59.265 5.4V6.4ZM61.025 7.12L60.3179 7.8271C60.6059 8.11512 60.745 8.44553 60.745 8.88H61.745H62.745C62.745 7.9278 62.4041 7.08487 61.7321 6.41289L61.025 7.12ZM61.745 8.88H60.745C60.745 9.31558 60.6044 9.66996 60.299 9.99226L61.025 10.68L61.751 11.3677C62.4056 10.6767 62.745 9.83109 62.745 8.88H61.745ZM61.025 10.68L60.299 9.99225C60.0065 10.3011 59.6817 10.44 59.265 10.44V11.44V12.44C60.235 12.44 61.0835 12.0723 61.751 11.3677L61.025 10.68ZM56.065 16.72V15.72C55.6847 15.72 55.3467 15.5875 55.0121 15.2529L54.305 15.96L53.5979 16.6671C54.2766 17.3458 55.112 17.72 56.065 17.72V16.72ZM54.305 15.96L55.031 15.2723C54.7256 14.95 54.585 14.5956 54.585 14.16H53.585H52.585C52.585 15.1111 52.9244 15.9567 53.579 16.6477L54.305 15.96ZM53.585 14.16H54.585C54.585 13.7255 54.7241 13.3951 55.0121 13.1071L54.305 12.4L53.5979 11.6929C52.9259 12.3649 52.585 13.2078 52.585 14.16H53.585ZM54.305 12.4L54.9927 13.126C55.3233 12.8128 55.6672 12.68 56.065 12.68V11.68V10.68C55.1295 10.68 54.3 11.0272 53.6173 11.674L54.305 12.4ZM56.065 11.68V12.68C56.4995 12.68 56.8299 12.8191 57.1179 13.1071L57.825 12.4L58.5321 11.6929C57.8601 11.0209 57.0172 10.68 56.065 10.68V11.68ZM57.825 12.4L57.1179 13.1071C57.4059 13.3951 57.545 13.7255 57.545 14.16H58.545H59.545C59.545 13.2078 59.2041 12.3649 58.5321 11.6929L57.825 12.4ZM58.545 14.16H57.545C57.545 14.5956 57.4044 14.95 57.099 15.2723L57.825 15.96L58.551 16.6477C59.2056 15.9567 59.545 15.1111 59.545 14.16H58.545ZM57.825 15.96L57.099 15.2723C56.8065 15.5811 56.4817 15.72 56.065 15.72V16.72V17.72C57.035 17.72 57.8835 17.3522 58.551 16.6477L57.825 15.96ZM62.265 16.72V15.72C61.8847 15.72 61.5468 15.5875 61.2121 15.2529L60.505 15.96L59.7979 16.6671C60.4766 17.3458 61.312 17.72 62.265 17.72V16.72ZM60.505 15.96L61.231 15.2723C60.9256 14.95 60.785 14.5956 60.785 14.16H59.785H58.785C58.785 15.1111 59.1244 15.9567 59.779 16.6477L60.505 15.96ZM59.785 14.16H60.785C60.785 13.7255 60.9241 13.3951 61.2121 13.1071L60.505 12.4L59.7979 11.6929C59.1259 12.3649 58.785 13.2078 58.785 14.16H59.785ZM60.505 12.4L61.1927 13.126C61.5233 12.8128 61.8672 12.68 62.265 12.68V11.68V10.68C61.3295 10.68 60.5 11.0272 59.8173 11.674L60.505 12.4ZM62.265 11.68V12.68C62.6995 12.68 63.0299 12.8191 63.3179 13.1071L64.025 12.4L64.7321 11.6929C64.0601 11.0209 63.2172 10.68 62.265 10.68V11.68ZM64.025 12.4L63.3179 13.1071C63.6059 13.3951 63.745 13.7255 63.745 14.16H64.745H65.745C65.745 13.2078 65.4041 12.3649 64.7321 11.6929L64.025 12.4ZM64.745 14.16H63.745C63.745 14.5956 63.6044 14.95 63.299 15.2723L64.025 15.96L64.751 16.6477C65.4056 15.9567 65.745 15.1111 65.745 14.16H64.745ZM64.025 15.96L63.299 15.2723C63.0065 15.5811 62.6817 15.72 62.265 15.72V16.72V17.72C63.235 17.72 64.0835 17.3523 64.751 16.6477L64.025 15.96ZM88.56 38.8L88.3225 39.7714L88.335 39.7744L88.3476 39.7772L88.56 38.8ZM85.72 37.48L85.0574 38.229L85.0657 38.2363L85.0741 38.2434L85.72 37.48ZM84.24 35.2L85.1914 34.8922L85.1914 34.8922L84.24 35.2ZM83.72 31.96L82.7207 31.9977L82.7209 32.0025L83.72 31.96ZM82.88 9.72V8.72H81.8415L81.8807 9.75774L82.88 9.72ZM88.48 9.72L89.4791 9.67709L89.438 8.72H88.48V9.72ZM89.32 29.28L88.3209 29.3229L88.3209 29.3234L89.32 29.28ZM89.72 32.04L90.6645 31.7115L90.6645 31.7115L89.72 32.04ZM90.92 33.28L90.5782 34.2199L90.5915 34.2245L90.92 33.28ZM95.76 34.4L94.9791 35.0247L94.9964 35.0462L95.0148 35.0668L95.76 34.4ZM95.6 38.4L96.2897 39.1241L96.2985 39.1157L96.3071 39.1071L95.6 38.4ZM69.48 39L69.6558 38.0156L69.6412 38.013L69.6265 38.0108L69.48 39ZM67.96 38.76L66.9685 38.6301L66.8448 39.5736L67.7811 39.7439L67.96 38.76ZM68.72 32.96L68.8493 31.9684L67.8583 31.8391L67.7285 32.8301L68.72 32.96ZM74.08 33.12L74.1567 34.1172L74.1705 34.1159L74.08 33.12ZM78.8 31.84L79.2472 32.7345L79.2539 32.731L78.8 31.84ZM82.16 28.72L83.0146 29.2394L83.0189 29.2321L82.16 28.72ZM83.4 23.36L84.3456 23.0348L82.4 23.36H83.4ZM85.56 29.64L86.5448 29.8138L86.5897 29.5592L86.5056 29.3148L85.56 29.64ZM83.92 34.16L83.0794 33.6183L83.0763 33.6231L83.92 34.16ZM81.24 36.96L81.7896 37.7954L81.7947 37.7921L81.24 36.96ZM78 38.44L77.7312 37.4768L78 38.44ZM74.64 39.04L74.567 38.0427L74.5549 38.0435L74.5429 38.0447L74.64 39.04ZM80.36 33.72L79.4718 34.1794L80.0897 35.3741L81.0558 34.4382L80.36 33.72ZM78.64 31L77.8207 31.5735L77.8277 31.5832L78.64 31ZM75.88 27.48L75.1053 28.1124L75.1124 28.121L75.1196 28.1295L75.88 27.48ZM72.2 23.36L71.4733 24.047L71.4797 24.0536L72.2 23.36ZM67.6 18.84L66.8625 18.1646L66.1889 18.9002L66.9227 19.5757L67.6 18.84ZM71.08 15.04L71.7673 14.3136L71.029 13.615L70.3425 14.3646L71.08 15.04ZM77.12 20.96L77.839 20.265L77.839 20.265L77.12 20.96ZM80.8 25L80.0302 25.6383L80.0387 25.6485L80.0474 25.6585L80.8 25ZM82.92 27.76L82.0704 28.2874L82.0768 28.2978L82.0835 28.308L82.92 27.76ZM84.2 30L84.8958 30.7182L85.414 30.2162L85.101 29.5662L84.2 30ZM93.2 39.2V38.2C91.3738 38.2 89.9044 38.0689 88.7724 37.8228L88.56 38.8L88.3476 39.7772C89.6689 40.0644 91.2929 40.2 93.2 40.2V39.2ZM88.56 38.8L88.7975 37.8286C87.6965 37.5595 86.9064 37.1739 86.3659 36.7166L85.72 37.48L85.0741 38.2434C85.9203 38.9594 87.0235 39.4539 88.3225 39.7714L88.56 38.8ZM85.72 37.48L86.3826 36.731C85.8273 36.2398 85.4314 35.6338 85.1914 34.8922L84.24 35.2L83.2886 35.5078C83.6353 36.5795 84.226 37.4935 85.0574 38.229L85.72 37.48ZM84.24 35.2L85.1914 34.8922C84.9331 34.0936 84.7697 33.1073 84.7191 31.9175L83.72 31.96L82.7209 32.0025C82.7769 33.3193 82.9603 34.4931 83.2886 35.5078L84.24 35.2ZM83.72 31.96L84.7193 31.9223L83.8793 9.68226L82.88 9.72L81.8807 9.75774L82.7207 31.9977L83.72 31.96ZM82.88 9.72V10.72H88.48V9.72V8.72H82.88V9.72ZM88.48 9.72L87.4809 9.7629L88.3209 29.3229L89.32 29.28L90.3191 29.2371L89.4791 9.67709L88.48 9.72ZM89.32 29.28L88.3209 29.3234C88.3755 30.5771 88.5133 31.6147 88.7755 32.3685L89.72 32.04L90.6645 31.7115C90.5 31.2386 90.3712 30.4362 90.3191 29.2366L89.32 29.28ZM89.72 32.04L88.7755 32.3685C89.083 33.2527 89.6961 33.899 90.5783 34.2198L90.92 33.28L91.2617 32.3402C90.9706 32.2343 90.7836 32.054 90.6645 31.7115L89.72 32.04ZM90.92 33.28L90.5915 34.2245C91.3635 34.493 92.3898 34.6 93.6 34.6V33.6V32.6C92.4635 32.6 91.7032 32.4936 91.2485 32.3355L90.92 33.28ZM93.6 33.6V34.6C94.4608 34.6 94.82 34.8258 94.9791 35.0247L95.76 34.4L96.5409 33.7753C95.8467 32.9076 94.7659 32.6 93.6 32.6V33.6ZM95.76 34.4L95.0148 35.0668C95.2814 35.3648 95.44 35.7565 95.44 36.32H96.44H97.44C97.44 35.3368 97.1453 34.4485 96.5052 33.7332L95.76 34.4ZM96.44 36.32H95.44C95.44 36.8944 95.2564 37.3294 94.8929 37.6929L95.6 38.4L96.3071 39.1071C97.0636 38.3506 97.44 37.3989 97.44 36.32H96.44ZM95.6 38.4L94.9103 37.6759C94.5929 37.9782 94.0737 38.2 93.2 38.2V39.2V40.2C94.4063 40.2 95.4871 39.8884 96.2897 39.1241L95.6 38.4ZM71.68 39.2V38.2C71.022 38.2 70.3475 38.1391 69.6558 38.0156L69.48 39L69.3042 39.9844C70.1058 40.1276 70.898 40.2 71.68 40.2V39.2ZM69.48 39L69.6265 38.0108C68.9064 37.9041 68.4144 37.8262 68.1389 37.7761L67.96 38.76L67.7811 39.7439C68.0923 39.8005 68.6136 39.8826 69.3335 39.9892L69.48 39ZM67.96 38.76L68.9515 38.8899L69.7115 33.0899L68.72 32.96L67.7285 32.8301L66.9685 38.6301L67.96 38.76ZM68.72 32.96L68.5907 33.9516C70.4944 34.1999 72.3502 34.256 74.1567 34.1171L74.08 33.12L74.0033 32.1229C72.3431 32.2507 70.6256 32.2001 68.8493 31.9684L68.72 32.96ZM74.08 33.12L74.1705 34.1159C76.0375 33.9462 77.7345 33.4908 79.2472 32.7344L78.8 31.84L78.3528 30.9456C77.0921 31.5759 75.6425 31.9738 73.9895 32.1241L74.08 33.12ZM78.8 31.84L79.2539 32.731C80.8333 31.9265 82.0918 30.7575 83.0145 29.2394L82.16 28.72L81.3055 28.2006C80.5749 29.4025 79.5934 30.3135 78.3461 30.949L78.8 31.84ZM82.16 28.72L83.0189 29.2321C83.9651 27.645 84.4 25.6653 84.4 23.36H83.4H82.4C82.4 25.428 82.0083 27.0216 81.3011 28.2079L82.16 28.72ZM83.4 23.36L82.4544 23.6852L84.6144 29.9652L85.56 29.64L86.5056 29.3148L84.3456 23.0348L83.4 23.36ZM85.56 29.64L84.5752 29.4662C84.2719 31.1849 83.7631 32.5574 83.0794 33.6183L83.92 34.16L84.7606 34.7017C85.6236 33.3626 86.2081 31.7218 86.5448 29.8138L85.56 29.64ZM83.92 34.16L83.0763 33.6231C82.3959 34.6923 81.5971 35.5201 80.6853 36.1279L81.24 36.96L81.7947 37.7921C82.9629 37.0132 83.9507 35.9744 84.7637 34.6969L83.92 34.16ZM81.24 36.96L80.6904 36.1246C79.7618 36.7355 78.7763 37.1851 77.7312 37.4768L78 38.44L78.2688 39.4032C79.517 39.0549 80.6915 38.5179 81.7896 37.7954L81.24 36.96ZM78 38.44L77.7312 37.4768C76.6431 37.7805 75.5887 37.9679 74.567 38.0427L74.64 39.04L74.713 40.0373C75.8779 39.9521 77.0636 39.7395 78.2688 39.4032L78 38.44ZM74.64 39.04L74.5429 38.0447C73.4743 38.149 72.5208 38.2 71.68 38.2V39.2V40.2C72.5992 40.2 73.619 40.1444 74.7371 40.0353L74.64 39.04ZM80.36 33.72L81.2482 33.2606C80.8183 32.4293 80.2154 31.4797 79.4523 30.4168L78.64 31L77.8277 31.5832C78.5579 32.6003 79.1018 33.464 79.4718 34.1794L80.36 33.72ZM78.64 31L79.4592 30.4265C78.6898 29.3273 77.7489 28.1283 76.6404 26.8305L75.88 27.48L75.1196 28.1295C76.1978 29.3917 77.0969 30.5394 77.8208 31.5735L78.64 31ZM75.88 27.48L76.6547 26.8476C75.5679 25.5164 74.3226 24.1225 72.9203 22.6664L72.2 23.36L71.4797 24.0536C72.8508 25.4774 74.0587 26.8303 75.1053 28.1124L75.88 27.48ZM72.2 23.36L72.9266 22.673C71.5222 21.1875 69.9722 19.6646 68.2773 18.1043L67.6 18.84L66.9227 19.5757C68.5878 21.1087 70.1045 22.5991 71.4734 24.047L72.2 23.36ZM67.6 18.84L68.3375 19.5154L71.8175 15.7154L71.08 15.04L70.3425 14.3646L66.8625 18.1646L67.6 18.84ZM71.08 15.04L70.3927 15.7664C72.8669 18.1076 74.8686 20.0697 76.401 21.655L77.12 20.96L77.839 20.265C76.2781 18.6503 74.2531 16.6658 71.7673 14.3136L71.08 15.04ZM77.12 20.96L76.401 21.655C77.9387 23.2457 79.1461 24.5722 80.0302 25.6383L80.8 25L81.5698 24.3617C80.6405 23.2411 79.3946 21.8743 77.839 20.265L77.12 20.96ZM80.8 25L80.0474 25.6585C80.9623 26.7041 81.6303 27.5784 82.0704 28.2874L82.92 27.76L83.7696 27.2326C83.2497 26.395 82.5044 25.4292 81.5526 24.3415L80.8 25ZM82.92 27.76L82.0835 28.308C82.5698 29.0503 82.974 29.7588 83.299 30.4338L84.2 30L85.101 29.5662C84.7327 28.8012 84.2835 28.0164 83.7565 27.212L82.92 27.76ZM84.2 30L83.5042 29.2818L79.6642 33.0018L80.36 33.72L81.0558 34.4382L84.8958 30.7182L84.2 30ZM93.2266 39.2L92.2291 39.1288L92.1526 40.2H93.2266V39.2ZM93.6266 33.6V32.6H92.6954L92.6291 33.5288L93.6266 33.6ZM97.3066 33.36L97.4909 34.3429L97.4909 34.3429L97.3066 33.36ZM99.0666 32.48L98.2722 31.8725L98.2666 31.88L99.0666 32.48ZM99.2666 27.88L98.2823 28.0567L98.2845 28.0688L98.287 28.0809L99.2666 27.88ZM98.5066 24.64L97.5392 24.8934L97.542 24.9041L97.545 24.9147L98.5066 24.64ZM97.5466 21.56L97.2811 20.5959L96.2293 20.8855L96.6091 21.9082L97.5466 21.56ZM103.067 20.04L104.001 19.6829L103.676 18.8349L102.801 19.0759L103.067 20.04ZM104.067 23.2L105.033 22.9423L105.033 22.9423L104.067 23.2ZM104.867 26.92L103.88 27.0844L103.881 27.0878L104.867 26.92ZM104.307 35L105.192 35.464L105.197 35.4555L104.307 35ZM101.827 37.6L101.328 36.733L101.319 36.7386L101.827 37.6ZM98.0666 38.88L98.2105 39.8696L98.2193 39.8683L98.2281 39.8669L98.0666 38.88ZM99.1066 10.68L98.3806 11.3677L98.3899 11.3776L98.3995 11.3871L99.1066 10.68ZM99.1066 7.12L98.4188 6.39405L98.409 6.40334L98.3995 6.41289L99.1066 7.12ZM102.627 10.68L103.353 11.3677L103.353 11.3677L102.627 10.68ZM95.9066 15.96L95.1806 16.6477L95.1899 16.6576L95.1995 16.6671L95.9066 15.96ZM95.9066 12.4L95.2188 11.674L95.209 11.6833L95.1995 11.6929L95.9066 12.4ZM99.4266 12.4L98.7195 13.1071L98.7195 13.1071L99.4266 12.4ZM99.4266 15.96L98.7006 15.2723L98.7006 15.2723L99.4266 15.96ZM102.107 15.96L101.381 16.6477L101.39 16.6576L101.399 16.6671L102.107 15.96ZM102.107 12.4L101.419 11.674L101.409 11.6833L101.399 11.6929L102.107 12.4ZM105.627 12.4L104.919 13.1071L104.919 13.1071L105.627 12.4ZM105.627 15.96L104.901 15.2723L104.901 15.2723L105.627 15.96ZM93.2266 39.2L94.224 39.2712L94.624 33.6712L93.6266 33.6L92.6291 33.5288L92.2291 39.1288L93.2266 39.2ZM93.6266 33.6V34.6C95.246 34.6 96.5459 34.5201 97.4909 34.3429L97.3066 33.36L97.1223 32.3771C96.3606 32.5199 95.2071 32.6 93.6266 32.6V33.6ZM97.3066 33.36L97.4909 34.3429C98.4445 34.1641 99.3265 33.8001 99.8666 33.08L99.0666 32.48L98.2666 31.88C98.1666 32.0132 97.8753 32.2359 97.1223 32.3771L97.3066 33.36ZM99.0666 32.48L99.8609 33.0874C100.389 32.3968 100.587 31.5111 100.587 30.56H99.5866H98.5866C98.5866 31.2622 98.4374 31.6565 98.2722 31.8725L99.0666 32.48ZM99.5866 30.56H100.587C100.587 29.7242 100.468 28.7599 100.246 27.6791L99.2666 27.88L98.287 28.0809C98.4919 29.0801 98.5866 29.9025 98.5866 30.56H99.5866ZM99.2666 27.88L100.251 27.7033C100.058 26.6271 99.7964 25.5143 99.4681 24.3653L98.5066 24.64L97.545 24.9147C97.8567 26.0057 98.1021 27.0529 98.2823 28.0567L99.2666 27.88ZM98.5066 24.64L99.4739 24.3866C99.1735 23.2396 98.8439 22.1808 98.484 21.2118L97.5466 21.56L96.6091 21.9082C96.9426 22.8059 97.2529 23.8004 97.5392 24.8934L98.5066 24.64ZM97.5466 21.56L97.812 22.5241L103.332 21.0041L103.067 20.04L102.801 19.0759L97.2811 20.5959L97.5466 21.56ZM103.067 20.04L102.133 20.3971C102.464 21.2637 102.787 22.2826 103.1 23.4577L104.067 23.2L105.033 22.9423C104.706 21.7174 104.363 20.6296 104.001 19.6829L103.067 20.04ZM104.067 23.2L103.1 23.4577C103.412 24.6256 103.672 25.8344 103.88 27.0844L104.867 26.92L105.853 26.7556C105.635 25.4456 105.361 24.1744 105.033 22.9423L104.067 23.2ZM104.867 26.92L103.881 27.0878C104.085 28.2903 104.187 29.4473 104.187 30.56H105.187H106.187C106.187 29.326 106.074 28.0564 105.852 26.7522L104.867 26.92ZM105.187 30.56H104.187C104.187 32.2756 103.908 33.5844 103.416 34.5445L104.307 35L105.197 35.4555C105.879 34.1222 106.187 32.471 106.187 30.56H105.187ZM104.307 35L103.421 34.536C102.92 35.4925 102.225 36.2172 101.328 36.7331L101.827 37.6L102.325 38.4669C103.561 37.7561 104.52 36.7475 105.192 35.464L104.307 35ZM101.827 37.6L101.319 36.7386C100.407 37.2763 99.2768 37.6687 97.9051 37.8931L98.0666 38.88L98.2281 39.8669C99.7897 39.6113 101.166 39.1503 102.335 38.4614L101.827 37.6ZM98.0666 38.88L97.9226 37.8904C96.5115 38.0957 94.947 38.2 93.2266 38.2V39.2V40.2C95.0261 40.2 96.6883 40.091 98.2105 39.8696L98.0666 38.88ZM100.867 11.44V10.44C100.486 10.44 100.148 10.3075 99.8137 9.97289L99.1066 10.68L98.3995 11.3871C99.0781 12.0658 99.9135 12.44 100.867 12.44V11.44ZM99.1066 10.68L99.8325 9.99226C99.5272 9.66996 99.3866 9.31558 99.3866 8.88H98.3866H97.3866C97.3866 9.83109 97.7259 10.6767 98.3806 11.3677L99.1066 10.68ZM98.3866 8.88H99.3866C99.3866 8.44553 99.5257 8.11512 99.8137 7.8271L99.1066 7.12L98.3995 6.41289C97.7275 7.08487 97.3866 7.9278 97.3866 8.88H98.3866ZM99.1066 7.12L99.7943 7.84595C100.125 7.53281 100.469 7.4 100.867 7.4V6.4V5.4C99.9311 5.4 99.1016 5.74719 98.4188 6.39405L99.1066 7.12ZM100.867 6.4V7.4C101.301 7.4 101.631 7.53909 101.919 7.8271L102.627 7.12L103.334 6.41289C102.662 5.74091 101.819 5.4 100.867 5.4V6.4ZM102.627 7.12L101.919 7.8271C102.207 8.11512 102.347 8.44553 102.347 8.88H103.347H104.347C104.347 7.9278 104.006 7.08487 103.334 6.41289L102.627 7.12ZM103.347 8.88H102.347C102.347 9.31558 102.206 9.66996 101.901 9.99226L102.627 10.68L103.353 11.3677C104.007 10.6767 104.347 9.83109 104.347 8.88H103.347ZM102.627 10.68L101.901 9.99225C101.608 10.3011 101.283 10.44 100.867 10.44V11.44V12.44C101.837 12.44 102.685 12.0723 103.353 11.3677L102.627 10.68ZM97.6666 16.72V15.72C97.2863 15.72 96.9483 15.5875 96.6137 15.2529L95.9066 15.96L95.1995 16.6671C95.8781 17.3458 96.7135 17.72 97.6666 17.72V16.72ZM95.9066 15.96L96.6325 15.2723C96.3272 14.95 96.1866 14.5956 96.1866 14.16H95.1866H94.1866C94.1866 15.1111 94.5259 15.9567 95.1806 16.6477L95.9066 15.96ZM95.1866 14.16H96.1866C96.1866 13.7255 96.3257 13.3951 96.6137 13.1071L95.9066 12.4L95.1995 11.6929C94.5275 12.3649 94.1866 13.2078 94.1866 14.16H95.1866ZM95.9066 12.4L96.5943 13.126C96.9248 12.8128 97.2687 12.68 97.6666 12.68V11.68V10.68C96.7311 10.68 95.9016 11.0272 95.2188 11.674L95.9066 12.4ZM97.6666 11.68V12.68C98.101 12.68 98.4314 12.8191 98.7195 13.1071L99.4266 12.4L100.134 11.6929C99.4617 11.0209 98.6188 10.68 97.6666 10.68V11.68ZM99.4266 12.4L98.7195 13.1071C99.0075 13.3951 99.1466 13.7255 99.1466 14.16H100.147H101.147C101.147 13.2078 100.806 12.3649 100.134 11.6929L99.4266 12.4ZM100.147 14.16H99.1466C99.1466 14.5956 99.0059 14.95 98.7006 15.2723L99.4266 15.96L100.153 16.6477C100.807 15.9567 101.147 15.1111 101.147 14.16H100.147ZM99.4266 15.96L98.7006 15.2723C98.408 15.5811 98.0832 15.72 97.6666 15.72V16.72V17.72C98.6365 17.72 99.4851 17.3522 100.153 16.6477L99.4266 15.96ZM103.867 16.72V15.72C103.486 15.72 103.148 15.5875 102.814 15.2529L102.107 15.96L101.399 16.6671C102.078 17.3458 102.914 17.72 103.867 17.72V16.72ZM102.107 15.96L102.833 15.2723C102.527 14.95 102.387 14.5956 102.387 14.16H101.387H100.387C100.387 15.1111 100.726 15.9567 101.381 16.6477L102.107 15.96ZM101.387 14.16H102.387C102.387 13.7255 102.526 13.3951 102.814 13.1071L102.107 12.4L101.399 11.6929C100.727 12.3649 100.387 13.2078 100.387 14.16H101.387ZM102.107 12.4L102.794 13.126C103.125 12.8128 103.469 12.68 103.867 12.68V11.68V10.68C102.931 10.68 102.102 11.0272 101.419 11.674L102.107 12.4ZM103.867 11.68V12.68C104.301 12.68 104.631 12.8191 104.919 13.1071L105.627 12.4L106.334 11.6929C105.662 11.0209 104.819 10.68 103.867 10.68V11.68ZM105.627 12.4L104.919 13.1071C105.207 13.3951 105.347 13.7255 105.347 14.16H106.347H107.347C107.347 13.2078 107.006 12.3649 106.334 11.6929L105.627 12.4ZM106.347 14.16H105.347C105.347 14.5956 105.206 14.95 104.901 15.2723L105.627 15.96L106.353 16.6477C107.007 15.9567 107.347 15.1111 107.347 14.16H106.347ZM105.627 15.96L104.901 15.2723C104.608 15.5811 104.283 15.72 103.867 15.72V16.72V17.72C104.837 17.72 105.685 17.3523 106.353 16.6477L105.627 15.96Z" fill="#619D68" mask="url(#path-3-outside-1_67_30)"/>
</svg>
