<svg width="136" height="164" viewBox="0 0 136 164" fill="none" xmlns="http://www.w3.org/2000/svg">
<path d="M69.1953 43.2646C74.375 45.8038 74.375 45.8038 79.8203 51.6075C86.1121 57.925 91.477 58.4548 100.672 59.1041C104.655 59.2364 108.64 59.3341 112.625 59.3459C112.606 60.8646 112.587 62.3833 112.567 63.9481C112.914 75.1528 113.226 82.687 122.32 90.7829C124.702 92.6153 127.12 94.4122 129.625 96.103C126.905 101.642 125.419 103.811 119.93 107.59C111.824 116.861 112.829 127.132 112.625 138.664C110.803 138.647 108.982 138.629 107.105 138.611C89.7177 138.88 89.7177 138.88 75.8359 147.491C73.8606 149.655 71.9276 151.855 70.125 154.141C64.0408 151.665 61.6585 150.312 57.5078 145.314C47.3235 137.935 36.0424 138.85 23.375 138.664C23.3942 137.006 23.4133 135.347 23.4331 133.639C23.1375 117.809 23.1375 117.809 13.6797 105.171C11.3026 103.373 8.88559 101.613 6.375 99.9722C9.53175 94.7992 12.1827 90.7453 17.1328 86.8533C22.461 81.2984 22.496 77.752 22.8438 70.4698C22.9643 68.3849 23.0848 66.3001 23.209 64.1521C23.2638 62.5661 23.3186 60.98 23.375 59.3459C25.0432 59.3633 26.7114 59.3808 28.4302 59.3988C41.8185 59.3366 41.8185 59.3366 53.5068 54.1996C55.9282 51.7356 58.3209 49.2479 60.6787 46.7333C63.75 43.8692 63.75 43.8692 69.1953 43.2646ZM65.875 51.6075C64.1657 53.4829 62.4564 55.3582 60.6953 57.2904C52.9954 64.7199 45.2146 64.7413 34.415 65.1345C32.8756 65.1395 31.3361 65.1445 29.75 65.1496C29.7445 66.5287 29.739 67.9078 29.7334 69.3287C29.1796 81.8149 27.3669 88.8147 17.5894 97.758C16.6936 98.4887 15.7979 99.2194 14.875 99.9722C16.9349 101.449 18.9948 102.925 21.1172 104.446C29.1784 111.612 29.2988 118.722 29.7334 128.613C29.7389 130.015 29.7444 131.416 29.75 132.86C31.2895 132.865 32.8289 132.87 34.415 132.875C53.2845 133.562 53.2845 133.562 60.9609 140.719C62.5826 142.595 64.2042 144.47 65.875 146.402C71.2395 144.309 74.1196 142.84 77.6953 138.543C86.0585 132.491 95.8498 133.187 106.25 132.86C106.255 131.481 106.261 130.102 106.267 128.681C106.82 116.195 108.633 109.195 118.411 100.252C119.306 99.5211 120.202 98.7905 121.125 98.0376C119.065 96.5613 117.005 95.085 114.883 93.5639C106.822 86.3977 106.701 79.2881 106.267 69.3967C106.258 67.2944 106.258 67.2944 106.25 65.1496C104.711 65.1447 103.171 65.1397 101.585 65.1345C82.7224 64.4476 82.7224 64.4476 75.3047 57.2904C73.5954 55.415 71.8861 53.5397 70.125 51.6075C68.7225 51.6075 67.32 51.6075 65.875 51.6075Z" fill="#619D68"/>
<path d="M65.875 61.2805C73.8266 64.5256 73.8266 64.5256 77.0312 68.1724C83.1566 72.7531 89.9758 72.3079 97.75 72.888C97.9253 75.282 98.1006 77.6761 98.2812 80.1427C99.2838 87.9975 102.024 90.7065 108.375 96.103C108.242 100.093 108.242 100.093 106.25 103.841C105.198 104.639 104.146 105.437 103.062 106.26C97.8459 111.8 98.3939 117.97 97.75 125.122C95.1203 125.281 92.4906 125.441 89.7812 125.606C81.1005 126.522 78.3006 129.096 72.25 134.795C66.8047 134.674 66.8047 134.674 61.625 132.86C60.7046 131.903 59.7842 130.945 58.8359 129.958C52.8941 125.15 46.0215 125.702 38.25 125.122C38.0747 122.728 37.8994 120.334 37.7188 117.867C36.7162 110.012 33.9761 107.303 27.625 101.907C27.7578 97.9167 27.7578 97.9167 29.75 94.1684C30.8019 93.3704 31.8538 92.5724 32.9375 91.7502C38.1541 86.2095 37.6061 80.0397 38.25 72.888C42.1288 72.7084 42.1288 72.7084 46.0859 72.5252C55.5868 71.5113 59.7827 68.0402 65.875 61.2805ZM65.875 70.9534C64.4725 72.2302 63.07 73.5071 61.625 74.8226C55.9823 75.916 50.3807 76.2501 44.625 76.7572C44.4059 79.1512 44.1867 81.5453 43.9609 84.0119C43.0567 90.8396 41.4776 94.8874 36.125 99.9722C37.133 100.651 38.1411 101.329 39.1797 102.028C43.9423 107.404 43.9263 112.575 44.625 119.318C46.9479 119.518 49.2708 119.717 51.6641 119.923C59.1931 121.201 61.4814 121.645 65.875 127.056C66.9269 126.498 67.9788 125.939 69.0625 125.364C76.3247 122.389 83.6201 120.965 91.375 119.318C91.5941 117.243 91.8133 115.168 92.0391 113.031C93.4448 106.05 94.7215 103.137 99.875 98.0376C98.867 97.3992 97.8589 96.7608 96.8203 96.103C91.6769 90.1094 92.0508 84.2628 91.375 76.7572C87.4305 76.3981 87.4305 76.3981 83.4062 76.0317C76.763 75.2918 71.6363 74.2316 65.875 70.9534Z" fill="#619D68"/>
<mask id="path-3-outside-1_67_29" maskUnits="userSpaceOnUse" x="13" y="7" width="110" height="30" fill="black">
<rect fill="white" x="13" y="7" width="110" height="30"/>
<path d="M28.4456 35.756L29.3816 30.716C30.8696 30.716 32.2856 30.668 33.6296 30.572C34.9736 30.476 36.2096 30.356 37.3376 30.212C38.4896 30.068 39.4856 29.912 40.3256 29.744C41.1896 29.576 41.8496 29.42 42.3056 29.276C43.1216 29.012 43.8176 28.688 44.3936 28.304C44.9696 27.92 45.4136 27.488 45.7256 27.008C46.0376 26.528 46.1936 26.048 46.1936 25.568C46.1936 25.232 46.1336 24.896 46.0136 24.56C45.8936 24.224 45.7256 23.912 45.5096 23.624C45.3176 23.336 45.0776 23.108 44.7896 22.94C44.5256 22.748 44.2496 22.652 43.9616 22.652C43.5776 22.652 43.1936 22.796 42.8096 23.084C42.4496 23.372 42.1496 23.756 41.9096 24.236C41.6936 24.692 41.5856 25.208 41.5856 25.784C41.5856 26.192 41.7056 26.624 41.9456 27.08C42.1856 27.536 42.5216 27.98 42.9536 28.412C43.4096 28.82 43.9256 29.18 44.5016 29.492L39.7136 31.328C39.1856 30.824 38.6816 30.308 38.2016 29.78C37.7456 29.228 37.3616 28.616 37.0496 27.944C36.7616 27.272 36.6176 26.516 36.6176 25.676C36.6176 24.572 36.8336 23.552 37.2656 22.616C37.7216 21.656 38.3096 20.816 39.0296 20.096C39.7736 19.376 40.5776 18.824 41.4416 18.44C42.3296 18.032 43.2056 17.828 44.0696 17.828C45.4616 17.828 46.6856 18.2 47.7416 18.944C48.7976 19.664 49.6256 20.6 50.2256 21.752C50.8496 22.904 51.1616 24.116 51.1616 25.388C51.1616 26.516 50.9456 27.524 50.5136 28.412C50.0816 29.3 49.4936 30.08 48.7496 30.752C48.0296 31.4 47.2256 31.976 46.3376 32.48C45.4736 32.984 44.5976 33.416 43.7096 33.776C43.0856 34.04 42.2216 34.292 41.1176 34.532C40.0376 34.772 38.7896 34.976 37.3736 35.144C35.9816 35.336 34.5176 35.48 32.9816 35.576C31.4456 35.696 29.9336 35.756 28.4456 35.756ZM53.2856 35.18C51.8936 35.18 50.5256 35.108 49.1816 34.964C47.8376 34.82 46.5896 34.604 45.4376 34.316C44.3096 34.028 43.3256 33.68 42.4856 33.272L44.9696 29.384C45.6896 29.576 46.5296 29.732 47.4896 29.852C48.4736 29.948 49.4936 30.02 50.5496 30.068C51.6296 30.116 52.6616 30.14 53.6456 30.14C54.5576 30.14 55.2056 30.38 55.5896 30.86C55.9976 31.316 56.2016 31.892 56.2016 32.588C56.2016 33.332 55.9496 33.956 55.4456 34.46C54.9416 34.94 54.2216 35.18 53.2856 35.18ZM28.4456 35.756C25.8536 35.756 23.6576 35.552 21.8576 35.144C20.0816 34.76 18.6296 34.208 17.5016 33.488C16.3976 32.744 15.5936 31.88 15.0896 30.896C14.5856 29.912 14.3336 28.832 14.3336 27.656C14.3336 26.888 14.3936 26.12 14.5136 25.352C14.6576 24.56 14.8256 23.792 15.0176 23.048C15.2336 22.304 15.4256 21.632 15.5936 21.032L20.0936 22.076C19.9976 22.508 19.8896 22.976 19.7696 23.48C19.6496 23.984 19.5536 24.476 19.4816 24.956C19.4096 25.412 19.3736 25.832 19.3736 26.216C19.3736 27.104 19.6856 27.896 20.3096 28.592C20.9576 29.264 22.0136 29.792 23.4776 30.176C24.9416 30.536 26.9096 30.716 29.3816 30.716L30.1016 34.604L28.4456 35.756ZM44.1056 14.48C43.3616 14.48 42.7256 14.228 42.1976 13.724C41.6936 13.22 41.4416 12.596 41.4416 11.852C41.4416 11.108 41.6936 10.472 42.1976 9.944C42.7256 9.416 43.3616 9.152 44.1056 9.152C44.8256 9.152 45.4376 9.416 45.9416 9.944C46.4696 10.472 46.7336 11.108 46.7336 11.852C46.7336 12.596 46.4696 13.22 45.9416 13.724C45.4376 14.228 44.8256 14.48 44.1056 14.48ZM89.4381 35.18C88.2141 35.18 87.0381 35.072 85.9101 34.856C84.7821 34.616 83.7621 34.304 82.8501 33.92C81.9621 33.536 81.2301 33.104 80.6541 32.624L83.8941 29.132C84.7581 29.492 85.6461 29.756 86.5581 29.924C87.4701 30.068 88.5501 30.14 89.7981 30.14C90.7101 30.14 91.3581 30.38 91.7421 30.86C92.1501 31.316 92.3541 31.892 92.3541 32.588C92.3541 33.332 92.1021 33.956 91.5981 34.46C91.0941 34.94 90.3741 35.18 89.4381 35.18ZM71.9781 35.648C69.7461 35.648 67.8861 35.552 66.3981 35.36C64.9341 35.168 63.7461 34.892 62.8341 34.532C61.9221 34.172 61.2021 33.74 60.6741 33.236C60.1461 32.732 59.7141 32.18 59.3781 31.58L60.3861 31.292C59.7861 32.444 59.1021 33.296 58.3341 33.848C57.5661 34.4 56.7621 34.76 55.9221 34.928C55.0821 35.096 54.2181 35.18 53.3301 35.18L53.6901 30.14C54.4341 30.14 55.0221 30.02 55.4541 29.78C55.8861 29.54 56.2341 29.144 56.4981 28.592C56.7861 28.04 57.0501 27.308 57.2901 26.396C57.5301 25.484 57.8181 24.368 58.1541 23.048L62.7261 24.164C62.5581 24.812 62.4141 25.376 62.2941 25.856C62.1981 26.336 62.1141 26.756 62.0421 27.116C61.9941 27.452 61.9701 27.728 61.9701 27.944C61.9701 28.4 62.0781 28.808 62.2941 29.168C62.5101 29.504 62.9301 29.78 63.5541 29.996C64.1781 30.188 65.0901 30.344 66.2901 30.464C67.5141 30.56 69.1101 30.608 71.0781 30.608C73.1661 30.608 74.9061 30.536 76.2981 30.392C77.6901 30.224 78.7941 29.996 79.6101 29.708C80.4501 29.396 81.0501 29.024 81.4101 28.592C81.7701 28.136 81.9501 27.62 81.9501 27.044C81.9501 26.588 81.8421 26.168 81.6261 25.784C81.4341 25.376 81.1101 25.04 80.6541 24.776C80.1981 24.512 79.6101 24.38 78.8901 24.38C78.0261 24.38 77.1501 24.596 76.2621 25.028C75.3981 25.436 74.5461 25.988 73.7061 26.684C72.8661 27.356 72.0621 28.112 71.2941 28.952C70.5501 29.792 69.8781 30.632 69.2781 31.472L63.8781 30.86C64.8141 29.348 65.8701 27.896 67.0461 26.504C68.2221 25.112 69.4821 23.888 70.8261 22.832C72.1701 21.752 73.5621 20.9 75.0021 20.276C76.4421 19.652 77.9061 19.34 79.3941 19.34C81.0021 19.34 82.3701 19.652 83.4981 20.276C84.6261 20.9 85.4901 21.764 86.0901 22.868C86.6901 23.972 86.9901 25.244 86.9901 26.684C86.9901 28.436 86.4861 29.984 85.4781 31.328C84.4941 32.672 82.8981 33.728 80.6901 34.496C78.5061 35.264 75.6021 35.648 71.9781 35.648ZM89.4707 35.18L89.8307 30.14C90.7427 30.14 91.4627 30.056 91.9907 29.888C92.5427 29.72 92.9747 29.384 93.2867 28.88C93.6227 28.352 93.8987 27.584 94.1147 26.576C94.3547 25.568 94.5947 24.224 94.8347 22.544L99.5507 23.336C99.5027 23.696 99.4307 24.116 99.3347 24.596C99.2627 25.076 99.1907 25.568 99.1187 26.072C99.0707 26.552 99.0467 27.008 99.0467 27.44C99.0467 28.016 99.1667 28.508 99.4067 28.916C99.6707 29.3 100.127 29.6 100.775 29.816C101.447 30.032 102.407 30.14 103.655 30.14C104.567 30.14 105.215 30.38 105.599 30.86C105.983 31.316 106.175 31.892 106.175 32.588C106.175 33.332 105.923 33.956 105.419 34.46C104.939 34.94 104.231 35.18 103.295 35.18C101.639 35.18 100.295 35.024 99.2627 34.712C98.2307 34.4 97.4627 33.872 96.9587 33.128C96.4547 32.384 96.1307 31.364 95.9867 30.068H97.7147C97.2827 31.22 96.7787 32.144 96.2027 32.84C95.6267 33.512 94.9787 34.016 94.2587 34.352C93.5387 34.688 92.7707 34.904 91.9547 35C91.1627 35.12 90.3347 35.18 89.4707 35.18ZM96.8147 18.872C96.0707 18.872 95.4347 18.62 94.9067 18.116C94.4027 17.612 94.1507 16.988 94.1507 16.244C94.1507 15.5 94.4027 14.864 94.9067 14.336C95.4347 13.808 96.0707 13.544 96.8147 13.544C97.5347 13.544 98.1467 13.808 98.6507 14.336C99.1787 14.864 99.4427 15.5 99.4427 16.244C99.4427 16.988 99.1787 17.612 98.6507 18.116C98.1467 18.62 97.5347 18.872 96.8147 18.872ZM103.287 35.18L103.647 30.14C104.751 30.14 105.543 30.032 106.023 29.816C106.503 29.576 106.791 29.144 106.887 28.52C106.983 27.872 107.007 26.936 106.959 25.712L106.311 8.648H111.387L112.107 26.072C112.155 27.464 112.095 28.724 111.927 29.852C111.783 30.956 111.411 31.904 110.811 32.696C110.235 33.488 109.335 34.1 108.111 34.532C106.911 34.964 105.303 35.18 103.287 35.18ZM116.855 35L116.099 8.648H121.139L121.895 35H116.855Z"/>
</mask>
<path d="M28.4456 35.756L29.3816 30.716C30.8696 30.716 32.2856 30.668 33.6296 30.572C34.9736 30.476 36.2096 30.356 37.3376 30.212C38.4896 30.068 39.4856 29.912 40.3256 29.744C41.1896 29.576 41.8496 29.42 42.3056 29.276C43.1216 29.012 43.8176 28.688 44.3936 28.304C44.9696 27.92 45.4136 27.488 45.7256 27.008C46.0376 26.528 46.1936 26.048 46.1936 25.568C46.1936 25.232 46.1336 24.896 46.0136 24.56C45.8936 24.224 45.7256 23.912 45.5096 23.624C45.3176 23.336 45.0776 23.108 44.7896 22.94C44.5256 22.748 44.2496 22.652 43.9616 22.652C43.5776 22.652 43.1936 22.796 42.8096 23.084C42.4496 23.372 42.1496 23.756 41.9096 24.236C41.6936 24.692 41.5856 25.208 41.5856 25.784C41.5856 26.192 41.7056 26.624 41.9456 27.08C42.1856 27.536 42.5216 27.98 42.9536 28.412C43.4096 28.82 43.9256 29.18 44.5016 29.492L39.7136 31.328C39.1856 30.824 38.6816 30.308 38.2016 29.78C37.7456 29.228 37.3616 28.616 37.0496 27.944C36.7616 27.272 36.6176 26.516 36.6176 25.676C36.6176 24.572 36.8336 23.552 37.2656 22.616C37.7216 21.656 38.3096 20.816 39.0296 20.096C39.7736 19.376 40.5776 18.824 41.4416 18.44C42.3296 18.032 43.2056 17.828 44.0696 17.828C45.4616 17.828 46.6856 18.2 47.7416 18.944C48.7976 19.664 49.6256 20.6 50.2256 21.752C50.8496 22.904 51.1616 24.116 51.1616 25.388C51.1616 26.516 50.9456 27.524 50.5136 28.412C50.0816 29.3 49.4936 30.08 48.7496 30.752C48.0296 31.4 47.2256 31.976 46.3376 32.48C45.4736 32.984 44.5976 33.416 43.7096 33.776C43.0856 34.04 42.2216 34.292 41.1176 34.532C40.0376 34.772 38.7896 34.976 37.3736 35.144C35.9816 35.336 34.5176 35.48 32.9816 35.576C31.4456 35.696 29.9336 35.756 28.4456 35.756ZM53.2856 35.18C51.8936 35.18 50.5256 35.108 49.1816 34.964C47.8376 34.82 46.5896 34.604 45.4376 34.316C44.3096 34.028 43.3256 33.68 42.4856 33.272L44.9696 29.384C45.6896 29.576 46.5296 29.732 47.4896 29.852C48.4736 29.948 49.4936 30.02 50.5496 30.068C51.6296 30.116 52.6616 30.14 53.6456 30.14C54.5576 30.14 55.2056 30.38 55.5896 30.86C55.9976 31.316 56.2016 31.892 56.2016 32.588C56.2016 33.332 55.9496 33.956 55.4456 34.46C54.9416 34.94 54.2216 35.18 53.2856 35.18ZM28.4456 35.756C25.8536 35.756 23.6576 35.552 21.8576 35.144C20.0816 34.76 18.6296 34.208 17.5016 33.488C16.3976 32.744 15.5936 31.88 15.0896 30.896C14.5856 29.912 14.3336 28.832 14.3336 27.656C14.3336 26.888 14.3936 26.12 14.5136 25.352C14.6576 24.56 14.8256 23.792 15.0176 23.048C15.2336 22.304 15.4256 21.632 15.5936 21.032L20.0936 22.076C19.9976 22.508 19.8896 22.976 19.7696 23.48C19.6496 23.984 19.5536 24.476 19.4816 24.956C19.4096 25.412 19.3736 25.832 19.3736 26.216C19.3736 27.104 19.6856 27.896 20.3096 28.592C20.9576 29.264 22.0136 29.792 23.4776 30.176C24.9416 30.536 26.9096 30.716 29.3816 30.716L30.1016 34.604L28.4456 35.756ZM44.1056 14.48C43.3616 14.48 42.7256 14.228 42.1976 13.724C41.6936 13.22 41.4416 12.596 41.4416 11.852C41.4416 11.108 41.6936 10.472 42.1976 9.944C42.7256 9.416 43.3616 9.152 44.1056 9.152C44.8256 9.152 45.4376 9.416 45.9416 9.944C46.4696 10.472 46.7336 11.108 46.7336 11.852C46.7336 12.596 46.4696 13.22 45.9416 13.724C45.4376 14.228 44.8256 14.48 44.1056 14.48ZM89.4381 35.18C88.2141 35.18 87.0381 35.072 85.9101 34.856C84.7821 34.616 83.7621 34.304 82.8501 33.92C81.9621 33.536 81.2301 33.104 80.6541 32.624L83.8941 29.132C84.7581 29.492 85.6461 29.756 86.5581 29.924C87.4701 30.068 88.5501 30.14 89.7981 30.14C90.7101 30.14 91.3581 30.38 91.7421 30.86C92.1501 31.316 92.3541 31.892 92.3541 32.588C92.3541 33.332 92.1021 33.956 91.5981 34.46C91.0941 34.94 90.3741 35.18 89.4381 35.18ZM71.9781 35.648C69.7461 35.648 67.8861 35.552 66.3981 35.36C64.9341 35.168 63.7461 34.892 62.8341 34.532C61.9221 34.172 61.2021 33.74 60.6741 33.236C60.1461 32.732 59.7141 32.18 59.3781 31.58L60.3861 31.292C59.7861 32.444 59.1021 33.296 58.3341 33.848C57.5661 34.4 56.7621 34.76 55.9221 34.928C55.0821 35.096 54.2181 35.18 53.3301 35.18L53.6901 30.14C54.4341 30.14 55.0221 30.02 55.4541 29.78C55.8861 29.54 56.2341 29.144 56.4981 28.592C56.7861 28.04 57.0501 27.308 57.2901 26.396C57.5301 25.484 57.8181 24.368 58.1541 23.048L62.7261 24.164C62.5581 24.812 62.4141 25.376 62.2941 25.856C62.1981 26.336 62.1141 26.756 62.0421 27.116C61.9941 27.452 61.9701 27.728 61.9701 27.944C61.9701 28.4 62.0781 28.808 62.2941 29.168C62.5101 29.504 62.9301 29.78 63.5541 29.996C64.1781 30.188 65.0901 30.344 66.2901 30.464C67.5141 30.56 69.1101 30.608 71.0781 30.608C73.1661 30.608 74.9061 30.536 76.2981 30.392C77.6901 30.224 78.7941 29.996 79.6101 29.708C80.4501 29.396 81.0501 29.024 81.4101 28.592C81.7701 28.136 81.9501 27.62 81.9501 27.044C81.9501 26.588 81.8421 26.168 81.6261 25.784C81.4341 25.376 81.1101 25.04 80.6541 24.776C80.1981 24.512 79.6101 24.38 78.8901 24.38C78.0261 24.38 77.1501 24.596 76.2621 25.028C75.3981 25.436 74.5461 25.988 73.7061 26.684C72.8661 27.356 72.0621 28.112 71.2941 28.952C70.5501 29.792 69.8781 30.632 69.2781 31.472L63.8781 30.86C64.8141 29.348 65.8701 27.896 67.0461 26.504C68.2221 25.112 69.4821 23.888 70.8261 22.832C72.1701 21.752 73.5621 20.9 75.0021 20.276C76.4421 19.652 77.9061 19.34 79.3941 19.34C81.0021 19.34 82.3701 19.652 83.4981 20.276C84.6261 20.9 85.4901 21.764 86.0901 22.868C86.6901 23.972 86.9901 25.244 86.9901 26.684C86.9901 28.436 86.4861 29.984 85.4781 31.328C84.4941 32.672 82.8981 33.728 80.6901 34.496C78.5061 35.264 75.6021 35.648 71.9781 35.648ZM89.4707 35.18L89.8307 30.14C90.7427 30.14 91.4627 30.056 91.9907 29.888C92.5427 29.72 92.9747 29.384 93.2867 28.88C93.6227 28.352 93.8987 27.584 94.1147 26.576C94.3547 25.568 94.5947 24.224 94.8347 22.544L99.5507 23.336C99.5027 23.696 99.4307 24.116 99.3347 24.596C99.2627 25.076 99.1907 25.568 99.1187 26.072C99.0707 26.552 99.0467 27.008 99.0467 27.44C99.0467 28.016 99.1667 28.508 99.4067 28.916C99.6707 29.3 100.127 29.6 100.775 29.816C101.447 30.032 102.407 30.14 103.655 30.14C104.567 30.14 105.215 30.38 105.599 30.86C105.983 31.316 106.175 31.892 106.175 32.588C106.175 33.332 105.923 33.956 105.419 34.46C104.939 34.94 104.231 35.18 103.295 35.18C101.639 35.18 100.295 35.024 99.2627 34.712C98.2307 34.4 97.4627 33.872 96.9587 33.128C96.4547 32.384 96.1307 31.364 95.9867 30.068H97.7147C97.2827 31.22 96.7787 32.144 96.2027 32.84C95.6267 33.512 94.9787 34.016 94.2587 34.352C93.5387 34.688 92.7707 34.904 91.9547 35C91.1627 35.12 90.3347 35.18 89.4707 35.18ZM96.8147 18.872C96.0707 18.872 95.4347 18.62 94.9067 18.116C94.4027 17.612 94.1507 16.988 94.1507 16.244C94.1507 15.5 94.4027 14.864 94.9067 14.336C95.4347 13.808 96.0707 13.544 96.8147 13.544C97.5347 13.544 98.1467 13.808 98.6507 14.336C99.1787 14.864 99.4427 15.5 99.4427 16.244C99.4427 16.988 99.1787 17.612 98.6507 18.116C98.1467 18.62 97.5347 18.872 96.8147 18.872ZM103.287 35.18L103.647 30.14C104.751 30.14 105.543 30.032 106.023 29.816C106.503 29.576 106.791 29.144 106.887 28.52C106.983 27.872 107.007 26.936 106.959 25.712L106.311 8.648H111.387L112.107 26.072C112.155 27.464 112.095 28.724 111.927 29.852C111.783 30.956 111.411 31.904 110.811 32.696C110.235 33.488 109.335 34.1 108.111 34.532C106.911 34.964 105.303 35.18 103.287 35.18ZM116.855 35L116.099 8.648H121.139L121.895 35H116.855Z" fill="#19401D"/>
<path d="M28.4456 35.756L27.4625 35.5734L27.2428 36.756H28.4456V35.756ZM29.3816 30.716V29.716H28.5503L28.3985 30.5334L29.3816 30.716ZM37.3376 30.212L37.2136 29.2197L37.211 29.2201L37.3376 30.212ZM40.3256 29.744L40.1348 28.7624L40.1295 28.7634L40.3256 29.744ZM42.3056 29.276L42.6068 30.2296L42.6135 30.2274L42.3056 29.276ZM45.7256 27.008L44.8872 26.463L44.8872 26.463L45.7256 27.008ZM45.5096 23.624L44.6776 24.1787L44.693 24.2018L44.7096 24.224L45.5096 23.624ZM44.7896 22.94L44.2015 23.7487L44.2422 23.7784L44.2858 23.8038L44.7896 22.94ZM42.8096 23.084L42.2096 22.284L42.1971 22.2934L42.1849 22.3031L42.8096 23.084ZM41.9096 24.236L41.0152 23.7888L41.0105 23.7983L41.0059 23.8079L41.9096 24.236ZM41.9456 27.08L42.8306 26.6143L42.8306 26.6143L41.9456 27.08ZM42.9536 28.412L42.2465 29.1191L42.2662 29.1387L42.2868 29.1572L42.9536 28.412ZM44.5016 29.492L44.8597 30.4257L46.8887 29.6477L44.9779 28.6127L44.5016 29.492ZM39.7136 31.328L39.0232 32.0514L39.4809 32.4883L40.0717 32.2617L39.7136 31.328ZM38.2016 29.78L37.4307 30.4169L37.4458 30.4351L37.4617 30.4527L38.2016 29.78ZM37.0496 27.944L36.1305 28.3379L36.1364 28.3516L36.1426 28.3651L37.0496 27.944ZM37.2656 22.616L36.3623 22.1869L36.3577 22.1969L37.2656 22.616ZM39.0296 20.096L38.3342 19.3774L38.3283 19.3831L38.3225 19.3889L39.0296 20.096ZM41.4416 18.44L41.8478 19.3539L41.8591 19.3487L41.4416 18.44ZM47.7416 18.944L47.1657 19.7615L47.172 19.7659L47.1783 19.7702L47.7416 18.944ZM50.2256 21.752L49.3387 22.2139L49.3425 22.2211L49.3464 22.2283L50.2256 21.752ZM48.7496 30.752L49.4186 31.4953L49.4199 31.4941L48.7496 30.752ZM46.3376 32.48L45.844 31.6103L45.8338 31.6162L46.3376 32.48ZM43.7096 33.776L43.3339 32.8493L43.3269 32.8521L43.32 32.855L43.7096 33.776ZM41.1176 34.532L40.9052 33.5548L40.9007 33.5558L41.1176 34.532ZM37.3736 35.144L37.2558 34.151L37.2464 34.1521L37.237 34.1534L37.3736 35.144ZM32.9816 35.576L32.9193 34.5779L32.9115 34.5784L32.9038 34.579L32.9816 35.576ZM49.1816 34.964L49.0751 35.9583L49.0751 35.9583L49.1816 34.964ZM45.4376 34.316L45.1903 35.2849L45.1951 35.2861L45.4376 34.316ZM42.4856 33.272L41.6429 32.7336L41.038 33.6806L42.0487 34.1715L42.4856 33.272ZM44.9696 29.384L45.2273 28.4178L44.5207 28.2293L44.1269 28.8456L44.9696 29.384ZM47.4896 29.852L47.3656 30.8443L47.3791 30.846L47.3925 30.8473L47.4896 29.852ZM50.5496 30.068L50.5042 31.067L50.5052 31.067L50.5496 30.068ZM55.5896 30.86L54.8088 31.4847L54.826 31.5062L54.8444 31.5268L55.5896 30.86ZM55.4456 34.46L56.1353 35.1841L56.1441 35.1757L56.1527 35.1671L55.4456 34.46ZM28.4456 35.756V36.756H28.7593L29.0167 36.5769L28.4456 35.756ZM21.8576 35.144L22.0787 34.1687L22.069 34.1666L21.8576 35.144ZM17.5016 33.488L16.9428 34.3173L16.9531 34.3242L16.9636 34.3309L17.5016 33.488ZM15.0896 30.896L15.9797 30.4401L15.9797 30.4401L15.0896 30.896ZM14.5136 25.352L13.5298 25.1731L13.5275 25.1853L13.5256 25.1976L14.5136 25.352ZM15.0176 23.048L14.0573 22.7692L14.0531 22.7836L14.0494 22.7981L15.0176 23.048ZM15.5936 21.032L15.8196 20.0579L14.8884 19.8418L14.6307 20.7624L15.5936 21.032ZM20.0936 22.076L21.0698 22.2929L21.2848 21.3258L20.3196 21.1019L20.0936 22.076ZM19.7696 23.48L20.7424 23.7116L20.7424 23.7116L19.7696 23.48ZM19.4816 24.956L20.4694 25.112L20.4706 25.1043L19.4816 24.956ZM20.3096 28.592L19.5651 29.2595L19.5772 29.2731L19.5898 29.2861L20.3096 28.592ZM23.4776 30.176L23.2239 31.1433L23.2314 31.1452L23.2389 31.1471L23.4776 30.176ZM29.3816 30.716L30.3649 30.5339L30.2135 29.716H29.3816V30.716ZM30.1016 34.604L30.6727 35.4249L31.2024 35.0564L31.0849 34.4219L30.1016 34.604ZM42.1976 13.724L41.4905 14.4311L41.4988 14.4393L41.5072 14.4474L42.1976 13.724ZM42.1976 9.944L41.4905 9.23689L41.4823 9.24511L41.4743 9.25352L42.1976 9.944ZM45.9416 9.944L45.2183 10.6345L45.2263 10.6429L45.2345 10.6511L45.9416 9.944ZM45.9416 13.724L45.2512 13.0006L45.2428 13.0087L45.2345 13.0169L45.9416 13.724ZM28.4456 35.756L29.4288 35.9386L30.3648 30.8986L29.3816 30.716L28.3985 30.5334L27.4625 35.5734L28.4456 35.756ZM29.3816 30.716V31.716C30.891 31.716 32.3309 31.6673 33.7009 31.5695L33.6296 30.572L33.5584 29.5745C32.2404 29.6687 30.8483 29.716 29.3816 29.716V30.716ZM33.6296 30.572L33.7009 31.5695C35.0601 31.4724 36.3149 31.3507 37.4643 31.2039L37.3376 30.212L37.211 29.2201C36.1044 29.3613 34.8872 29.4796 33.5584 29.5745L33.6296 30.572ZM37.3376 30.212L37.4617 31.2043C38.63 31.0582 39.6512 30.8987 40.5218 30.7246L40.3256 29.744L40.1295 28.7634C39.3201 28.9253 38.3493 29.0778 37.2136 29.2197L37.3376 30.212ZM40.3256 29.744L40.5165 30.7256C41.3924 30.5553 42.0963 30.3908 42.6068 30.2296L42.3056 29.276L42.0045 28.3224C41.603 28.4492 40.9869 28.5967 40.1348 28.7624L40.3256 29.744ZM42.3056 29.276L42.6135 30.2274C43.4969 29.9416 44.2803 29.5814 44.9483 29.136L44.3936 28.304L43.8389 27.4719C43.355 27.7946 42.7464 28.0824 41.9978 28.3246L42.3056 29.276ZM44.3936 28.304L44.9483 29.136C45.6143 28.6921 46.1642 28.1682 46.5641 27.553L45.7256 27.008L44.8872 26.463C44.6631 26.8078 44.325 27.1479 43.8389 27.4719L44.3936 28.304ZM45.7256 27.008L46.5641 27.553C46.9609 26.9425 47.1936 26.2761 47.1936 25.568H46.1936H45.1936C45.1936 25.8199 45.1144 26.1135 44.8872 26.463L45.7256 27.008ZM46.1936 25.568H47.1936C47.1936 25.1104 47.1115 24.6609 46.9554 24.2237L46.0136 24.56L45.0719 24.8963C45.1557 25.1311 45.1936 25.3535 45.1936 25.568H46.1936ZM46.0136 24.56L46.9554 24.2237C46.8013 23.7923 46.5853 23.3915 46.3096 23.024L45.5096 23.624L44.7096 24.224C44.866 24.4325 44.986 24.6557 45.0719 24.8963L46.0136 24.56ZM45.5096 23.624L46.3417 23.0693C46.0686 22.6596 45.7181 22.3239 45.2935 22.0762L44.7896 22.94L44.2858 23.8038C44.4372 23.8921 44.5667 24.0124 44.6776 24.1787L45.5096 23.624ZM44.7896 22.94L45.3778 22.1313C44.9667 21.8323 44.4886 21.652 43.9616 21.652V22.652V23.652C44.0107 23.652 44.0846 23.6637 44.2015 23.7487L44.7896 22.94ZM43.9616 22.652V21.652C43.3121 21.652 42.7228 21.8991 42.2096 22.284L42.8096 23.084L43.4096 23.884C43.6645 23.6929 43.8431 23.652 43.9616 23.652V22.652ZM42.8096 23.084L42.1849 22.3031C41.6949 22.6952 41.3094 23.2005 41.0152 23.7888L41.9096 24.236L42.8041 24.6832C42.9899 24.3115 43.2044 24.0488 43.4343 23.8649L42.8096 23.084ZM41.9096 24.236L41.0059 23.8079C40.7181 24.4155 40.5856 25.0809 40.5856 25.784H41.5856H42.5856C42.5856 25.3351 42.6692 24.9685 42.8134 24.6641L41.9096 24.236ZM41.5856 25.784H40.5856C40.5856 26.3914 40.7646 26.983 41.0607 27.5457L41.9456 27.08L42.8306 26.6143C42.6467 26.265 42.5856 25.9926 42.5856 25.784H41.5856ZM41.9456 27.08L41.0607 27.5457C41.3553 28.1054 41.7563 28.6288 42.2465 29.1191L42.9536 28.412L43.6607 27.7049C43.287 27.3312 43.016 26.9666 42.8306 26.6143L41.9456 27.08ZM42.9536 28.412L42.2868 29.1572C42.8048 29.6207 43.3856 30.0248 44.0254 30.3713L44.5016 29.492L44.9779 28.6127C44.4656 28.3352 44.0144 28.0193 43.6204 27.6668L42.9536 28.412ZM44.5016 29.492L44.1436 28.5583L39.3556 30.3943L39.7136 31.328L40.0717 32.2617L44.8597 30.4257L44.5016 29.492ZM39.7136 31.328L40.4041 30.6046C39.8928 30.1166 39.4053 29.6175 38.9416 29.1073L38.2016 29.78L37.4617 30.4527C37.9579 30.9985 38.4785 31.5314 39.0232 32.0514L39.7136 31.328ZM38.2016 29.78L38.9726 29.1431C38.5728 28.6592 38.234 28.1202 37.9567 27.5229L37.0496 27.944L36.1426 28.3651C36.4893 29.1118 36.9184 29.7968 37.4307 30.4169L38.2016 29.78ZM37.0496 27.944L37.9688 27.5501C37.7415 27.0197 37.6176 26.4006 37.6176 25.676H36.6176H35.6176C35.6176 26.6314 35.7818 27.5243 36.1305 28.3379L37.0496 27.944ZM36.6176 25.676H37.6176C37.6176 24.7063 37.8065 23.8305 38.1736 23.0351L37.2656 22.616L36.3577 22.1969C35.8608 23.2735 35.6176 24.4377 35.6176 25.676H36.6176ZM37.2656 22.616L38.1689 23.0451C38.5781 22.1837 39.101 21.4388 39.7367 20.8031L39.0296 20.096L38.3225 19.3889C37.5182 20.1932 36.8652 21.1283 36.3624 22.1869L37.2656 22.616ZM39.0296 20.096L39.7251 20.8146C40.3928 20.1684 41.1006 19.6859 41.8478 19.3538L41.4416 18.44L41.0355 17.5262C40.0547 17.9621 39.1545 18.5836 38.3342 19.3774L39.0296 20.096ZM41.4416 18.44L41.8591 19.3487C42.6334 18.9929 43.3676 18.828 44.0696 18.828V17.828V16.828C43.0437 16.828 42.0259 17.0711 41.0241 17.5313L41.4416 18.44ZM44.0696 17.828V18.828C45.2723 18.828 46.2915 19.1456 47.1657 19.7615L47.7416 18.944L48.3176 18.1265C47.0797 17.2544 45.651 16.828 44.0696 16.828V17.828ZM47.7416 18.944L47.1783 19.7702C48.0958 20.3958 48.8136 21.2057 49.3387 22.2139L50.2256 21.752L51.1126 21.2901C50.4377 19.9943 49.4995 18.9322 48.305 18.1178L47.7416 18.944ZM50.2256 21.752L49.3464 22.2283C49.8936 23.2386 50.1616 24.2874 50.1616 25.388H51.1616H52.1616C52.1616 23.9446 51.8057 22.5694 51.1049 21.2757L50.2256 21.752ZM51.1616 25.388H50.1616C50.1616 26.386 49.9712 27.241 49.6144 27.9745L50.5136 28.412L51.4129 28.8495C51.92 27.807 52.1616 26.646 52.1616 25.388H51.1616ZM50.5136 28.412L49.6144 27.9745C49.2394 28.7455 48.7297 29.4225 48.0794 30.0099L48.7496 30.752L49.4199 31.4941C50.2576 30.7375 50.9239 29.8545 51.4129 28.8495L50.5136 28.412ZM48.7496 30.752L48.0807 30.0087C47.4172 30.6058 46.6726 31.1401 45.844 31.6103L46.3376 32.48L46.8312 33.3497C47.7787 32.8119 48.6421 32.1942 49.4186 31.4953L48.7496 30.752ZM46.3376 32.48L45.8338 31.6162C45.0091 32.0973 44.1759 32.5079 43.3339 32.8493L43.7096 33.776L44.0853 34.7027C45.0194 34.3241 45.9381 33.8707 46.8415 33.3438L46.3376 32.48ZM43.7096 33.776L43.32 32.855C42.7784 33.0842 41.9829 33.3205 40.9052 33.5548L41.1176 34.532L41.3301 35.5092C42.4604 35.2635 43.3929 34.9958 44.0993 34.697L43.7096 33.776ZM41.1176 34.532L40.9007 33.5558C39.8612 33.7868 38.6475 33.9859 37.2558 34.151L37.3736 35.144L37.4915 36.137C38.9318 35.9661 40.2141 35.7572 41.3346 35.5082L41.1176 34.532ZM37.3736 35.144L37.237 34.1534C35.8718 34.3417 34.4327 34.4834 32.9193 34.5779L32.9816 35.576L33.044 36.5741C34.6025 36.4766 36.0914 36.3303 37.5103 36.1346L37.3736 35.144ZM32.9816 35.576L32.9038 34.579C31.3928 34.6971 29.9068 34.756 28.4456 34.756V35.756V36.756C29.9605 36.756 31.4985 36.6949 33.0595 36.573L32.9816 35.576ZM53.2856 35.18V34.18C51.9282 34.18 50.5958 34.1098 49.2882 33.9697L49.1816 34.964L49.0751 35.9583C50.4555 36.1062 51.8591 36.18 53.2856 36.18V35.18ZM49.1816 34.964L49.2882 33.9697C47.9839 33.8299 46.7818 33.6213 45.6802 33.3459L45.4376 34.316L45.1951 35.2861C46.3974 35.5867 47.6914 35.8101 49.0751 35.9583L49.1816 34.964ZM45.4376 34.316L45.685 33.3471C44.6071 33.0719 43.6892 32.7449 42.9225 32.3725L42.4856 33.272L42.0487 34.1715C42.9621 34.6151 44.0122 34.9841 45.1903 35.2849L45.4376 34.316ZM42.4856 33.272L43.3283 33.8104L45.8123 29.9224L44.9696 29.384L44.1269 28.8456L41.6429 32.7336L42.4856 33.272ZM44.9696 29.384L44.712 30.3502C45.4866 30.5568 46.373 30.7202 47.3656 30.8443L47.4896 29.852L47.6137 28.8597C46.6863 28.7438 45.8927 28.5952 45.2273 28.4178L44.9696 29.384ZM47.4896 29.852L47.3925 30.8473C48.3949 30.9451 49.4321 31.0182 50.5042 31.067L50.5496 30.068L50.5951 29.069C49.5551 29.0218 48.5524 28.9509 47.5867 28.8567L47.4896 29.852ZM50.5496 30.068L50.5052 31.067C51.5986 31.1156 52.6455 31.14 53.6456 31.14V30.14V29.14C52.6778 29.14 51.6607 29.1164 50.594 29.069L50.5496 30.068ZM53.6456 30.14V31.14C54.4051 31.14 54.6923 31.3391 54.8088 31.4847L55.5896 30.86L56.3705 30.2353C55.719 29.4209 54.7102 29.14 53.6456 29.14V30.14ZM55.5896 30.86L54.8444 31.5268C55.0657 31.7741 55.2016 32.1018 55.2016 32.588H56.2016H57.2016C57.2016 31.6822 56.9296 30.8579 56.3349 30.1932L55.5896 30.86ZM56.2016 32.588H55.2016C55.2016 33.0797 55.046 33.4454 54.7385 33.7529L55.4456 34.46L56.1527 35.1671C56.8533 34.4666 57.2016 33.5843 57.2016 32.588H56.2016ZM55.4456 34.46L54.756 33.7359C54.4945 33.9849 54.0554 34.18 53.2856 34.18V35.18V36.18C54.3879 36.18 55.3888 35.8951 56.1353 35.1841L55.4456 34.46ZM28.4456 35.756V34.756C25.9006 34.756 23.7836 34.5552 22.0787 34.1687L21.8576 35.144L21.6366 36.1193C23.5317 36.5488 25.8066 36.756 28.4456 36.756V35.756ZM21.8576 35.144L22.069 34.1666C20.3702 33.7993 19.0389 33.2829 18.0397 32.6451L17.5016 33.488L16.9636 34.3309C18.2204 35.1331 19.7931 35.7207 21.6463 36.1214L21.8576 35.144ZM17.5016 33.488L18.0605 32.6587C17.0682 31.99 16.3923 31.2458 15.9797 30.4401L15.0896 30.896L14.1996 31.3519C14.7949 32.5142 15.7271 33.498 16.9428 34.3173L17.5016 33.488ZM15.0896 30.896L15.9797 30.4401C15.5525 29.6062 15.3336 28.6838 15.3336 27.656H14.3336H13.3336C13.3336 28.9802 13.6187 30.2178 14.1996 31.3519L15.0896 30.896ZM14.3336 27.656H15.3336C15.3336 26.9403 15.3895 26.2239 15.5017 25.5064L14.5136 25.352L13.5256 25.1976C13.3977 26.0161 13.3336 26.8357 13.3336 27.656H14.3336ZM14.5136 25.352L15.4975 25.5309C15.6374 24.7616 15.8003 24.0173 15.9859 23.2979L15.0176 23.048L14.0494 22.7981C13.851 23.5667 13.6779 24.3584 13.5298 25.1731L14.5136 25.352ZM15.0176 23.048L15.978 23.3268C16.1947 22.5805 16.3876 21.9053 16.5566 21.3016L15.5936 21.032L14.6307 20.7624C14.4637 21.3587 14.2726 22.0275 14.0573 22.7692L15.0176 23.048ZM15.5936 21.032L15.3676 22.0061L19.8676 23.0501L20.0936 22.076L20.3196 21.1019L15.8196 20.0579L15.5936 21.032ZM20.0936 22.076L19.1175 21.8591C19.0227 22.2854 18.9159 22.7485 18.7968 23.2484L19.7696 23.48L20.7424 23.7116C20.8634 23.2035 20.9726 22.7306 21.0698 22.2929L20.0936 22.076ZM19.7696 23.48L18.7968 23.2484C18.6707 23.7781 18.5692 24.2979 18.4927 24.8077L19.4816 24.956L20.4706 25.1043C20.5381 24.6541 20.6286 24.1899 20.7424 23.7116L19.7696 23.48ZM19.4816 24.956L18.4939 24.8C18.4153 25.2977 18.3736 25.7706 18.3736 26.216H19.3736H20.3736C20.3736 25.8934 20.404 25.5263 20.4694 25.112L19.4816 24.956ZM19.3736 26.216H18.3736C18.3736 27.3642 18.7861 28.3907 19.5651 29.2595L20.3096 28.592L21.0542 27.9245C20.5852 27.4013 20.3736 26.8438 20.3736 26.216H19.3736ZM20.3096 28.592L19.5898 29.2861C20.4214 30.1485 21.6818 30.7388 23.2239 31.1433L23.4776 30.176L23.7314 29.2087C22.3455 28.8452 21.4939 28.3795 21.0295 27.8979L20.3096 28.592ZM23.4776 30.176L23.2389 31.1471C24.8146 31.5346 26.8734 31.716 29.3816 31.716V30.716V29.716C26.9459 29.716 25.0687 29.5374 23.7164 29.2049L23.4776 30.176ZM29.3816 30.716L28.3984 30.8981L29.1184 34.7861L30.1016 34.604L31.0849 34.4219L30.3649 30.5339L29.3816 30.716ZM30.1016 34.604L29.5306 33.7831L27.8746 34.9351L28.4456 35.756L29.0167 36.5769L30.6727 35.4249L30.1016 34.604ZM44.1056 14.48V13.48C43.6133 13.48 43.2261 13.3233 42.8881 13.0006L42.1976 13.724L41.5072 14.4474C42.2251 15.1327 43.11 15.48 44.1056 15.48V14.48ZM42.1976 13.724L42.9047 13.0169C42.5973 12.7094 42.4416 12.3437 42.4416 11.852H41.4416H40.4416C40.4416 12.8483 40.79 13.7306 41.4905 14.4311L42.1976 13.724ZM41.4416 11.852H42.4416C42.4416 11.3596 42.5983 10.9725 42.921 10.6345L42.1976 9.944L41.4743 9.25352C40.7889 9.9715 40.4416 10.8563 40.4416 11.852H41.4416ZM42.1976 9.944L42.9047 10.6511C43.246 10.3099 43.6279 10.152 44.1056 10.152V9.152V8.152C43.0953 8.152 42.2053 8.52212 41.4905 9.23689L42.1976 9.944ZM44.1056 9.152V10.152C44.5481 10.152 44.9 10.3011 45.2183 10.6345L45.9416 9.944L46.665 9.25352C45.9752 8.53093 45.1032 8.152 44.1056 8.152V9.152ZM45.9416 9.944L45.2345 10.6511C45.5758 10.9923 45.7336 11.3743 45.7336 11.852H46.7336H47.7336C47.7336 10.8417 47.3635 9.95166 46.6487 9.23689L45.9416 9.944ZM46.7336 11.852H45.7336C45.7336 12.3287 45.5772 12.6894 45.2512 13.0006L45.9416 13.724L46.6321 14.4474C47.3621 13.7506 47.7336 12.8633 47.7336 11.852H46.7336ZM45.9416 13.724L45.2345 13.0169C44.9202 13.3312 44.5635 13.48 44.1056 13.48V14.48V15.48C45.0878 15.48 45.9551 15.1248 46.6487 14.4311L45.9416 13.724ZM85.9101 34.856L85.702 35.8341L85.712 35.8362L85.722 35.8382L85.9101 34.856ZM82.8501 33.92L82.4532 34.8379L82.462 34.8416L82.8501 33.92ZM80.6541 32.624L79.921 31.9438L79.2036 32.717L80.0139 33.3922L80.6541 32.624ZM83.8941 29.132L84.2787 28.2089L83.6352 27.9408L83.161 28.4518L83.8941 29.132ZM86.5581 29.924L86.3769 30.9075L86.3895 30.9098L86.4021 30.9118L86.5581 29.924ZM91.7421 30.86L90.9612 31.4847L90.9784 31.5062L90.9968 31.5268L91.7421 30.86ZM91.5981 34.46L92.2877 35.1841L92.2966 35.1757L92.3052 35.1671L91.5981 34.46ZM66.3981 35.36L66.268 36.3515L66.2701 36.3518L66.3981 35.36ZM62.8341 34.532L62.4669 35.4622L62.4669 35.4622L62.8341 34.532ZM60.6741 33.236L61.3646 32.5126L61.3646 32.5126L60.6741 33.236ZM59.3781 31.58L59.1034 30.6185L57.888 30.9657L58.5056 32.0686L59.3781 31.58ZM60.3861 31.292L61.273 31.7539L62.3471 29.6917L60.1114 30.3305L60.3861 31.292ZM58.3341 33.848L58.9177 34.66L58.9177 34.66L58.3341 33.848ZM53.3301 35.18L52.3326 35.1088L52.2561 36.18H53.3301V35.18ZM53.6901 30.14V29.14H52.759L52.6926 30.0688L53.6901 30.14ZM55.4541 29.78L54.9684 28.9058L54.9684 28.9058L55.4541 29.78ZM56.4981 28.592L55.6115 28.1294L55.6034 28.1449L55.5959 28.1605L56.4981 28.592ZM57.2901 26.396L58.2572 26.6505L58.2572 26.6505L57.2901 26.396ZM58.1541 23.048L58.3912 22.0765L57.4292 21.8417L57.185 22.8013L58.1541 23.048ZM62.7261 24.164L63.6941 24.415L63.9486 23.4331L62.9632 23.1925L62.7261 24.164ZM62.2941 25.856L61.3239 25.6135L61.3182 25.6365L61.3135 25.6599L62.2941 25.856ZM62.0421 27.116L61.0615 26.9199L61.0561 26.9471L61.0521 26.9746L62.0421 27.116ZM62.2941 29.168L61.4366 29.6825L61.4445 29.6958L61.4529 29.7088L62.2941 29.168ZM63.5541 29.996L63.227 30.941L63.2434 30.9467L63.26 30.9518L63.5541 29.996ZM66.2901 30.464L66.1906 31.459L66.2012 31.4601L66.2119 31.4609L66.2901 30.464ZM76.2981 30.392L76.401 31.3867L76.4094 31.3858L76.4179 31.3848L76.2981 30.392ZM79.6101 29.708L79.9429 30.651L79.9506 30.6483L79.9583 30.6454L79.6101 29.708ZM81.4101 28.592L82.1783 29.2322L82.1868 29.222L82.195 29.2116L81.4101 28.592ZM81.6261 25.784L80.7213 26.2098L80.7367 26.2426L80.7545 26.2743L81.6261 25.784ZM80.6541 24.776L81.1551 23.9106L81.1551 23.9106L80.6541 24.776ZM76.2621 25.028L76.6891 25.9323L76.6995 25.9272L76.2621 25.028ZM73.7061 26.684L74.3308 27.4649L74.3375 27.4595L74.3441 27.454L73.7061 26.684ZM71.2941 28.952L70.556 28.2772L70.5507 28.2831L70.5455 28.289L71.2941 28.952ZM69.2781 31.472L69.1655 32.4656L69.7499 32.5319L70.0918 32.0532L69.2781 31.472ZM63.8781 30.86L63.0278 30.3336L62.1969 31.6759L63.7655 31.8536L63.8781 30.86ZM67.0461 26.504L66.2822 25.8586L66.2822 25.8586L67.0461 26.504ZM70.8261 22.832L71.4439 23.6184L71.4525 23.6115L70.8261 22.832ZM75.0021 20.276L75.3997 21.1936L75.3997 21.1936L75.0021 20.276ZM83.4981 20.276L83.9821 19.401L83.9821 19.401L83.4981 20.276ZM86.0901 22.868L85.2115 23.3455L85.2115 23.3455L86.0901 22.868ZM85.4781 31.328L84.678 30.728L84.6712 30.7373L85.4781 31.328ZM80.6901 34.496L80.3616 33.5515L80.3583 33.5526L80.6901 34.496ZM89.4381 35.18V34.18C88.2731 34.18 87.1603 34.0772 86.0982 33.8738L85.9101 34.856L85.722 35.8382C86.9159 36.0668 88.1551 36.18 89.4381 36.18V35.18ZM85.9101 34.856L86.1182 33.8779C85.042 33.6489 84.0835 33.3543 83.2381 32.9984L82.8501 33.92L82.462 34.8416C83.4407 35.2537 84.5222 35.5831 85.702 35.8341L85.9101 34.856ZM82.8501 33.92L83.247 33.0021C82.4228 32.6457 81.779 32.2597 81.2943 31.8558L80.6541 32.624L80.0139 33.3922C80.6811 33.9483 81.5014 34.4263 82.4532 34.8379L82.8501 33.92ZM80.6541 32.624L81.3871 33.3042L84.6271 29.8122L83.8941 29.132L83.161 28.4518L79.921 31.9438L80.6541 32.624ZM83.8941 29.132L83.5095 30.0551C84.4383 30.4421 85.3945 30.7265 86.3769 30.9075L86.5581 29.924L86.7392 28.9405C85.8977 28.7855 85.0778 28.5419 84.2787 28.2089L83.8941 29.132ZM86.5581 29.924L86.4021 30.9118C87.38 31.0662 88.5147 31.14 89.7981 31.14V30.14V29.14C88.5854 29.14 87.5601 29.0698 86.714 28.9362L86.5581 29.924ZM89.7981 30.14V31.14C90.5575 31.14 90.8447 31.3391 90.9612 31.4847L91.7421 30.86L92.5229 30.2353C91.8714 29.4209 90.8626 29.14 89.7981 29.14V30.14ZM91.7421 30.86L90.9968 31.5268C91.2182 31.7741 91.3541 32.1018 91.3541 32.588H92.3541H93.3541C93.3541 31.6822 93.082 30.8579 92.4873 30.1932L91.7421 30.86ZM92.3541 32.588H91.3541C91.3541 33.0797 91.1985 33.4454 90.891 33.7529L91.5981 34.46L92.3052 35.1671C93.0057 34.4666 93.3541 33.5843 93.3541 32.588H92.3541ZM91.5981 34.46L90.9084 33.7359C90.6469 33.9849 90.2078 34.18 89.4381 34.18V35.18V36.18C90.5403 36.18 91.5412 35.8951 92.2877 35.1841L91.5981 34.46ZM71.9781 35.648V34.648C69.7704 34.648 67.9566 34.5528 66.526 34.3682L66.3981 35.36L66.2701 36.3518C67.8156 36.5512 69.7218 36.648 71.9781 36.648V35.648ZM66.3981 35.36L66.5281 34.3685C65.1088 34.1824 64.009 33.9207 63.2012 33.6018L62.8341 34.532L62.4669 35.4622C63.4831 35.8633 64.7593 36.1536 66.268 36.3515L66.3981 35.36ZM62.8341 34.532L63.2012 33.6018C62.3705 33.2739 61.7731 32.9026 61.3646 32.5126L60.6741 33.236L59.9836 33.9594C60.6311 34.5774 61.4736 35.0701 62.4669 35.4622L62.8341 34.532ZM60.6741 33.236L61.3646 32.5126C60.9041 32.0732 60.535 31.5993 60.2506 31.0914L59.3781 31.58L58.5056 32.0686C58.8931 32.7607 59.388 33.3908 59.9836 33.9594L60.6741 33.236ZM59.3781 31.58L59.6528 32.5415L60.6608 32.2535L60.3861 31.292L60.1114 30.3305L59.1034 30.6185L59.3781 31.58ZM60.3861 31.292L59.4992 30.8301C58.9459 31.8923 58.353 32.6029 57.7504 33.036L58.3341 33.848L58.9177 34.66C59.8512 33.9891 60.6262 32.9957 61.273 31.7539L60.3861 31.292ZM58.3341 33.848L57.7504 33.036C57.086 33.5136 56.4123 33.8102 55.726 33.9474L55.9221 34.928L56.1182 35.9086C57.1119 35.7098 58.0462 35.2864 58.9177 34.66L58.3341 33.848ZM55.9221 34.928L55.726 33.9474C54.9529 34.102 54.1546 34.18 53.3301 34.18V35.18V36.18C54.2815 36.18 55.2113 36.09 56.1182 35.9086L55.9221 34.928ZM53.3301 35.18L54.3275 35.2512L54.6875 30.2112L53.6901 30.14L52.6926 30.0688L52.3326 35.1088L53.3301 35.18ZM53.6901 30.14V31.14C54.5249 31.14 55.3026 31.0081 55.9397 30.6542L55.4541 29.78L54.9684 28.9058C54.7415 29.0319 54.3433 29.14 53.6901 29.14V30.14ZM55.4541 29.78L55.9397 30.6542C56.5924 30.2915 57.0683 29.7176 57.4002 29.0235L56.4981 28.592L55.5959 28.1605C55.3999 28.5704 55.1797 28.7885 54.9684 28.9058L55.4541 29.78ZM56.4981 28.592L57.3847 29.0546C57.72 28.4119 58.0068 27.6018 58.2572 26.6505L57.2901 26.396L56.323 26.1415C56.0933 27.0142 55.8522 27.6681 55.6115 28.1294L56.4981 28.592ZM57.2901 26.396L58.2572 26.6505C58.4981 25.735 58.7868 24.6163 59.1232 23.2947L58.1541 23.048L57.185 22.8013C56.8494 24.1197 56.5621 25.233 56.323 26.1415L57.2901 26.396ZM58.1541 23.048L57.9169 24.0195L62.4889 25.1355L62.7261 24.164L62.9632 23.1925L58.3912 22.0765L58.1541 23.048ZM62.7261 24.164L61.7581 23.913C61.5896 24.5629 61.4448 25.1299 61.3239 25.6135L62.2941 25.856L63.2642 26.0985C63.3833 25.6221 63.5266 25.0611 63.6941 24.415L62.7261 24.164ZM62.2941 25.856L61.3135 25.6599C61.2175 26.1399 61.1335 26.5599 61.0615 26.9199L62.0421 27.116L63.0227 27.3121C63.0947 26.9521 63.1787 26.5321 63.2747 26.0521L62.2941 25.856ZM62.0421 27.116L61.0521 26.9746C61.0008 27.3342 60.9701 27.6619 60.9701 27.944H61.9701H62.9701C62.9701 27.7941 62.9874 27.5698 63.032 27.2574L62.0421 27.116ZM61.9701 27.944H60.9701C60.9701 28.5651 61.1194 29.1538 61.4366 29.6825L62.2941 29.168L63.1516 28.6535C63.0368 28.4622 62.9701 28.2349 62.9701 27.944H61.9701ZM62.2941 29.168L61.4529 29.7088C61.8469 30.3217 62.5182 30.6956 63.227 30.941L63.5541 29.996L63.8812 29.051C63.3419 28.8644 63.1733 28.6863 63.1353 28.6272L62.2941 29.168ZM63.5541 29.996L63.26 30.9518C63.9797 31.1732 64.97 31.337 66.1906 31.459L66.2901 30.464L66.3896 29.469C65.2101 29.351 64.3764 29.2028 63.8482 29.0402L63.5541 29.996ZM66.2901 30.464L66.2119 31.4609C67.4726 31.5598 69.0975 31.608 71.0781 31.608V30.608V29.608C69.1227 29.608 67.5556 29.5602 66.3683 29.4671L66.2901 30.464ZM71.0781 30.608V31.608C73.1855 31.608 74.9626 31.5355 76.401 31.3867L76.2981 30.392L76.1952 29.3973C74.8496 29.5365 73.1467 29.608 71.0781 29.608V30.608ZM76.2981 30.392L76.4179 31.3848C77.8437 31.2127 79.0289 30.9736 79.9429 30.651L79.6101 29.708L79.2773 28.765C78.5593 29.0184 77.5364 29.2353 76.1783 29.3992L76.2981 30.392ZM79.6101 29.708L79.9583 30.6454C80.8742 30.3052 81.659 29.8553 82.1783 29.2322L81.4101 28.592L80.6419 27.9518C80.4411 28.1927 80.026 28.4868 79.2619 28.7706L79.6101 29.708ZM81.4101 28.592L82.195 29.2116C82.693 28.5808 82.9501 27.847 82.9501 27.044H81.9501H80.9501C80.9501 27.393 80.8472 27.6912 80.6252 27.9724L81.4101 28.592ZM81.9501 27.044H82.9501C82.9501 26.4225 82.8009 25.8328 82.4977 25.2937L81.6261 25.784L80.7545 26.2743C80.8833 26.5032 80.9501 26.7535 80.9501 27.044H81.9501ZM81.6261 25.784L82.5309 25.3582C82.2383 24.7365 81.7568 24.2589 81.1551 23.9106L80.6541 24.776L80.153 25.6414C80.4633 25.8211 80.6298 26.0155 80.7213 26.2098L81.6261 25.784ZM80.6541 24.776L81.1551 23.9106C80.501 23.5319 79.7242 23.38 78.8901 23.38V24.38V25.38C79.4959 25.38 79.8951 25.4921 80.153 25.6414L80.6541 24.776ZM78.8901 24.38V23.38C77.8542 23.38 76.8294 23.64 75.8246 24.1288L76.2621 25.028L76.6995 25.9272C77.4708 25.552 78.198 25.38 78.8901 25.38V24.38ZM76.2621 25.028L75.8351 24.1238C74.8856 24.5721 73.9636 25.172 73.0681 25.914L73.7061 26.684L74.3441 27.454C75.1286 26.804 75.9106 26.2999 76.6891 25.9322L76.2621 25.028ZM73.7061 26.684L73.0814 25.9031C72.1987 26.6093 71.357 27.4012 70.556 28.2772L71.2941 28.952L72.0321 29.6268C72.7671 28.8228 73.5335 28.1027 74.3308 27.4649L73.7061 26.684ZM71.2941 28.952L70.5455 28.289C69.7803 29.1528 69.0863 30.0201 68.4643 30.8908L69.2781 31.472L70.0918 32.0532C70.6699 31.2439 71.3198 30.4312 72.0427 29.615L71.2941 28.952ZM69.2781 31.472L69.3907 30.4784L63.9907 29.8664L63.8781 30.86L63.7655 31.8536L69.1655 32.4656L69.2781 31.472ZM63.8781 30.86L64.7283 31.3864C65.6379 29.9171 66.6649 28.5048 67.81 27.1494L67.0461 26.504L66.2822 25.8586C65.0753 27.2872 63.9903 28.7789 63.0278 30.3336L63.8781 30.86ZM67.0461 26.504L67.81 27.1494C68.9451 25.8058 70.1566 24.6297 71.4439 23.6183L70.8261 22.832L70.2083 22.0457C68.8075 23.1463 67.4991 24.4182 66.2822 25.8586L67.0461 26.504ZM70.8261 22.832L71.4525 23.6115C72.7335 22.5821 74.0494 21.7787 75.3997 21.1936L75.0021 20.276L74.6045 19.3584C73.0747 20.0213 71.6066 20.9219 70.1997 22.0525L70.8261 22.832ZM75.0021 20.276L75.3997 21.1936C76.7212 20.6209 78.0503 20.34 79.3941 20.34V19.34V18.34C77.7619 18.34 76.163 18.6831 74.6045 19.3584L75.0021 20.276ZM79.3941 19.34V20.34C80.874 20.34 82.0665 20.6269 83.014 21.151L83.4981 20.276L83.9821 19.401C82.6736 18.6771 81.1301 18.34 79.3941 18.34V19.34ZM83.4981 20.276L83.014 21.151C83.9799 21.6853 84.7049 22.4134 85.2115 23.3455L86.0901 22.868L86.9687 22.3905C86.2753 21.1146 85.2723 20.1147 83.9821 19.401L83.4981 20.276ZM86.0901 22.868L85.2115 23.3455C85.7208 24.2828 85.9901 25.3862 85.9901 26.684H86.9901H87.9901C87.9901 25.1018 87.6593 23.6612 86.9687 22.3905L86.0901 22.868ZM86.9901 26.684H85.9901C85.9901 28.2296 85.5504 29.5649 84.6781 30.728L85.4781 31.328L86.2781 31.928C87.4217 30.4031 87.9901 28.6424 87.9901 26.684H86.9901ZM85.4781 31.328L84.6712 30.7373C83.8466 31.8636 82.4526 32.8242 80.3616 33.5515L80.6901 34.496L81.0186 35.4405C83.3436 34.6318 85.1416 33.4804 86.2849 31.9187L85.4781 31.328ZM80.6901 34.496L80.3583 33.5526C78.3236 34.2681 75.5455 34.648 71.9781 34.648V35.648V36.648C75.6586 36.648 78.6885 36.2599 81.0218 35.4394L80.6901 34.496ZM89.4707 35.18L88.4732 35.1088L88.3967 36.18H89.4707V35.18ZM89.8307 30.14V29.14H88.8996L88.8332 30.0688L89.8307 30.14ZM91.9907 29.888L91.6995 28.9312L91.6875 28.9351L91.9907 29.888ZM93.2867 28.88L92.443 28.3431L92.4364 28.3536L93.2867 28.88ZM94.1147 26.576L93.1419 26.3444L93.1393 26.3554L93.1369 26.3665L94.1147 26.576ZM94.8347 22.544L95.0003 21.5578L93.9897 21.3881L93.8448 22.4026L94.8347 22.544ZM99.5507 23.336L100.542 23.4682L100.67 22.5099L99.7163 22.3498L99.5507 23.336ZM99.3347 24.596L98.3541 24.3999L98.3494 24.4237L98.3458 24.4477L99.3347 24.596ZM99.1187 26.072L98.1288 25.9306L98.1258 25.9515L98.1237 25.9725L99.1187 26.072ZM99.4067 28.916L98.5448 29.423L98.5627 29.4534L98.5827 29.4825L99.4067 28.916ZM100.775 29.816L100.458 30.7647L100.469 30.768L100.775 29.816ZM105.599 30.86L104.818 31.4847L104.826 31.4945L104.834 31.5041L105.599 30.86ZM105.419 34.46L106.126 35.1671L106.126 35.1671L105.419 34.46ZM99.2627 34.712L98.9733 35.6692L98.9733 35.6692L99.2627 34.712ZM96.9587 33.128L96.1308 33.6888L96.1308 33.6888L96.9587 33.128ZM95.9867 30.068V29.068H94.8694L94.9928 30.1784L95.9867 30.068ZM97.7147 30.068L98.651 30.4191L99.1577 29.068H97.7147V30.068ZM96.2027 32.84L96.962 33.4908L96.9676 33.4842L96.9731 33.4776L96.2027 32.84ZM94.2587 34.352L93.8358 33.4458L93.8358 33.4458L94.2587 34.352ZM91.9547 35L91.8379 34.0068L91.8213 34.0088L91.8049 34.0113L91.9547 35ZM94.9067 18.116L94.1996 18.8231L94.2078 18.8313L94.2162 18.8394L94.9067 18.116ZM94.9067 14.336L94.1996 13.6289L94.1914 13.6371L94.1833 13.6455L94.9067 14.336ZM98.6507 14.336L97.9273 15.0265L97.9354 15.0349L97.9436 15.0431L98.6507 14.336ZM98.6507 18.116L97.9602 17.3926L97.9518 17.4007L97.9436 17.4089L98.6507 18.116ZM89.4707 35.18L90.4682 35.2512L90.8282 30.2112L89.8307 30.14L88.8332 30.0688L88.4732 35.1088L89.4707 35.18ZM89.8307 30.14V31.14C90.7882 31.14 91.6251 31.0537 92.2939 30.8409L91.9907 29.888L91.6875 28.9351C91.3003 29.0583 90.6972 29.14 89.8307 29.14V30.14ZM91.9907 29.888L92.2819 30.8447C93.0732 30.6038 93.7009 30.1108 94.137 29.4064L93.2867 28.88L92.4364 28.3536C92.2485 28.6572 92.0122 28.8362 91.6995 28.9313L91.9907 29.888ZM93.2867 28.88L94.1304 29.4169C94.5582 28.7446 94.8656 27.8445 95.0925 26.7855L94.1147 26.576L93.1369 26.3665C92.9318 27.3235 92.6872 27.9594 92.443 28.3431L93.2867 28.88ZM94.1147 26.576L95.0875 26.8076C95.3376 25.7571 95.5827 24.3793 95.8247 22.6854L94.8347 22.544L93.8448 22.4026C93.6067 24.0687 93.3718 25.3788 93.1419 26.3444L94.1147 26.576ZM94.8347 22.544L94.6691 23.5302L99.3851 24.3222L99.5507 23.336L99.7163 22.3498L95.0003 21.5578L94.8347 22.544ZM99.5507 23.336L98.5595 23.2038C98.5151 23.5365 98.4472 23.9343 98.3541 24.3999L99.3347 24.596L100.315 24.7921C100.414 24.2977 100.49 23.8555 100.542 23.4682L99.5507 23.336ZM99.3347 24.596L98.3458 24.4477C98.2734 24.9301 98.2011 25.4244 98.1288 25.9306L99.1187 26.072L100.109 26.2134C100.18 25.7116 100.252 25.2219 100.324 24.7443L99.3347 24.596ZM99.1187 26.072L98.1237 25.9725C98.0727 26.4818 98.0467 26.9712 98.0467 27.44H99.0467H100.047C100.047 27.0448 100.069 26.6222 100.114 26.1715L99.1187 26.072ZM99.0467 27.44H98.0467C98.0467 28.1557 98.1966 28.8312 98.5448 29.423L99.4067 28.916L100.269 28.409C100.137 28.1848 100.047 27.8763 100.047 27.44H99.0467ZM99.4067 28.916L98.5827 29.4825C99.0155 30.1121 99.6964 30.5107 100.458 30.7647L100.775 29.816L101.091 28.8673C100.557 28.6893 100.326 28.4879 100.231 28.3495L99.4067 28.916ZM100.775 29.816L100.469 30.768C101.288 31.0313 102.37 31.14 103.655 31.14V30.14V29.14C102.444 29.14 101.606 29.0327 101.081 28.864L100.775 29.816ZM103.655 30.14V31.14C104.414 31.14 104.701 31.3391 104.818 31.4847L105.599 30.86L106.38 30.2353C105.728 29.4209 104.719 29.14 103.655 29.14V30.14ZM105.599 30.86L104.834 31.5041C105.041 31.7504 105.175 32.0861 105.175 32.588H106.175H107.175C107.175 31.6979 106.924 30.8816 106.364 30.2159L105.599 30.86ZM106.175 32.588H105.175C105.175 33.0797 105.019 33.4454 104.712 33.7529L105.419 34.46L106.126 35.1671C106.826 34.4666 107.175 33.5843 107.175 32.588H106.175ZM105.419 34.46L104.712 33.7529C104.481 33.9835 104.068 34.18 103.295 34.18V35.18V36.18C104.393 36.18 105.396 35.8965 106.126 35.1671L105.419 34.46ZM103.295 35.18V34.18C101.69 34.18 100.454 34.0275 99.5521 33.7548L99.2627 34.712L98.9733 35.6692C100.135 36.0205 101.587 36.18 103.295 36.18V35.18ZM99.2627 34.712L99.5521 33.7548C98.6942 33.4954 98.1375 33.0852 97.7866 32.5672L96.9587 33.128L96.1308 33.6888C96.7879 34.6588 97.7672 35.3046 98.9733 35.6692L99.2627 34.712ZM96.9587 33.128L97.7866 32.5672C97.4055 32.0045 97.1142 31.1599 96.9806 29.9576L95.9867 30.068L94.9928 30.1784C95.1472 31.5681 95.5039 32.7635 96.1308 33.6888L96.9587 33.128ZM95.9867 30.068V31.068H97.7147V30.068V29.068H95.9867V30.068ZM97.7147 30.068L96.7784 29.7169C96.3723 30.7999 95.917 31.6168 95.4323 32.2024L96.2027 32.84L96.9731 33.4776C97.6404 32.6712 98.1932 31.6401 98.651 30.4191L97.7147 30.068ZM96.2027 32.84L95.4434 32.1892C94.9495 32.7655 94.4128 33.1766 93.8358 33.4458L94.2587 34.352L94.6816 35.2582C95.5446 34.8554 96.3039 34.2585 96.962 33.4908L96.2027 32.84ZM94.2587 34.352L93.8358 33.4458C93.2158 33.7352 92.5515 33.9229 91.8379 34.0068L91.9547 35L92.0715 35.9932C92.9899 35.8851 93.8616 35.6408 94.6816 35.2582L94.2587 34.352ZM91.9547 35L91.8049 34.0113C91.0662 34.1232 90.2884 34.18 89.4707 34.18V35.18V36.18C90.381 36.18 91.2592 36.1168 92.1045 35.9887L91.9547 35ZM96.8147 18.872V17.872C96.3224 17.872 95.9352 17.7153 95.5972 17.3926L94.9067 18.116L94.2162 18.8394C94.9342 19.5247 95.8191 19.872 96.8147 19.872V18.872ZM94.9067 18.116L95.6138 17.4089C95.3063 17.1014 95.1507 16.7357 95.1507 16.244H94.1507H93.1507C93.1507 17.2403 93.4991 18.1226 94.1996 18.8231L94.9067 18.116ZM94.1507 16.244H95.1507C95.1507 15.7516 95.3074 15.3645 95.6301 15.0265L94.9067 14.336L94.1833 13.6455C93.498 14.3635 93.1507 15.2483 93.1507 16.244H94.1507ZM94.9067 14.336L95.6138 15.0431C95.955 14.7019 96.337 14.544 96.8147 14.544V13.544V12.544C95.8044 12.544 94.9144 12.9141 94.1996 13.6289L94.9067 14.336ZM96.8147 13.544V14.544C97.2572 14.544 97.6091 14.6931 97.9273 15.0265L98.6507 14.336L99.3741 13.6455C98.6843 12.9229 97.8122 12.544 96.8147 12.544V13.544ZM98.6507 14.336L97.9436 15.0431C98.2848 15.3843 98.4427 15.7663 98.4427 16.244H99.4427H100.443C100.443 15.2337 100.073 14.3437 99.3578 13.6289L98.6507 14.336ZM99.4427 16.244H98.4427C98.4427 16.7207 98.2863 17.0814 97.9602 17.3926L98.6507 18.116L99.3412 18.8394C100.071 18.1426 100.443 17.2553 100.443 16.244H99.4427ZM98.6507 18.116L97.9436 17.4089C97.6293 17.7232 97.2725 17.872 96.8147 17.872V18.872V19.872C97.7969 19.872 98.6641 19.5168 99.3578 18.8231L98.6507 18.116ZM103.287 35.18L102.29 35.1088L102.213 36.18H103.287V35.18ZM103.647 30.14V29.14H102.716L102.65 30.0688L103.647 30.14ZM106.023 29.816L106.433 30.7279L106.452 30.7195L106.47 30.7104L106.023 29.816ZM106.887 28.52L107.875 28.6721L107.876 28.6665L106.887 28.52ZM106.959 25.712L105.96 25.7499L105.96 25.7512L106.959 25.712ZM106.311 8.648V7.648H105.272L105.312 8.68595L106.311 8.648ZM111.387 8.648L112.386 8.60671L112.347 7.648H111.387V8.648ZM112.107 26.072L113.107 26.0375L113.106 26.0307L112.107 26.072ZM111.927 29.852L110.938 29.7047L110.937 29.7137L110.936 29.7227L111.927 29.852ZM110.811 32.696L110.014 32.0921L110.008 32.0999L110.002 32.1078L110.811 32.696ZM108.111 34.532L107.778 33.589L107.772 33.5911L108.111 34.532ZM103.287 35.18L104.285 35.2512L104.645 30.2112L103.647 30.14L102.65 30.0688L102.29 35.1088L103.287 35.18ZM103.647 30.14V31.14C104.771 31.14 105.747 31.0369 106.433 30.7279L106.023 29.816L105.613 28.9041C105.339 29.0271 104.731 29.14 103.647 29.14V30.14ZM106.023 29.816L106.47 30.7104C107.294 30.2984 107.74 29.552 107.875 28.6721L106.887 28.52L105.899 28.3679C105.842 28.736 105.712 28.8536 105.576 28.9216L106.023 29.816ZM106.887 28.52L107.876 28.6665C107.986 27.9253 108.007 26.9153 107.958 25.6728L106.959 25.712L105.96 25.7512C106.007 26.9567 105.98 27.8187 105.898 28.3735L106.887 28.52ZM106.959 25.712L107.958 25.6741L107.31 8.61005L106.311 8.648L105.312 8.68595L105.96 25.7499L106.959 25.712ZM106.311 8.648V9.648H111.387V8.648V7.648H106.311V8.648ZM111.387 8.648L110.388 8.68929L111.108 26.1133L112.107 26.072L113.106 26.0307L112.386 8.60671L111.387 8.648ZM112.107 26.072L111.108 26.1065C111.154 27.4505 111.095 28.6483 110.938 29.7047L111.927 29.852L112.916 29.9993C113.095 28.7997 113.156 27.4775 113.107 26.0375L112.107 26.072ZM111.927 29.852L110.936 29.7227C110.811 30.6755 110.497 31.4548 110.014 32.0921L110.811 32.696L111.608 33.2999C112.325 32.3532 112.755 31.2365 112.919 29.9813L111.927 29.852ZM110.811 32.696L110.002 32.1078C109.579 32.6905 108.873 33.2028 107.778 33.589L108.111 34.532L108.444 35.475C109.798 34.9972 110.892 34.2855 111.62 33.2842L110.811 32.696ZM108.111 34.532L107.772 33.5911C106.725 33.968 105.247 34.18 103.287 34.18V35.18V36.18C105.36 36.18 107.097 35.96 108.45 35.4729L108.111 34.532ZM116.855 35L115.855 35.0287L115.883 36H116.855V35ZM116.099 8.648V7.648H115.07L115.099 8.67667L116.099 8.648ZM121.139 8.648L122.138 8.61932L122.11 7.648H121.139V8.648ZM121.895 35V36H122.924L122.894 34.9713L121.895 35ZM116.855 35L117.854 34.9713L117.098 8.61932L116.099 8.648L115.099 8.67667L115.855 35.0287L116.855 35ZM116.099 8.648V9.648H121.139V8.648V7.648H116.099V8.648ZM121.139 8.648L120.139 8.67667L120.895 35.0287L121.895 35L122.894 34.9713L122.138 8.61932L121.139 8.648ZM121.895 35V34H116.855V35V36H121.895V35Z" fill="#619D68" mask="url(#path-3-outside-1_67_29)"/>
</svg>
