<svg viewBox="800 960 3380 3320" xmlns:xlink="http://www.w3.org/1999/xlink" xmlns="http://www.w3.org/2000/svg" style="max-height: 500px" width="3380" height="3320">
<defs>
<radialGradient gradientTransform="matrix(1, 0, 0, 1, 2500, 2500)" r="2500" fy="0" fx="0" cy="0" cx="0" gradientUnits="userSpaceOnUse" id="radial-pattern-0">
<stop stop-opacity="1" stop-color="rgb(100%, 100%, 100%)" offset="0"/>
<stop stop-opacity="1" stop-color="rgb(100%, 100%, 100%)" offset="0.25"/>
<stop stop-opacity="1" stop-color="rgb(100%, 100%, 100%)" offset="0.34375"/>
<stop stop-opacity="1" stop-color="rgb(99.993896%, 99.917603%, 99.815369%)" offset="0.382812"/>
<stop stop-opacity="1" stop-color="rgb(99.975586%, 99.653625%, 99.229431%)" offset="0.417969"/>
<stop stop-opacity="1" stop-color="rgb(99.945068%, 99.28894%, 98.423767%)" offset="0.421875"/>
<stop stop-opacity="1" stop-color="rgb(99.832153%, 98.898315%, 97.613525%)" offset="0.425781"/>
<stop stop-opacity="1" stop-color="rgb(99.641418%, 98.483276%, 96.80481%)" offset="0.429688"/>
<stop stop-opacity="1" stop-color="rgb(99.516296%, 98.147583%, 96.026611%)" offset="0.433594"/>
<stop stop-opacity="1" stop-color="rgb(99.478149%, 97.920227%, 95.289612%)" offset="0.4375"/>
<stop stop-opacity="1" stop-color="rgb(99.462891%, 97.697449%, 94.555664%)" offset="0.441406"/>
<stop stop-opacity="1" stop-color="rgb(99.443054%, 97.393799%, 93.788147%)" offset="0.445312"/>
<stop stop-opacity="1" stop-color="rgb(99.41864%, 97.035217%, 92.997742%)" offset="0.449219"/>
<stop stop-opacity="1" stop-color="rgb(99.316406%, 96.652222%, 92.208862%)" offset="0.453125"/>
<stop stop-opacity="1" stop-color="rgb(99.131775%, 96.247864%, 91.419983%)" offset="0.457031"/>
<stop stop-opacity="1" stop-color="rgb(98.99292%, 95.857239%, 90.635681%)" offset="0.460938"/>
<stop stop-opacity="1" stop-color="rgb(98.934937%, 95.491028%, 89.857483%)" offset="0.464844"/>
<stop stop-opacity="1" stop-color="rgb(98.910522%, 95.13855%, 89.082336%)" offset="0.46875"/>
<stop stop-opacity="1" stop-color="rgb(98.887634%, 94.784546%, 88.308716%)" offset="0.472656"/>
<stop stop-opacity="1" stop-color="rgb(98.86322%, 94.432068%, 87.539673%)" offset="0.476562"/>
<stop stop-opacity="1" stop-color="rgb(98.771667%, 94.061279%, 86.77063%)" offset="0.480469"/>
<stop stop-opacity="1" stop-color="rgb(98.597717%, 93.664551%, 86.004639%)" offset="0.484375"/>
<stop stop-opacity="1" stop-color="rgb(98.452759%, 93.31665%, 85.255432%)" offset="0.488281"/>
<stop stop-opacity="1" stop-color="rgb(98.394775%, 93.07251%, 84.541321%)" offset="0.492188"/>
<stop stop-opacity="1" stop-color="rgb(98.382568%, 92.877197%, 83.842468%)" offset="0.496094"/>
<stop stop-opacity="1" stop-color="rgb(98.364258%, 92.601013%, 83.11615%)" offset="0.5"/>
<stop stop-opacity="1" stop-color="rgb(98.34137%, 92.254639%, 82.362366%)" offset="0.503906"/>
<stop stop-opacity="1" stop-color="rgb(98.258972%, 91.888428%, 81.555176%)" offset="0.507812"/>
<stop stop-opacity="1" stop-color="rgb(98.095703%, 91.496277%, 80.671692%)" offset="0.511719"/>
<stop stop-opacity="1" stop-color="rgb(97.940063%, 91.108704%, 79.801941%)" offset="0.515625"/>
<stop stop-opacity="1" stop-color="rgb(97.86377%, 90.748596%, 79.011536%)" offset="0.519531"/>
<stop stop-opacity="1" stop-color="rgb(97.840881%, 90.405273%, 78.27301%)" offset="0.523438"/>
<stop stop-opacity="1" stop-color="rgb(97.817993%, 90.063477%, 77.537537%)" offset="0.527344"/>
<stop stop-opacity="1" stop-color="rgb(97.795105%, 89.72168%, 76.805115%)" offset="0.53125"/>
<stop stop-opacity="1" stop-color="rgb(97.727966%, 89.414978%, 76.092529%)" offset="0.535156"/>
<stop stop-opacity="1" stop-color="rgb(97.584534%, 89.16626%, 75.410461%)" offset="0.539062"/>
<stop stop-opacity="1" stop-color="rgb(97.43042%, 88.928223%, 74.736023%)" offset="0.542969"/>
<stop stop-opacity="1" stop-color="rgb(97.351074%, 88.632202%, 74.034119%)" offset="0.546875"/>
<stop stop-opacity="1" stop-color="rgb(97.328186%, 88.294983%, 73.312378%)" offset="0.550781"/>
<stop stop-opacity="1" stop-color="rgb(97.305298%, 87.957764%, 72.595215%)" offset="0.554688"/>
<stop stop-opacity="1" stop-color="rgb(97.283936%, 87.620544%, 71.881104%)" offset="0.558594"/>
<stop stop-opacity="1" stop-color="rgb(97.2229%, 87.275696%, 71.168518%)" offset="0.5625"/>
<stop stop-opacity="1" stop-color="rgb(97.080994%, 86.907959%, 70.463562%)" offset="0.566406"/>
<stop stop-opacity="1" stop-color="rgb(96.907043%, 86.532593%, 69.761658%)" offset="0.570312"/>
<stop stop-opacity="1" stop-color="rgb(96.815491%, 86.180115%, 69.059753%)" offset="0.574219"/>
<stop stop-opacity="1" stop-color="rgb(96.792603%, 85.848999%, 68.359375%)" offset="0.578125"/>
<stop stop-opacity="1" stop-color="rgb(96.77124%, 85.516357%, 67.658997%)" offset="0.582031"/>
<stop stop-opacity="1" stop-color="rgb(96.749878%, 85.185242%, 66.963196%)" offset="0.585938"/>
<stop stop-opacity="1" stop-color="rgb(96.730042%, 84.884644%, 66.278076%)" offset="0.589844"/>
<stop stop-opacity="1" stop-color="rgb(96.716309%, 84.661865%, 65.615845%)" offset="0.59375"/>
<stop stop-opacity="1" stop-color="rgb(96.705627%, 84.489441%, 64.970398%)" offset="0.597656"/>
<stop stop-opacity="1" stop-color="rgb(96.609497%, 84.216309%, 64.309692%)" offset="0.601562"/>
<stop stop-opacity="1" stop-color="rgb(96.427917%, 83.848572%, 63.633728%)" offset="0.605469"/>
<stop stop-opacity="1" stop-color="rgb(96.298218%, 83.493042%, 62.95929%)" offset="0.609375"/>
<stop stop-opacity="1" stop-color="rgb(96.247864%, 83.1604%, 62.281799%)" offset="0.613281"/>
<stop stop-opacity="1" stop-color="rgb(96.226501%, 82.835388%, 61.604309%)" offset="0.617188"/>
<stop stop-opacity="1" stop-color="rgb(96.205139%, 82.510376%, 60.929871%)" offset="0.621094"/>
<stop stop-opacity="1" stop-color="rgb(96.183777%, 82.18689%, 60.258484%)" offset="0.625"/>
<stop stop-opacity="1" stop-color="rgb(96.092224%, 81.846619%, 59.594727%)" offset="0.628906"/>
<stop stop-opacity="1" stop-color="rgb(95.922852%, 81.488037%, 58.940125%)" offset="0.632812"/>
<stop stop-opacity="1" stop-color="rgb(95.785522%, 81.138611%, 58.285522%)" offset="0.636719"/>
<stop stop-opacity="1" stop-color="rgb(95.724487%, 80.809021%, 57.627869%)" offset="0.640625"/>
<stop stop-opacity="1" stop-color="rgb(95.704651%, 80.499268%, 56.971741%)" offset="0.644531"/>
<stop stop-opacity="1" stop-color="rgb(95.689392%, 80.26886%, 56.335449%)" offset="0.648438"/>
<stop stop-opacity="1" stop-color="rgb(95.680237%, 80.101013%, 55.717468%)" offset="0.652344"/>
<stop stop-opacity="1" stop-color="rgb(95.605469%, 79.862976%, 55.093384%)" offset="0.65625"/>
<stop stop-opacity="1" stop-color="rgb(95.448303%, 79.530334%, 54.460144%)" offset="0.660156"/>
<stop stop-opacity="1" stop-color="rgb(95.300293%, 79.18396%, 53.825378%)" offset="0.664062"/>
<stop stop-opacity="1" stop-color="rgb(95.233154%, 78.857422%, 53.186035%)" offset="0.667969"/>
<stop stop-opacity="1" stop-color="rgb(95.213318%, 78.543091%, 52.545166%)" offset="0.671875"/>
<stop stop-opacity="1" stop-color="rgb(95.191956%, 78.22876%, 51.907349%)" offset="0.675781"/>
<stop stop-opacity="1" stop-color="rgb(95.172119%, 77.914429%, 51.271057%)" offset="0.679688"/>
<stop stop-opacity="1" stop-color="rgb(95.101929%, 77.590942%, 50.642395%)" offset="0.683594"/>
<stop stop-opacity="1" stop-color="rgb(94.950867%, 77.249146%, 50.02594%)" offset="0.6875"/>
<stop stop-opacity="1" stop-color="rgb(94.799805%, 76.928711%, 49.415588%)" offset="0.691406"/>
<stop stop-opacity="1" stop-color="rgb(94.729614%, 76.702881%, 48.814392%)" offset="0.695312"/>
<stop stop-opacity="1" stop-color="rgb(94.720459%, 76.542664%, 48.219299%)" offset="0.699219"/>
<stop stop-opacity="1" stop-color="rgb(94.706726%, 76.315308%, 47.547913%)" offset="0.703125"/>
<stop stop-opacity="1" stop-color="rgb(94.68689%, 76.010132%, 46.794128%)" offset="0.707031"/>
<stop stop-opacity="1" stop-color="rgb(94.625854%, 75.691223%, 46.081543%)" offset="0.710938"/>
<stop stop-opacity="1" stop-color="rgb(94.487%, 75.358582%, 45.449829%)" offset="0.714844"/>
<stop stop-opacity="1" stop-color="rgb(94.326782%, 75.022888%, 44.856262%)" offset="0.71875"/>
<stop stop-opacity="1" stop-color="rgb(94.241333%, 74.702454%, 44.258118%)" offset="0.722656"/>
<stop stop-opacity="1" stop-color="rgb(94.221497%, 74.398804%, 43.652344%)" offset="0.726562"/>
<stop stop-opacity="1" stop-color="rgb(94.203186%, 74.095154%, 43.049622%)" offset="0.730469"/>
<stop stop-opacity="1" stop-color="rgb(94.18335%, 73.79303%, 42.449951%)" offset="0.734375"/>
<stop stop-opacity="1" stop-color="rgb(94.132996%, 73.483276%, 41.856384%)" offset="0.738281"/>
<stop stop-opacity="1" stop-color="rgb(94.004822%, 73.15979%, 41.27655%)" offset="0.742188"/>
<stop stop-opacity="1" stop-color="rgb(93.835449%, 72.831726%, 40.705872%)" offset="0.746094"/>
<stop stop-opacity="1" stop-color="rgb(93.748474%, 72.593689%, 40.136719%)" offset="0.75"/>
<stop stop-opacity="1" stop-color="rgb(93.739319%, 72.439575%, 39.567566%)" offset="0.753906"/>
<stop stop-opacity="1" stop-color="rgb(93.727112%, 72.238159%, 38.995361%)" offset="0.757812"/>
<stop stop-opacity="1" stop-color="rgb(93.708801%, 71.963501%, 38.414001%)" offset="0.761719"/>
<stop stop-opacity="1" stop-color="rgb(93.667603%, 71.661377%, 37.837219%)" offset="0.765625"/>
<stop stop-opacity="1" stop-color="rgb(93.548584%, 71.34552%, 37.27417%)" offset="0.769531"/>
<stop stop-opacity="1" stop-color="rgb(93.377686%, 71.018982%, 36.721802%)" offset="0.773438"/>
<stop stop-opacity="1" stop-color="rgb(93.278503%, 70.707703%, 36.161804%)" offset="0.777344"/>
<stop stop-opacity="1" stop-color="rgb(93.254089%, 70.414734%, 35.594177%)" offset="0.78125"/>
<stop stop-opacity="1" stop-color="rgb(93.235779%, 70.120239%, 35.025024%)" offset="0.785156"/>
<stop stop-opacity="1" stop-color="rgb(93.217468%, 69.827271%, 34.460449%)" offset="0.789062"/>
<stop stop-opacity="1" stop-color="rgb(93.186951%, 69.546509%, 33.901978%)" offset="0.792969"/>
<stop stop-opacity="1" stop-color="rgb(93.084717%, 69.325256%, 33.363342%)" offset="0.796875"/>
<stop stop-opacity="1" stop-color="rgb(92.9245%, 69.148254%, 32.841492%)" offset="0.800781"/>
<stop stop-opacity="1" stop-color="rgb(92.82074%, 68.927002%, 32.307434%)" offset="0.804688"/>
<stop stop-opacity="1" stop-color="rgb(92.790222%, 68.647766%, 31.756592%)" offset="0.808594"/>
<stop stop-opacity="1" stop-color="rgb(92.771912%, 68.359375%, 31.207275%)" offset="0.8125"/>
<stop stop-opacity="1" stop-color="rgb(92.755127%, 68.07251%, 30.659485%)" offset="0.816406"/>
<stop stop-opacity="1" stop-color="rgb(92.732239%, 67.784119%, 30.11322%)" offset="0.820312"/>
<stop stop-opacity="1" stop-color="rgb(92.634583%, 67.481995%, 29.585266%)" offset="0.824219"/>
<stop stop-opacity="1" stop-color="rgb(92.46521%, 67.169189%, 29.071045%)" offset="0.828125"/>
<stop stop-opacity="1" stop-color="rgb(92.350769%, 66.867065%, 28.55072%)" offset="0.832031"/>
<stop stop-opacity="1" stop-color="rgb(92.30957%, 66.578674%, 28.019714%)" offset="0.835938"/>
<stop stop-opacity="1" stop-color="rgb(92.292786%, 66.296387%, 27.487183%)" offset="0.839844"/>
<stop stop-opacity="1" stop-color="rgb(92.274475%, 66.012573%, 26.957703%)" offset="0.84375"/>
<stop stop-opacity="1" stop-color="rgb(92.25769%, 65.730286%, 26.429749%)" offset="0.847656"/>
<stop stop-opacity="1" stop-color="rgb(92.175293%, 65.505981%, 25.918579%)" offset="0.851562"/>
<stop stop-opacity="1" stop-color="rgb(92.019653%, 65.338135%, 25.42572%)" offset="0.855469"/>
<stop stop-opacity="1" stop-color="rgb(91.903687%, 65.139771%, 24.926758%)" offset="0.859375"/>
<stop stop-opacity="1" stop-color="rgb(91.856384%, 64.883423%, 24.414062%)" offset="0.863281"/>
<stop stop-opacity="1" stop-color="rgb(91.8396%, 64.605713%, 23.898315%)" offset="0.867188"/>
<stop stop-opacity="1" stop-color="rgb(91.822815%, 64.326477%, 23.38562%)" offset="0.871094"/>
<stop stop-opacity="1" stop-color="rgb(91.807556%, 64.050293%, 22.874451%)" offset="0.875"/>
<stop stop-opacity="1" stop-color="rgb(91.72821%, 63.763428%, 22.37854%)" offset="0.878906"/>
<stop stop-opacity="1" stop-color="rgb(91.574097%, 63.464355%, 21.899414%)" offset="0.882812"/>
<stop stop-opacity="1" stop-color="rgb(91.444397%, 63.172913%, 21.418762%)" offset="0.886719"/>
<stop stop-opacity="1" stop-color="rgb(91.389465%, 62.892151%, 20.925903%)" offset="0.890625"/>
<stop stop-opacity="1" stop-color="rgb(91.372681%, 62.617493%, 20.422363%)" offset="0.894531"/>
<stop stop-opacity="1" stop-color="rgb(91.357422%, 62.347412%, 19.857788%)" offset="0.898438"/>
<stop stop-opacity="1" stop-color="rgb(91.340637%, 62.075806%, 19.239807%)" offset="0.902344"/>
<stop stop-opacity="1" stop-color="rgb(91.32843%, 61.856079%, 18.667603%)" offset="0.90625"/>
<stop stop-opacity="1" stop-color="rgb(91.320801%, 61.705017%, 18.156433%)" offset="0.910156"/>
<stop stop-opacity="1" stop-color="rgb(91.285706%, 61.5448%, 17.671204%)" offset="0.914062"/>
<stop stop-opacity="1" stop-color="rgb(91.172791%, 61.305237%, 17.205811%)" offset="0.917969"/>
<stop stop-opacity="1" stop-color="rgb(91.011047%, 61.013794%, 16.755676%)" offset="0.921875"/>
<stop stop-opacity="1" stop-color="rgb(90.921021%, 60.734558%, 16.293335%)" offset="0.925781"/>
<stop stop-opacity="1" stop-color="rgb(90.90271%, 60.467529%, 15.818787%)" offset="0.929688"/>
<stop stop-opacity="1" stop-color="rgb(90.887451%, 60.202026%, 15.345764%)" offset="0.933594"/>
<stop stop-opacity="1" stop-color="rgb(90.870667%, 59.934998%, 14.874268%)" offset="0.9375"/>
<stop stop-opacity="1" stop-color="rgb(90.840149%, 59.667969%, 14.408875%)" offset="0.941406"/>
<stop stop-opacity="1" stop-color="rgb(90.733337%, 59.390259%, 13.963318%)" offset="0.945312"/>
<stop stop-opacity="1" stop-color="rgb(90.57312%, 59.106445%, 13.53302%)" offset="0.949219"/>
<stop stop-opacity="1" stop-color="rgb(90.478516%, 58.889771%, 13.084412%)" offset="0.953125"/>
<stop stop-opacity="1" stop-color="rgb(90.460205%, 58.752441%, 12.615967%)" offset="0.957031"/>
<stop stop-opacity="1" stop-color="rgb(90.45105%, 58.59375%, 12.149048%)" offset="0.960938"/>
<stop stop-opacity="1" stop-color="rgb(90.438843%, 58.36792%, 11.691284%)" offset="0.964844"/>
<stop stop-opacity="1" stop-color="rgb(90.415955%, 58.105469%, 11.24115%)" offset="0.96875"/>
<stop stop-opacity="1" stop-color="rgb(90.319824%, 57.835388%, 10.810852%)" offset="0.972656"/>
<stop stop-opacity="1" stop-color="rgb(90.159607%, 57.556152%, 10.397339%)" offset="0.976562"/>
<stop stop-opacity="1" stop-color="rgb(90.054321%, 57.284546%, 9.97467%)" offset="0.980469"/>
<stop stop-opacity="1" stop-color="rgb(90.020752%, 57.026672%, 9.536743%)" offset="0.984375"/>
<stop stop-opacity="1" stop-color="rgb(90.007019%, 56.770325%, 9.09729%)" offset="0.988281"/>
<stop stop-opacity="1" stop-color="rgb(89.993286%, 56.513977%, 8.660889%)" offset="0.992188"/>
<stop stop-opacity="1" stop-color="rgb(89.978027%, 56.259155%, 8.226013%)" offset="0.996094"/>
<stop stop-opacity="1" stop-color="rgb(89.971924%, 56.130981%, 8.009338%)" offset="1"/>
</radialGradient>
</defs>

<path d="M 2629.261719 1019.628906 C 2684.261719 1009.171875 2753.621094 1027.71875 2775.25 1084.410156 C 2788.929688 1156.78125 2753.421875 1227.121094 2718.429688 1288.351562 C 2637.558594 1429.28125 2512.988281 1536.898438 2412.921875 1663.210938 C 2407.921875 1668.578125 2402.390625 1673.25 2396.359375 1677.390625 C 2401.96875 1636.660156 2424.011719 1601.058594 2444.460938 1566.21875 C 2517.011719 1455.480469 2621.039062 1370.53125 2700.210938 1265.101562 C 2733.289062 1225.558594 2707.289062 1151.929688 2653.148438 1150.371094 C 2470.921875 1141.828125 2298.621094 1210.878906 2128.671875 1266.75 C 2089.398438 1282.199219 2047.191406 1288.761719 2008.539062 1305.871094 C 1730.480469 1416.710938 1442.410156 1511.328125 1187.578125 1671.511719 C 1424.449219 1839.050781 1664.421875 2002.160156 1901.609375 2169.289062 C 1910.898438 2175.320312 1921.628906 2187.878906 1933.238281 2179.21875 C 2029.441406 2130.789062 2138.378906 2110.070312 2245.71875 2116.148438 C 2213.929688 1953.300781 2144.570312 1797.710938 2137.449219 1630.230469 C 2133.269531 1572.351562 2140.699219 1509.019531 2177.859375 1462.21875 C 2217.691406 1539.371094 2254.851562 1617.921875 2292.828125 1695.980469 C 2273.230469 1687.539062 2253.460938 1679.488281 2233.03125 1673.359375 C 2238.390625 1783.589844 2262.328125 1893.828125 2309.191406 1994.070312 C 2346.871094 2079.261719 2416.539062 2146.300781 2493.898438 2196.199219 C 2515.71875 2208.460938 2516.140625 2236.378906 2517.949219 2258.390625 C 2517.839844 2293.429688 2521.601562 2331.171875 2504.828125 2363.320312 C 2411.738281 2271.589844 2274.359375 2225.710938 2145.03125 2250.210938 C 2118.761719 2255.921875 2091 2260.550781 2068.871094 2276.789062 C 2236.578125 2408.460938 2400.070312 2545.75 2560 2686.859375 C 2623.121094 2743.25 2685.808594 2807.238281 2768.238281 2833.828125 C 2737.789062 2457.070312 2673.070312 2084.101562 2638.910156 1707.789062 C 2631.480469 1671.039062 2652.890625 1638.320312 2668.988281 1607.191406 C 2734.21875 1703.96875 2791.96875 1809.578125 2812.609375 1925.71875 C 2788.308594 1908.769531 2766.730469 1888.261719 2742.21875 1871.621094 C 2772.820312 2190.78125 2824.800781 2507.460938 2857.148438 2826.410156 C 2858.019531 2834.089844 2858.960938 2841.871094 2861.949219 2849.140625 C 2911.550781 2872.640625 2967.800781 2852.738281 3014.441406 2831.46875 C 3047.320312 2814.980469 3081.828125 2795.128906 3101.820312 2763.28125 C 3088.761719 2625.53125 3072.589844 2487.828125 3052.890625 2350.738281 C 3015.378906 2067.5 2977.191406 1784.308594 2939.25 1501.121094 C 2927.75 1379.910156 2898.179688 1261.328125 2887.238281 1140.179688 C 2890.378906 1102.609375 2903.179688 1065.960938 2918.859375 1031.789062 C 2974.808594 1134.820312 3045.089844 1234.53125 3065.578125 1352.25 C 3039.988281 1335.859375 3018 1314.511719 2992.199219 1298.390625 C 2989.621094 1449.75 3022.28125 1598.679688 3039.578125 1748.449219 C 3079.558594 2040.558594 3119.71875 2332.609375 3159.601562 2624.761719 C 3174.570312 2711.75 3159.410156 2808.28125 3103.199219 2878.46875 C 3047.890625 2942.679688 2966.351562 2973.230469 2888.519531 3000.390625 C 2896.171875 3169.640625 2903.441406 3346.980469 2835.171875 3506.28125 C 2838.929688 3334.960938 2823.179688 3163.878906 2799.71875 2994.371094 C 2677.101562 2954.378906 2580.949219 2864.660156 2490.988281 2776.128906 C 2368.121094 2661.921875 2248.96875 2539.769531 2104.210938 2452.941406 C 2100.03125 2468.390625 2116.289062 2476.960938 2124.550781 2487.308594 C 2198.449219 2567.871094 2264.648438 2663.359375 2279.160156 2774.210938 C 2281.53125 2825.429688 2282.878906 2879.960938 2258.929688 2926.910156 C 2230.179688 2975 2182.089844 3007.621094 2133.679688 3033.640625 C 1994.441406 3111.71875 1834.261719 3138.308594 1689.550781 3203.601562 C 1593.570312 3244.320312 1503.570312 3303.21875 1436.171875 3383.460938 C 1426.78125 3395.019531 1414.648438 3406.800781 1415.46875 3422.988281 C 1411.300781 3514.609375 1425.019531 3611.871094 1478.800781 3688.609375 C 1524.359375 3754.71875 1599.609375 3794.308594 1676.550781 3811.828125 C 1785.910156 3835.738281 1903.308594 3829.609375 2008.230469 3789.558594 C 2039.601562 3706.070312 2066.539062 3620.578125 2108.140625 3541.308594 C 2084.761719 3511.050781 2051.46875 3489.640625 2029.738281 3458.199219 C 2030.460938 3423.921875 2058.339844 3396.351562 2081.140625 3373.050781 C 2093.21875 3356.710938 2111.128906 3371.980469 2125.058594 3377.171875 C 2197.519531 3315.738281 2268.789062 3249.421875 2316.671875 3166.390625 C 2253.511719 3143.679688 2263.46875 3063.738281 2292.679688 3017.558594 C 2305.480469 2991.949219 2345.839844 2978.488281 2364.210938 3005.710938 C 2402.5 3046.839844 2384.230469 3104.960938 2380.449219 3154.078125 C 2401.058594 3174.640625 2422.269531 3206.488281 2395.480469 3232.101562 C 2377.769531 3221.28125 2366.378906 3203.601562 2350.679688 3190.46875 C 2289.429688 3264.171875 2218.421875 3329.199219 2146.839844 3392.480469 C 2164.699219 3418.558594 2196.28125 3435.359375 2208.199219 3465.039062 C 2195.460938 3515.089844 2150.140625 3548.648438 2125.988281 3593.261719 C 2097.140625 3647.320312 2071.390625 3706.171875 2071.03125 3768.53125 C 2262.589844 3693.28125 2448.21875 3593.890625 2598.609375 3451.539062 C 2608.300781 3440.71875 2626.53125 3429.75 2617.488281 3413.101562 C 2575.269531 3286.789062 2510.039062 3170.011719 2455.949219 3048.648438 C 2445.589844 3022.96875 2426.550781 2997.160156 2433.671875 2968.078125 C 2438.871094 2935.359375 2442.601562 2897.269531 2471.390625 2875.839844 C 2524.75 2935.058594 2578.070312 2994.320312 2631.160156 3053.738281 C 2633.910156 3056.421875 2638.851562 3066.671875 2630.699219 3065.449219 C 2603.558594 3073.78125 2583.53125 3048.078125 2557.78125 3045.699219 C 2569.328125 3129.128906 2625.429688 3196.449219 2651.859375 3274.769531 C 2674.828125 3337.441406 2679.71875 3408.671875 2654.328125 3471.441406 C 2627.660156 3544.039062 2572.480469 3601.71875 2515.109375 3651.660156 C 2379.011719 3764.089844 2216.820312 3839.398438 2053.21875 3902.839844 C 2042.800781 3978.960938 2061.789062 4063.109375 2115 4120.371094 C 2151.019531 4159.070312 2210.878906 4165.46875 2256.761719 4140.921875 C 2406.621094 4063.429688 2495.078125 3914.230469 2604.851562 3792.800781 C 2678.539062 3707.878906 2770.859375 3640.011719 2871.550781 3590.429688 C 2997.101562 3527.769531 3131.230469 3483.738281 3254.871094 3416.898438 C 3223.859375 3287.96875 3190.839844 3141.410156 3259.261719 3018.488281 C 3287.378906 2960.671875 3363.199219 2929.378906 3421.820312 2959.898438 C 3464.449219 2991.789062 3490.71875 3041.730469 3506.25 3091.671875 C 3550.320312 3216.078125 3502.28125 3358.058594 3410.460938 3448.140625 C 3399.171875 3460.878906 3382.910156 3469.890625 3375.070312 3485.25 C 3400.558594 3531.890625 3447.269531 3567.289062 3499.328125 3578.730469 C 3598.949219 3602.488281 3704.160156 3560.539062 3775.21875 3490.398438 C 3744.148438 3104.808594 3688.429688 2721.691406 3641.71875 2337.761719 C 3605.089844 2053.128906 3570.289062 1768.128906 3533.039062 1483.710938 C 3535.980469 1448.410156 3555.230469 1417.390625 3571.179688 1386.558594 C 3638.109375 1484.800781 3685.019531 1596.46875 3711.019531 1712.210938 C 3681.351562 1703.460938 3667.890625 1674.03125 3646.421875 1654.601562 C 3663.191406 1977.671875 3708.019531 2298.378906 3746.578125 2619.398438 C 3771.238281 2829.089844 3796.28125 3038.738281 3822.5 3248.289062 C 3832.921875 3318.160156 3831.46875 3389.960938 3820.378906 3459.640625 C 3807.839844 3543.28125 3767.019531 3628.730469 3688.839844 3669.128906 C 3611.53125 3703.449219 3518.988281 3726.789062 3438.179688 3690.050781 C 3372.03125 3657.421875 3334.960938 3589.550781 3301.320312 3527.351562 C 3142.28125 3581.199219 2990.191406 3653.78125 2840.789062 3729.929688 C 2681.171875 3813.789062 2580.28125 3968.601562 2462.199219 4098.671875 C 2408.691406 4151.921875 2363.441406 4217.019531 2283.179688 4237.71875 C 2283.179688 4237.71875 2195.570312 4251.511719 2113.351562 4184.121094 C 2041.558594 4128.050781 2014.058594 4035.328125 2004.710938 3948.398438 C 2005.800781 3919.578125 1971.480469 3936.128906 1954.351562 3936.378906 C 1806.390625 3956.640625 1634.539062 3973.601562 1510.070312 3873.71875 C 1389.160156 3770.550781 1373.109375 3599.800781 1374.03125 3451.28125 C 1315.460938 3482.941406 1275.050781 3551.308594 1202.710938 3554.148438 C 1078.488281 3558.011719 980.230469 3443.039062 963.453125 3327.339844 C 943.128906 3191.910156 1006.03125 3064.769531 1052.320312 2941.550781 C 925.875 2918.101562 880.835938 2823.820312 880.835938 2823.820312 C 830.65625 2748.488281 841.613281 2628.628906 841.613281 2628.628906 C 860.5 2518.070312 902.613281 2412.390625 962.425781 2317.511719 C 969.335938 2304.878906 981.207031 2291.269531 974.296875 2276.238281 C 956.90625 2224.691406 951.742188 2168.511719 965.984375 2115.539062 C 993.855469 1998.5 1073.078125 1903.359375 1144.078125 1809.46875 C 1127.460938 1735.101562 1142.480469 1656.910156 1170.871094 1587.339844 C 1179.070312 1563.578125 1206.210938 1557.101562 1225.308594 1544.578125 C 1661.589844 1296.070312 2141.839844 1134.050781 2629.261719 1019.628906 Z M 1163.019531 1836.101562 C 1359.378906 1984.019531 1554.449219 2133.671875 1750.449219 2282.101562 C 1546.199219 2467.578125 1359.800781 2679.238281 1118.230469 2818.429688 C 1062.179688 2854.589844 980.332031 2848.789062 932.644531 2801.46875 C 882.128906 2737.769531 881.5 2649.179688 898.738281 2573.21875 C 919.230469 2496.488281 1001.339844 2323.660156 1015.949219 2309.03125 C 1072.558594 2327.011719 1143.871094 2204.789062 1152.089844 2129.71875 C 1108.589844 2194.660156 1062.230469 2195.890625 1050.621094 2179.28125 C 1010.800781 2147.128906 1032.039062 2050.5 1061.511719 1994.109375 C 1087.980469 1937.019531 1127.308594 1887.488281 1163.019531 1836.101562 Z M 1156.929688 2923.769531 C 1134.738281 2938.039062 1097.011719 2943.800781 1097.011719 2943.800781 C 1050.558594 3043.828125 998.191406 3171.898438 1003.808594 3284.410156 C 1004.378906 3339.191406 1026.109375 3393.929688 1063.109375 3434.328125 C 1091.328125 3466.898438 1139.179688 3467.929688 1178.398438 3460.769531 C 1258.230469 3435.570312 1310.300781 3365.828125 1365.421875 3307.449219 C 1474.828125 3192.839844 1618.238281 3118.261719 1764.898438 3062.550781 C 1930.398438 2998.648438 2103.390625 2943.449219 2246.488281 2834.808594 C 2180.699219 2635.371094 2006.671875 2502.660156 1851.601562 2373.160156 C 1596.050781 2526.011719 1428.058594 2793.421875 1156.929688 2923.769531 Z M 3267.058594 3170.921875 C 3265.511719 3242.511719 3291.671875 3312.910156 3328.929688 3373.199219 C 3378.371094 3347.859375 3433.230469 3323.679688 3465.269531 3276.210938 C 3475.761719 3225.921875 3454.238281 3175.160156 3429.511719 3132.070312 C 3408.710938 3100.21875 3376.160156 3065.339844 3334.089844 3072.441406 C 3293.691406 3086.308594 3266.128906 3128.46875 3267.058594 3170.921875" fill-opacity="1" fill="rgb(6.32782%, 5.79834%, 5.117798%)" fill-rule="evenodd"/>
<path d="M 3419.660156 2149.898438 C 3421.578125 2148 3349.988281 1634.808594 3323.871094 1417.28125 C 3352.511719 1428.148438 3368.929688 1457.070312 3395.5 1471.539062 C 3372.230469 1349.980469 3309.480469 1241.488281 3248.738281 1135.328125 C 3224.378906 1168.160156 3213.339844 1208.71875 3207.921875 1248.558594 C 3267.109375 1553.539062 3386.261719 2480.71875 3396.230469 2613.121094 C 3458.570312 2467.261719 3439.519531 2302.769531 3419.660156 2149.898438" fill-opacity="1" fill="rgb(6.32782%, 5.79834%, 5.117798%)" fill-rule="evenodd"/>
<path d="M 1641.359375 3377.171875 C 1791.121094 3315.851562 1939.480469 3251.171875 2087.5 3185.78125 C 2083.410156 3218.289062 2057.558594 3245.191406 2028.660156 3258.691406 C 1888.75 3325.429688 1739.820312 3374.03125 1606.578125 3454.269531 C 1621.328125 3479.679688 1649.25 3503.640625 1640.28125 3536.210938 C 1612.769531 3541.890625 1596.199219 3516.789062 1579.480469 3499.820312 C 1565.910156 3450.929688 1594.808594 3396.238281 1641.359375 3377.171875" fill-opacity="1" fill="rgb(6.32782%, 5.79834%, 5.117798%)" fill-rule="evenodd"/>
<path d="M 2344.238281 3305.078125 C 2394.5 3306.621094 2450.390625 3334.808594 2463.601562 3386.660156 C 2473.300781 3431.539062 2437.339844 3471.21875 2399.871094 3490.191406 C 2370.808594 3501.28125 2325.859375 3495.449219 2318.378906 3459.480469 C 2318.378906 3407.21875 2327.609375 3354.660156 2344.238281 3305.078125 Z M 2348.410156 3357.230469 C 2341.539062 3383.929688 2334.789062 3415.308594 2346.710938 3440.980469 C 2377.261719 3459.179688 2413.378906 3437.320312 2437.800781 3417.691406 C 2420.980469 3384.851562 2387.640625 3354.859375 2348.410156 3357.230469" fill-opacity="1" fill="rgb(6.32782%, 5.79834%, 5.117798%)" fill-rule="evenodd"/>
<path d="M 2755.738281 1390.621094 C 2799.378906 1391.960938 2847.898438 1416.441406 2859.378906 1461.441406 C 2867.789062 1500.421875 2836.570312 1534.871094 2804.039062 1551.339844 C 2778.808594 1560.960938 2739.78125 1555.898438 2733.289062 1524.671875 C 2733.289062 1479.300781 2741.320312 1433.648438 2755.738281 1390.621094 Z M 2759.371094 1435.898438 C 2753.410156 1459.078125 2747.53125 1486.320312 2757.890625 1508.601562 C 2784.410156 1524.410156 2815.769531 1505.429688 2836.96875 1488.390625 C 2822.359375 1459.878906 2793.421875 1433.839844 2759.371094 1435.898438" fill-opacity="1" fill="rgb(6.32782%, 5.79834%, 5.117798%)" fill-rule="evenodd"/>
<path d="M 1324 2190.640625 C 1323.269531 2187.058594 1326.121094 2182.699219 1331.839844 2174.101562 C 1341.859375 2168.320312 1348.308594 2163.300781 1351.890625 2162.570312 C 1362.660156 2160.371094 1371.300781 2166.070312 1378.539062 2183.230469 C 1384.320312 2193.230469 1383.671875 2208.320312 1383.011719 2223.378906 C 1343.46875 2212.761719 1326.199219 2201.390625 1324 2190.640625 Z M 1313.738281 2140.449219 C 1290.179688 2171.410156 1285.269531 2202.230469 1291.128906 2230.921875 C 1296.261719 2255.96875 1322.910156 2276.691406 1370.351562 2289.398438 C 1344.660156 2328.21875 1302.488281 2377.839844 1242.378906 2431.160156 C 1195.171875 2474.371094 1144.371094 2518.308594 1097.148438 2561.519531 C 1084.988281 2575.199219 1082.128906 2579.488281 1082.871094 2583.089844 L 1083.601562 2586.671875 C 1087.191406 2585.941406 1097.21875 2580.160156 1107.238281 2574.371094 C 1176.71875 2530.378906 1213.25 2507.96875 1219.691406 2502.949219 C 1251.898438 2477.699219 1286.960938 2448.179688 1323.421875 2407.160156 C 1353.441406 2371.21875 1379.871094 2335.980469 1397.660156 2295.039062 C 1418.519531 2305.710938 1435.070312 2313.53125 1443.710938 2319.21875 C 1455.78125 2286.921875 1462.878906 2266.78125 1460.679688 2256.03125 C 1451.308594 2246.738281 1434.761719 2238.929688 1411.050781 2232.570312 C 1415.21875 2198.140625 1416.539062 2168.039062 1411.410156 2142.929688 C 1406.289062 2117.878906 1391.859375 2102.140625 1376.789062 2101.511719 C 1372.078125 2100.640625 1367.328125 2100.671875 1362.488281 2101.648438 C 1347.429688 2104.730469 1331.601562 2117.070312 1313.738281 2140.449219" fill-opacity="1" fill="rgb(6.32782%, 5.79834%, 5.117798%)" fill-rule="evenodd"/>
<path d="M 1324 2190.640625 C 1326.199219 2201.390625 1343.46875 2212.761719 1383.011719 2223.378906 C 1383.671875 2208.320312 1384.320312 2193.230469 1378.539062 2183.230469 C 1371.300781 2166.070312 1362.660156 2160.371094 1351.890625 2162.570312 C 1348.308594 2163.300781 1341.859375 2168.320312 1331.839844 2174.101562 C 1326.121094 2182.699219 1323.269531 2187.058594 1324 2190.640625 Z M 1361.570312 2101.851562 L 1363.398438 2101.480469 L 1363.621094 2101.441406 C 1368.078125 2100.671875 1372.449219 2100.710938 1376.789062 2101.511719 C 1391.859375 2102.140625 1406.289062 2117.878906 1411.410156 2142.929688 C 1416.539062 2168.039062 1415.21875 2198.140625 1411.050781 2232.570312 C 1434.761719 2238.929688 1451.308594 2246.738281 1460.679688 2256.03125 L 1460.710938 2256.199219 C 1462.800781 2266.980469 1455.71875 2287.070312 1443.710938 2319.21875 C 1435.070312 2313.53125 1418.519531 2305.710938 1397.660156 2295.039062 C 1379.871094 2335.980469 1353.441406 2371.21875 1323.421875 2407.160156 C 1286.960938 2448.179688 1251.898438 2477.699219 1219.691406 2502.949219 C 1213.25 2507.96875 1176.71875 2530.378906 1107.238281 2574.371094 C 1097.21875 2580.160156 1087.191406 2585.941406 1083.601562 2586.671875 L 1082.871094 2583.089844 C 1082.128906 2579.488281 1084.988281 2575.199219 1097.148438 2561.519531 C 1144.371094 2518.308594 1195.171875 2474.371094 1242.378906 2431.160156 C 1302.488281 2377.839844 1344.660156 2328.21875 1370.351562 2289.398438 C 1322.910156 2276.691406 1296.261719 2255.96875 1291.128906 2230.921875 C 1285.269531 2202.230469 1290.179688 2171.410156 1313.738281 2140.449219 C 1331.238281 2117.550781 1346.78125 2105.238281 1361.570312 2101.851562" fill-opacity="1" fill="rgb(6.32782%, 5.79834%, 5.117798%)" fill-rule="evenodd"/>
<path d="M 3465.5 1945.910156 C 3465.238281 1942.828125 3468.050781 1939.460938 3473.699219 1932.800781 C 3482.691406 1928.910156 3488.589844 1925.328125 3491.671875 1925.070312 C 3500.929688 1924.269531 3507.621094 1929.910156 3512.03125 1945.019531 C 3515.910156 1953.988281 3513.878906 1966.601562 3511.859375 1979.191406 C 3479.691406 1966.390625 3466.300781 1955.148438 3465.5 1945.910156 Z M 3461.800781 1902.769531 C 3438.980469 1926.460938 3431.851562 1951.871094 3433.949219 1976.53125 C 3435.808594 1998.070312 3456.160156 2018.070312 3494.738281 2033.378906 C 3469.359375 2063.46875 3429.078125 2101.019531 3373.398438 2139.921875 C 3329.5 2171.609375 3282.53125 2203.53125 3238.648438 2235.210938 C 3227.089844 2245.5 3224.269531 2248.828125 3224.539062 2251.929688 L 3224.808594 2255.011719 C 3227.890625 2254.738281 3236.890625 2250.878906 3245.871094 2246.96875 C 3308.519531 2216.839844 3341.390625 2201.589844 3347.308594 2198 C 3376.820312 2179.949219 3409.160156 2158.558594 3443.800781 2127.699219 C 3472.53125 2100.441406 3498.179688 2073.421875 3517.121094 2040.789062 C 3533.601562 2051.789062 3546.730469 2059.980469 3553.421875 2065.601562 C 3566.738281 2039.640625 3574.660156 2023.441406 3573.878906 2014.199219 C 3566.910156 2005.46875 3553.789062 1997.289062 3534.488281 1989.640625 C 3541.371094 1961.128906 3545.421875 1935.988281 3543.578125 1914.398438 C 3541.738281 1892.859375 3531.171875 1878.238281 3518.570312 1876.230469 C 3514.710938 1875.039062 3510.699219 1874.589844 3506.539062 1874.960938 C 3493.589844 1876.058594 3479.101562 1884.878906 3461.800781 1902.769531" fill-opacity="1" fill="rgb(6.32782%, 5.79834%, 5.117798%)" fill-rule="evenodd"/>
<path d="M 3465.5 1945.910156 C 3466.300781 1955.148438 3479.691406 1966.390625 3511.859375 1979.191406 C 3513.878906 1966.601562 3515.910156 1953.988281 3512.03125 1945.019531 C 3507.621094 1929.910156 3500.929688 1924.269531 3491.671875 1925.070312 C 3488.589844 1925.328125 3482.691406 1928.910156 3473.699219 1932.800781 C 3468.050781 1939.460938 3465.238281 1942.828125 3465.5 1945.910156 Z M 3573.871094 2014.191406 L 3573.910156 2014.628906 C 3574.410156 2023.949219 3566.53125 2040.050781 3553.421875 2065.601562 C 3546.730469 2059.980469 3533.601562 2051.789062 3517.121094 2040.789062 C 3498.179688 2073.421875 3472.53125 2100.441406 3443.800781 2127.699219 C 3409.160156 2158.558594 3376.820312 2179.949219 3347.308594 2198 C 3341.390625 2201.589844 3308.519531 2216.839844 3245.871094 2246.96875 C 3236.890625 2250.878906 3227.890625 2254.738281 3224.808594 2255.011719 L 3224.539062 2251.929688 C 3224.269531 2248.828125 3227.089844 2245.5 3238.648438 2235.210938 C 3282.53125 2203.53125 3329.5 2171.609375 3373.398438 2139.921875 C 3429.078125 2101.019531 3469.359375 2063.46875 3494.738281 2033.378906 C 3456.160156 2018.070312 3435.808594 1998.070312 3433.949219 1976.53125 C 3431.851562 1951.871094 3438.980469 1926.460938 3461.800781 1902.769531 C 3479.101562 1884.878906 3493.589844 1876.058594 3506.539062 1874.960938 C 3510.699219 1874.589844 3514.710938 1875.039062 3518.570312 1876.230469 C 3531.171875 1878.238281 3541.738281 1892.859375 3543.578125 1914.398438 C 3545.421875 1935.988281 3541.371094 1961.128906 3534.488281 1989.640625 C 3553.78125 1997.289062 3566.898438 2005.46875 3573.871094 2014.191406" fill-opacity="1" fill="rgb(6.32782%, 5.79834%, 5.117798%)" fill-rule="evenodd"/>
<path d="M 2370.199219 1866.730469 C 2393.71875 1860.171875 2418.660156 1867.019531 2443.511719 1890.019531 C 2470.488281 1912.390625 2493.449219 1945.101562 2514.511719 1987.519531 C 2515.710938 1991.808594 2516.308594 1993.929688 2516.890625 1996.058594 C 2519.039062 1995.46875 2519.039062 1995.46875 2519.039062 1995.46875 C 2518.441406 1993.328125 2519.96875 1990.601562 2518.789062 1986.328125 C 2515.308594 1957.398438 2515.261719 1916.011719 2513.179688 1859.101562 C 2519.550781 1815.921875 2531.871094 1794.078125 2551.101562 1788.730469 C 2559.648438 1786.339844 2572.109375 1789.769531 2584.238281 1800.191406 C 2595.78125 1808.480469 2602.429688 1815.828125 2604.21875 1822.21875 C 2606 1828.621094 2605.660156 1835.628906 2605.910156 1844.769531 C 2605.21875 1858.738281 2602.730469 1866.351562 2598.449219 1867.519531 C 2596.320312 1868.140625 2590.851562 1865.058594 2579.910156 1858.898438 C 2571.109375 1852.148438 2563.519531 1849.671875 2554.96875 1852.039062 C 2537.871094 1856.808594 2533.648438 1899.390625 2540.160156 1980.378906 C 2543.289062 2016.308594 2543.429688 2041.570312 2541.199219 2058.289062 C 2537.160156 2068.621094 2534.679688 2076.210938 2530.410156 2077.410156 C 2528.28125 2077.988281 2524.949219 2074.320312 2521.949219 2063.660156 C 2518.378906 2050.839844 2502.671875 2027.621094 2476.398438 1991.25 C 2448.570312 1957.589844 2432.519531 1941.371094 2426.101562 1943.148438 C 2421.828125 1944.351562 2419.699219 1944.949219 2418.75 1949.808594 C 2417.210938 1952.53125 2415.660156 1955.261719 2409.269531 1957.050781 C 2400.71875 1959.429688 2390.371094 1955.410156 2376.710938 1947.71875 C 2360.910156 1940.621094 2354.25 1933.289062 2352.460938 1926.878906 C 2351.859375 1924.75 2353.75 1915.011719 2357.53125 1895.558594 C 2363.449219 1875.511719 2368.070312 1867.308594 2370.199219 1866.730469" fill-opacity="1" fill="rgb(6.32782%, 5.79834%, 5.117798%)" fill-rule="evenodd"/>
<path d="M 1818.230469 1828.53125 C 1841.738281 1821.988281 1866.691406 1828.839844 1891.53125 1851.808594 C 1918.511719 1874.191406 1941.46875 1906.898438 1962.539062 1949.328125 C 1963.730469 1953.609375 1964.320312 1955.738281 1964.921875 1957.871094 C 1967.050781 1957.28125 1967.050781 1957.28125 1967.050781 1957.28125 C 1966.460938 1955.140625 1968 1952.410156 1966.808594 1948.148438 C 1963.328125 1919.210938 1963.289062 1877.828125 1961.199219 1820.898438 C 1967.570312 1777.71875 1979.890625 1755.898438 1999.128906 1750.53125 C 2007.671875 1748.160156 2020.148438 1751.570312 2032.269531 1762 C 2043.800781 1770.289062 2050.460938 1777.628906 2052.25 1784.039062 C 2054.03125 1790.429688 2053.691406 1797.429688 2053.929688 1806.570312 C 2053.230469 1820.558594 2050.75 1828.148438 2046.480469 1829.351562 C 2044.339844 1829.941406 2038.878906 1826.859375 2027.941406 1820.699219 C 2019.148438 1813.960938 2011.539062 1811.46875 2003 1813.871094 C 1985.898438 1818.621094 1981.671875 1861.199219 1988.179688 1942.191406 C 1991.308594 1978.109375 1991.460938 2003.371094 1989.21875 2020.089844 C 1985.191406 2030.429688 1982.699219 2038.03125 1978.441406 2039.210938 C 1976.289062 2039.808594 1972.96875 2036.128906 1969.988281 2025.460938 C 1966.410156 2012.660156 1950.710938 1989.441406 1924.421875 1953.050781 C 1896.601562 1919.410156 1880.539062 1903.179688 1874.128906 1904.96875 C 1869.859375 1906.148438 1867.71875 1906.75 1866.78125 1911.609375 C 1865.230469 1914.328125 1863.691406 1917.078125 1857.289062 1918.859375 C 1848.738281 1921.230469 1838.410156 1917.21875 1824.730469 1909.53125 C 1808.929688 1902.429688 1802.28125 1895.078125 1800.488281 1888.679688 C 1799.890625 1886.550781 1801.78125 1876.808594 1805.558594 1857.359375 C 1811.46875 1837.308594 1816.101562 1829.128906 1818.230469 1828.53125" fill-opacity="1" fill="rgb(6.32782%, 5.79834%, 5.117798%)" fill-rule="evenodd"/>
<path d="M 1340.421875 2902.550781 C 1363.921875 2896 1388.871094 2902.851562 1413.710938 2925.820312 C 1440.699219 2948.210938 1463.648438 2980.910156 1484.730469 3023.359375 C 1485.921875 3027.609375 1486.511719 3029.738281 1487.109375 3031.890625 C 1489.25 3031.289062 1489.25 3031.289062 1489.25 3031.289062 C 1488.640625 3029.140625 1490.191406 3026.421875 1488.988281 3022.148438 C 1485.519531 2993.21875 1485.46875 2951.839844 1483.390625 2894.910156 C 1489.761719 2851.730469 1502.078125 2829.910156 1521.300781 2824.539062 C 1529.851562 2822.171875 1542.328125 2825.589844 1554.460938 2836.011719 C 1565.980469 2844.300781 1572.640625 2851.640625 1574.429688 2858.050781 C 1576.21875 2864.460938 1575.871094 2871.449219 1576.121094 2880.578125 C 1575.429688 2894.578125 1572.941406 2902.160156 1568.660156 2903.359375 C 1566.53125 2903.949219 1561.058594 2900.871094 1550.128906 2894.71875 C 1541.328125 2887.960938 1533.730469 2885.488281 1525.179688 2887.878906 C 1508.089844 2892.628906 1503.859375 2935.199219 1510.359375 3016.191406 C 1513.488281 3052.140625 1513.640625 3077.398438 1511.410156 3094.121094 C 1507.371094 3104.429688 1504.890625 3112.039062 1500.621094 3113.21875 C 1498.480469 3113.820312 1495.148438 3110.128906 1492.171875 3099.46875 C 1488.589844 3086.671875 1472.898438 3063.449219 1446.601562 3027.058594 C 1418.78125 2993.421875 1402.730469 2977.191406 1396.320312 2978.980469 C 1392.039062 2980.171875 1389.910156 2980.761719 1388.960938 2985.628906 C 1387.429688 2988.359375 1385.878906 2991.089844 1379.46875 2992.871094 C 1370.921875 2995.261719 1360.578125 2991.230469 1346.921875 2983.53125 C 1331.121094 2976.441406 1324.460938 2969.089844 1322.671875 2962.679688 C 1322.078125 2960.550781 1323.960938 2950.839844 1327.75 2931.371094 C 1333.648438 2911.320312 1338.28125 2903.148438 1340.421875 2902.550781" fill-opacity="1" fill="rgb(6.32782%, 5.79834%, 5.117798%)" fill-rule="evenodd"/>
<path d="M 1696.988281 3529.589844 C 1720.488281 3523.03125 1745.441406 3529.878906 1770.28125 3552.871094 C 1797.269531 3575.25 1820.230469 3607.960938 1841.289062 3650.390625 C 1842.480469 3654.640625 1843.078125 3656.789062 1843.679688 3658.921875 C 1845.820312 3658.320312 1845.820312 3658.320312 1845.820312 3658.320312 C 1845.21875 3656.191406 1846.761719 3653.460938 1845.558594 3649.191406 C 1842.089844 3620.261719 1842.039062 3578.871094 1839.960938 3521.960938 C 1846.328125 3478.78125 1858.648438 3456.941406 1877.878906 3451.589844 C 1886.429688 3449.199219 1898.898438 3452.628906 1911.019531 3463.050781 C 1922.550781 3471.339844 1929.210938 3478.691406 1931 3485.078125 C 1932.789062 3491.480469 1932.441406 3498.488281 1932.691406 3507.609375 C 1932 3521.601562 1929.511719 3529.199219 1925.230469 3530.390625 C 1923.101562 3530.980469 1917.628906 3527.921875 1906.699219 3521.75 C 1897.898438 3515.011719 1890.300781 3512.53125 1881.75 3514.898438 C 1864.648438 3519.679688 1860.429688 3562.25 1866.941406 3643.25 C 1870.058594 3679.171875 1870.210938 3704.429688 1867.96875 3721.148438 C 1863.949219 3731.480469 1861.460938 3739.070312 1857.191406 3740.269531 C 1855.050781 3740.851562 1851.71875 3737.179688 1848.738281 3726.519531 C 1845.160156 3713.699219 1829.460938 3690.480469 1803.179688 3654.109375 C 1775.351562 3620.449219 1759.300781 3604.238281 1752.890625 3606.011719 C 1748.621094 3607.199219 1746.46875 3607.800781 1745.53125 3612.671875 C 1744 3615.390625 1742.449219 3618.121094 1736.039062 3619.921875 C 1727.488281 3622.289062 1717.160156 3618.269531 1703.480469 3610.570312 C 1687.691406 3603.480469 1681.03125 3596.121094 1679.238281 3589.730469 C 1678.648438 3587.609375 1680.53125 3577.871094 1684.308594 3558.421875 C 1690.230469 3538.371094 1694.851562 3530.179688 1696.988281 3529.589844" fill-opacity="1" fill="rgb(6.32782%, 5.79834%, 5.117798%)" fill-rule="evenodd"/>
<path d="M 2957.128906 3793.378906 C 2980.628906 3786.808594 3005.578125 3793.671875 3030.421875 3816.660156 C 3057.398438 3839.039062 3080.371094 3871.738281 3101.441406 3914.171875 C 3102.621094 3918.429688 3103.21875 3920.570312 3103.808594 3922.710938 C 3105.949219 3922.109375 3105.949219 3922.109375 3105.949219 3922.109375 C 3105.351562 3919.980469 3106.898438 3917.25 3105.699219 3912.980469 C 3102.238281 3884.050781 3102.191406 3842.648438 3100.101562 3785.738281 C 3106.460938 3742.570312 3118.78125 3720.71875 3138.011719 3715.371094 C 3146.558594 3712.980469 3159.039062 3716.421875 3171.160156 3726.839844 C 3182.691406 3735.128906 3189.351562 3742.46875 3191.140625 3748.871094 C 3192.929688 3755.269531 3192.578125 3762.28125 3192.820312 3771.390625 C 3192.128906 3785.390625 3189.640625 3792.988281 3185.378906 3794.171875 C 3183.230469 3794.769531 3177.769531 3791.710938 3166.839844 3785.539062 C 3158.039062 3778.789062 3150.441406 3776.320312 3141.890625 3778.691406 C 3124.800781 3783.460938 3120.570312 3826.03125 3127.070312 3907.019531 C 3130.199219 3942.960938 3130.351562 3968.210938 3128.109375 3984.941406 C 3124.089844 3995.269531 3121.601562 4002.859375 3117.320312 4004.050781 C 3115.191406 4004.648438 3111.859375 4000.96875 3108.878906 3990.300781 C 3105.300781 3977.488281 3089.601562 3954.261719 3063.308594 3917.890625 C 3035.480469 3884.238281 3019.449219 3868.019531 3013.03125 3869.800781 C 3008.75 3870.988281 3006.621094 3871.589844 3005.679688 3876.449219 C 3004.128906 3879.179688 3002.589844 3881.910156 2996.179688 3883.699219 C 2987.628906 3886.070312 2977.300781 3882.058594 2963.640625 3874.371094 C 2947.828125 3867.269531 2941.171875 3859.910156 2939.390625 3853.511719 C 2938.789062 3851.390625 2940.679688 3841.660156 2944.449219 3822.199219 C 2950.359375 3802.160156 2954.980469 3793.96875 2957.128906 3793.378906" fill-opacity="1" fill="rgb(6.32782%, 5.79834%, 5.117798%)" fill-rule="evenodd"/>
<path d="M 1623.121094 1700.300781 C 1623.121094 1697.910156 1625.519531 1695.519531 1625.519531 1693.128906 C 1627.910156 1693.128906 1627.910156 1693.128906 1627.910156 1693.128906 C 1630.308594 1695.519531 1630.308594 1697.910156 1627.910156 1700.300781 C 1615.929688 1769.660156 1594.378906 1805.539062 1568.039062 1805.539062 C 1536.898438 1805.539062 1522.53125 1779.238281 1522.53125 1729.011719 C 1522.53125 1666.808594 1539.300781 1602.238281 1575.21875 1532.871094 C 1584.800781 1516.128906 1589.589844 1508.960938 1591.988281 1508.960938 C 1591.988281 1511.351562 1589.589844 1520.910156 1584.800781 1537.648438 C 1560.851562 1607.019531 1548.878906 1657.25 1548.878906 1683.550781 C 1548.878906 1724.21875 1558.460938 1743.359375 1580.011719 1743.359375 C 1591.988281 1743.359375 1606.351562 1729.011719 1623.121094 1700.300781" fill-opacity="1" fill="rgb(6.32782%, 5.79834%, 5.117798%)" fill-rule="evenodd"/>
<path d="M 1896.488281 1630.671875 C 1896.488281 1628.28125 1898.898438 1625.890625 1898.898438 1623.5 C 1901.28125 1623.5 1901.28125 1623.5 1901.28125 1623.5 C 1903.691406 1625.890625 1903.691406 1628.28125 1901.28125 1630.671875 C 1889.320312 1700.039062 1867.761719 1735.921875 1841.410156 1735.921875 C 1810.269531 1735.921875 1795.898438 1709.609375 1795.898438 1659.378906 C 1795.898438 1597.199219 1812.671875 1532.609375 1848.601562 1463.25 C 1858.179688 1446.5 1862.96875 1439.320312 1865.359375 1439.320312 C 1865.359375 1441.710938 1862.96875 1451.28125 1858.179688 1468.03125 C 1834.21875 1537.390625 1822.25 1587.621094 1822.25 1613.929688 C 1822.25 1654.601562 1831.828125 1673.71875 1853.390625 1673.71875 C 1865.359375 1673.71875 1879.730469 1659.378906 1896.488281 1630.671875" fill-opacity="1" fill="rgb(6.32782%, 5.79834%, 5.117798%)" fill-rule="evenodd"/>
<path d="M 2408.050781 1434.339844 C 2408.050781 1432.269531 2410.128906 1430.199219 2410.128906 1428.140625 C 2412.199219 1428.140625 2412.199219 1428.140625 2412.199219 1428.140625 C 2414.269531 1430.199219 2414.269531 1432.269531 2412.199219 1434.339844 C 2401.820312 1494.390625 2383.171875 1525.449219 2360.359375 1525.449219 C 2333.410156 1525.449219 2320.96875 1502.671875 2320.96875 1459.191406 C 2320.96875 1405.359375 2335.480469 1349.460938 2366.578125 1289.410156 C 2374.878906 1274.910156 2379.03125 1268.699219 2381.101562 1268.699219 C 2381.101562 1270.78125 2379.03125 1279.058594 2374.878906 1293.539062 C 2354.140625 1353.601562 2343.769531 1397.070312 2343.769531 1419.859375 C 2343.769531 1455.050781 2352.070312 1471.621094 2370.730469 1471.621094 C 2381.101562 1471.621094 2393.53125 1459.191406 2408.050781 1434.339844" fill-opacity="1" fill="rgb(6.32782%, 5.79834%, 5.117798%)" fill-rule="evenodd"/>
<path d="M 3195.75 1716.148438 C 3195.460938 1714.101562 3197.238281 1711.769531 3196.949219 1709.710938 C 3199.011719 1709.441406 3199.011719 1709.441406 3199.011719 1709.441406 C 3201.351562 1711.199219 3201.640625 1713.261719 3199.871094 1715.589844 C 3197.78125 1776.480469 3183.53125 1809.789062 3160.941406 1812.898438 C 3134.238281 1816.558594 3118.808594 1795.691406 3112.871094 1752.621094 C 3105.539062 1699.300781 3112.269531 1641.921875 3134.898438 1578.210938 C 3141.148438 1562.71875 3144.390625 1555.988281 3146.449219 1555.71875 C 3146.730469 1557.78125 3145.808594 1566.269531 3143.679688 1581.179688 C 3131.328125 1643.488281 3126.988281 1687.980469 3130.101562 1710.539062 C 3134.898438 1745.410156 3145.378906 1760.699219 3163.859375 1758.148438 C 3174.128906 1756.738281 3184.761719 1742.75 3195.75 1716.148438" fill-opacity="1" fill="rgb(6.32782%, 5.79834%, 5.117798%)" fill-rule="evenodd"/>
<path d="M 2955.519531 2235 C 2955.03125 2232.800781 2956.75 2230.121094 2956.269531 2227.910156 C 2958.46875 2227.429688 2958.46875 2227.429688 2958.46875 2227.429688 C 2961.171875 2229.148438 2961.640625 2231.351562 2959.921875 2234.039062 C 2962.949219 2300.398438 2950.359375 2337.839844 2926.070312 2343.148438 C 2897.378906 2349.449219 2878.789062 2328.101562 2868.601562 2281.808594 C 2856 2224.488281 2858.339844 2161.570312 2877.410156 2090.359375 C 2882.839844 2072.988281 2885.800781 2065.398438 2888.011719 2064.929688 C 2888.488281 2067.121094 2888.230469 2076.421875 2887.199219 2092.820312 C 2879.191406 2161.621094 2878.351562 2210.339844 2883.671875 2234.589844 C 2891.910156 2272.058594 2904.640625 2287.769531 2924.5 2283.410156 C 2935.53125 2280.980469 2945.878906 2264.859375 2955.519531 2235" fill-opacity="1" fill="rgb(6.32782%, 5.79834%, 5.117798%)" fill-rule="evenodd"/>
<path d="M 3582.980469 2444.96875 C 3582.78125 2442.738281 3584.820312 2440.28125 3584.609375 2438.03125 C 3586.859375 2437.828125 3586.859375 2437.828125 3586.859375 2437.828125 C 3589.320312 2439.871094 3589.53125 2442.121094 3587.480469 2444.570312 C 3582.199219 2510.789062 3565.019531 2546.359375 3540.269531 2548.621094 C 3510.988281 2551.289062 3495.230469 2527.800781 3490.910156 2480.589844 C 3485.550781 2422.140625 3495.75 2360.011719 3523.550781 2291.730469 C 3531.121094 2275.179688 3535 2268.019531 3537.25 2267.820312 C 3537.449219 2270.070312 3536.03125 2279.269531 3532.960938 2295.410156 C 3516.429688 2362.648438 3509.488281 2410.878906 3511.761719 2435.621094 C 3515.261719 2473.828125 3525.898438 2491 3546.160156 2489.148438 C 3557.429688 2488.121094 3569.691406 2473.390625 3582.980469 2444.96875" fill-opacity="1" fill="rgb(6.32782%, 5.79834%, 5.117798%)" fill-rule="evenodd"/>
<path d="M 3680.410156 3322.988281 C 3680.210938 3320.738281 3682.25 3318.289062 3682.050781 3316.03125 C 3684.308594 3315.828125 3684.308594 3315.828125 3684.308594 3315.828125 C 3686.769531 3317.871094 3686.96875 3320.121094 3684.929688 3322.578125 C 3679.628906 3388.789062 3662.46875 3424.371094 3637.699219 3426.621094 C 3608.441406 3429.289062 3592.671875 3405.808594 3588.351562 3358.589844 C 3583 3300.160156 3593.191406 3238.019531 3621 3169.730469 C 3628.550781 3153.179688 3632.429688 3146.019531 3634.691406 3145.820312 C 3634.890625 3148.070312 3633.460938 3157.269531 3630.410156 3173.410156 C 3613.859375 3240.648438 3606.941406 3288.878906 3609.199219 3313.628906 C 3612.691406 3351.828125 3623.351562 3368.988281 3643.609375 3367.148438 C 3654.859375 3366.121094 3667.140625 3351.390625 3680.410156 3322.988281" fill-opacity="1" fill="rgb(6.32782%, 5.79834%, 5.117798%)" fill-rule="evenodd"/>
<path d="M 4086.5 2470.289062 C 4086.210938 2468.359375 4087.839844 2466.140625 4087.550781 2464.210938 C 4089.480469 2463.921875 4089.480469 2463.921875 4089.480469 2463.921875 C 4090.699219 2464.820312 4091.339844 2465.800781 4091.398438 2466.871094 L 4091.398438 2467.148438 C 4091.371094 2467.949219 4091.019531 2468.808594 4090.351562 2469.710938 C 4089.160156 2527.078125 4076.160156 2558.621094 4054.921875 2561.828125 C 4029.820312 2565.621094 4015.019531 2546.160156 4008.898438 2505.671875 C 4001.320312 2455.539062 4006.949219 2401.429688 4027.460938 2341.148438 C 4033.140625 2326.480469 4036.128906 2320.101562 4038.050781 2319.808594 C 4038.339844 2321.738281 4037.589844 2329.738281 4035.761719 2343.828125 C 4024.910156 2402.671875 4021.378906 2444.601562 4024.601562 2465.820312 C 4029.558594 2498.609375 4039.621094 2512.859375 4056.988281 2510.238281 C 4066.640625 2508.78125 4076.480469 2495.460938 4086.5 2470.289062" fill-opacity="1" fill="rgb(6.32782%, 5.79834%, 5.117798%)" fill-rule="evenodd"/>
<path d="M 2638.691406 2513.761719 C 2638.511719 2511.691406 2640.398438 2509.429688 2640.199219 2507.371094 C 2642.269531 2507.171875 2642.269531 2507.171875 2642.269531 2507.171875 C 2644.539062 2509.058594 2644.730469 2511.128906 2642.839844 2513.378906 C 2637.96875 2574.351562 2622.171875 2607.109375 2599.371094 2609.191406 C 2572.421875 2611.640625 2557.898438 2590.019531 2553.921875 2546.550781 C 2549 2492.730469 2558.390625 2435.53125 2583.980469 2372.660156 C 2590.941406 2357.410156 2594.519531 2350.828125 2596.601562 2350.628906 C 2596.78125 2352.699219 2595.46875 2361.179688 2592.648438 2376.039062 C 2577.421875 2437.96875 2571.039062 2482.371094 2573.128906 2505.128906 C 2576.351562 2540.328125 2586.160156 2556.128906 2604.800781 2554.429688 C 2615.171875 2553.46875 2626.460938 2539.929688 2638.691406 2513.761719" fill-opacity="1" fill="rgb(6.32782%, 5.79834%, 5.117798%)" fill-rule="evenodd"/>
<path d="M 1258.011719 3189.609375 C 1257.828125 3187.539062 1259.710938 3185.28125 1259.519531 3183.210938 C 1261.589844 3183.019531 1261.589844 3183.019531 1261.589844 3183.019531 C 1263.851562 3184.898438 1264.039062 3186.980469 1262.160156 3189.230469 C 1257.289062 3250.199219 1241.480469 3282.949219 1218.679688 3285.019531 C 1191.738281 3287.488281 1177.210938 3265.871094 1173.230469 3222.398438 C 1168.308594 3168.589844 1177.699219 3111.371094 1203.300781 3048.511719 C 1210.25 3033.261719 1213.828125 3026.679688 1215.910156 3026.480469 C 1216.101562 3028.550781 1214.78125 3037.019531 1211.960938 3051.890625 C 1196.730469 3113.800781 1190.351562 3158.21875 1192.429688 3180.980469 C 1195.660156 3216.179688 1205.460938 3231.980469 1224.121094 3230.28125 C 1234.480469 3229.320312 1245.78125 3215.769531 1258.011719 3189.609375" fill-opacity="1" fill="rgb(6.32782%, 5.79834%, 5.117798%)" fill-rule="evenodd"/>
<path d="M 1335.71875 3684.058594 C 1335.570312 3682.378906 1337.089844 3680.53125 1336.949219 3678.851562 C 1338.628906 3678.691406 1338.628906 3678.691406 1338.628906 3678.691406 C 1340.46875 3680.230469 1340.628906 3681.910156 1339.089844 3683.75 C 1335.128906 3733.378906 1322.261719 3760.039062 1303.710938 3761.730469 C 1281.78125 3763.730469 1269.960938 3746.128906 1266.71875 3710.75 C 1262.710938 3666.949219 1270.351562 3620.390625 1291.179688 3569.230469 C 1296.859375 3556.808594 1299.761719 3551.460938 1301.460938 3551.289062 C 1301.601562 3552.980469 1300.539062 3559.878906 1298.25 3571.96875 C 1285.851562 3622.371094 1280.648438 3658.511719 1282.339844 3677.039062 C 1284.96875 3705.679688 1292.949219 3718.539062 1308.128906 3717.148438 C 1316.570312 3716.390625 1325.769531 3705.351562 1335.71875 3684.058594" fill-opacity="1" fill="rgb(6.32782%, 5.79834%, 5.117798%)" fill-rule="evenodd"/>
<path d="M 1928.269531 4104.980469 C 1928.109375 4103.289062 1929.648438 4101.460938 1929.488281 4099.769531 C 1931.191406 4099.621094 1931.191406 4099.621094 1931.191406 4099.621094 C 1933.019531 4101.148438 1933.179688 4102.828125 1931.648438 4104.679688 C 1927.679688 4154.289062 1914.820312 4180.941406 1896.261719 4182.648438 C 1874.328125 4184.660156 1862.511719 4167.039062 1859.269531 4131.671875 C 1855.269531 4087.859375 1862.910156 4041.308594 1883.738281 3990.140625 C 1889.398438 3977.738281 1892.320312 3972.371094 1894 3972.21875 C 1894.160156 3973.910156 1893.078125 3980.800781 1890.800781 3992.898438 C 1878.398438 4043.289062 1873.210938 4079.429688 1874.898438 4097.960938 C 1877.519531 4126.609375 1885.5 4139.46875 1900.691406 4138.070312 C 1909.121094 4137.308594 1918.308594 4126.269531 1928.269531 4104.980469" fill-opacity="1" fill="rgb(6.32782%, 5.79834%, 5.117798%)" fill-rule="evenodd"/>
<path d="M 3378.050781 3838.300781 C 3377.859375 3836.269531 3379.71875 3834.050781 3379.519531 3832.019531 C 3381.558594 3831.828125 3381.558594 3831.828125 3381.558594 3831.828125 C 3383.789062 3833.691406 3383.96875 3835.710938 3382.128906 3837.929688 C 3377.339844 3897.890625 3361.789062 3930.101562 3339.371094 3932.140625 C 3312.878906 3934.550781 3298.601562 3913.28125 3294.691406 3870.550781 C 3289.839844 3817.628906 3299.078125 3761.371094 3324.25 3699.570312 C 3331.089844 3684.578125 3334.609375 3678.089844 3336.648438 3677.921875 C 3336.839844 3679.949219 3335.550781 3688.269531 3332.769531 3702.890625 C 3317.789062 3763.78125 3311.511719 3807.449219 3313.570312 3829.828125 C 3316.730469 3864.429688 3326.371094 3879.960938 3344.730469 3878.289062 C 3354.898438 3877.351562 3366.011719 3864.039062 3378.050781 3838.300781" fill-opacity="1" fill="rgb(6.32782%, 5.79834%, 5.117798%)" fill-rule="evenodd"/>
<path d="M 3106.5 3233.691406 C 3104.601562 3248.941406 3098.871094 3258.480469 3093.140625 3264.199219 C 3074.058594 3275.628906 3028.238281 3306.128906 2959.519531 3353.78125 C 2957.621094 3355.679688 2953.800781 3357.589844 2949.980469 3361.398438 C 2948.070312 3359.5 2948.070312 3359.5 2948.070312 3357.589844 L 2951.890625 3332.808594 C 2951.890625 3327.089844 2963.339844 3315.648438 2986.25 3298.488281 C 2959.519531 3288.960938 2946.171875 3277.53125 2946.171875 3262.28125 C 2946.171875 3245.121094 2951.890625 3229.878906 2967.171875 3212.730469 C 2993.890625 3178.410156 3016.789062 3163.171875 3035.878906 3163.171875 C 3051.148438 3163.171875 3060.679688 3170.789062 3060.679688 3189.859375 C 3060.679688 3201.289062 3054.960938 3212.730469 3047.328125 3227.980469 C 3045.410156 3231.789062 3041.609375 3229.878906 3039.691406 3226.058594 C 3035.878906 3214.628906 3028.238281 3210.828125 3020.609375 3210.828125 C 3012.96875 3210.828125 3005.339844 3212.730469 2995.789062 3220.339844 C 2988.160156 3226.058594 2982.441406 3231.789062 2982.441406 3235.589844 C 2982.441406 3241.308594 2988.160156 3247.03125 2999.609375 3252.75 C 3011.070312 3258.480469 3018.691406 3262.28125 3026.339844 3262.28125 C 3032.058594 3262.28125 3043.511719 3258.480469 3058.78125 3248.941406 C 3070.230469 3241.308594 3079.78125 3233.691406 3091.230469 3227.980469 C 3100.78125 3222.261719 3104.601562 3220.339844 3106.5 3222.261719 C 3108.410156 3222.261719 3108.410156 3226.058594 3106.5 3233.691406" fill-opacity="1" fill="rgb(6.32782%, 5.79834%, 5.117798%)" fill-rule="evenodd"/>
<path d="M 1837.839844 2740.988281 L 1877.730469 2658.679688 C 1880.378906 2653.371094 1883.050781 2650.710938 1888.359375 2650.710938 C 1893.679688 2650.710938 1914.960938 2663.988281 1954.839844 2690.550781 C 1994.71875 2717.089844 2013.339844 2733.039062 2013.339844 2738.339844 C 2013.339844 2754.28125 1997.390625 2791.449219 1962.820312 2847.210938 C 1957.5 2855.179688 1952.179688 2857.828125 1949.519531 2852.53125 C 1914.960938 2828.640625 1875.070312 2802.070312 1832.53125 2772.859375 C 1819.21875 2807.390625 1803.269531 2833.941406 1789.980469 2857.828125 C 1784.648438 2863.160156 1782 2865.800781 1776.679688 2863.160156 C 1736.789062 2831.28125 1696.898438 2804.71875 1657.03125 2778.171875 C 1654.359375 2778.171875 1654.359375 2775.53125 1657.03125 2770.210938 L 1704.878906 2666.648438 C 1710.199219 2661.339844 1712.871094 2658.679688 1715.519531 2658.679688 C 1720.839844 2658.679688 1739.449219 2669.300781 1774.019531 2693.199219 C 1805.929688 2714.449219 1827.199219 2730.371094 1837.839844 2740.988281" fill-opacity="1" fill="rgb(6.32782%, 5.79834%, 5.117798%)" fill-rule="evenodd"/>
<path d="M 3413.179688 2697.738281 L 3453.070312 2615.410156 C 3455.730469 2610.109375 3458.378906 2607.460938 3463.710938 2607.460938 C 3469.019531 2607.460938 3490.289062 2620.730469 3530.179688 2647.28125 C 3570.058594 2673.839844 3588.671875 2689.769531 3588.671875 2695.089844 C 3588.671875 2711.011719 3572.730469 2748.199219 3538.171875 2803.960938 C 3532.839844 2811.929688 3527.53125 2814.578125 3524.851562 2809.261719 C 3490.289062 2785.371094 3450.398438 2758.820312 3407.851562 2729.601562 C 3394.558594 2764.121094 3378.609375 2790.679688 3365.308594 2814.578125 C 3360 2819.890625 3357.339844 2822.550781 3352.019531 2819.890625 C 3312.128906 2788.019531 3272.25 2761.46875 3232.359375 2734.921875 C 3229.710938 2734.921875 3229.710938 2732.261719 3232.359375 2726.949219 L 3280.21875 2623.378906 C 3285.539062 2618.078125 3288.199219 2615.410156 3290.851562 2615.410156 C 3296.179688 2615.410156 3314.800781 2626.039062 3349.359375 2649.949219 C 3381.269531 2671.191406 3402.550781 2687.121094 3413.179688 2697.738281" fill-opacity="1" fill="rgb(6.32782%, 5.79834%, 5.117798%)" fill-rule="evenodd"/>
<path d="M 2185.480469 989.769531 C 1978.230469 1067.890625 1774.898438 1142.050781 1583.300781 1212.339844 C 1571.570312 1235.78125 1563.738281 1259.191406 1559.839844 1282.628906 C 1794.449219 1185.039062 2001.691406 1106.898438 2177.648438 1040.558594 C 2181.558594 1036.628906 2189.378906 1024.898438 2197.199219 1001.480469 C 2201.109375 993.710938 2201.109375 989.769531 2201.109375 989.769531 C 2200.03125 988.710938 2198.949219 988.21875 2197.800781 988.078125 L 2196.230469 988.078125 C 2193.5 988.351562 2190.199219 989.769531 2185.480469 989.769531" fill-opacity="1" fill="rgb(6.32782%, 5.79834%, 5.117798%)" fill-rule="evenodd"/>
<path d="M 2185.480469 989.769531 C 1978.230469 1067.890625 1774.898438 1142.050781 1583.300781 1212.339844 C 1571.570312 1235.78125 1563.738281 1259.191406 1559.839844 1282.628906 C 1794.449219 1185.039062 2001.691406 1106.898438 2177.648438 1040.558594 C 2181.558594 1036.628906 2189.378906 1024.898438 2197.199219 1001.480469 C 2201.109375 993.710938 2201.109375 989.769531 2201.109375 989.769531 C 2200.03125 988.710938 2198.949219 988.21875 2197.800781 988.078125 L 2196.230469 988.078125 C 2193.5 988.351562 2190.199219 989.769531 2185.480469 989.769531" fill-opacity="1" fill="rgb(6.32782%, 5.79834%, 5.117798%)" fill-rule="evenodd"/>
<path d="M 3060.628906 2560.078125 C 2991.589844 2600.429688 2923.699219 2639.109375 2859.738281 2675.699219 C 2857 2684.738281 2855.628906 2693.550781 2855.660156 2702.140625 C 2933.261719 2653.230469 3002.300781 2612.890625 3060.921875 2578.648438 C 3062.058594 2577 3064.140625 2572.359375 3065.511719 2563.550781 C 3066.429688 2560.539062 3066.199219 2559.148438 3066.199219 2559.148438 C 3065.640625 2558.761719 3065.160156 2558.679688 3064.640625 2558.78125 C 3063.621094 2558.949219 3062.480469 2559.769531 3060.628906 2560.078125" fill-opacity="1" fill="rgb(6.32782%, 5.79834%, 5.117798%)" fill-rule="evenodd"/>
<path d="M 3066.199219 2559.148438 L 3066.199219 2559.171875 C 3066.21875 2559.378906 3066.351562 2560.78125 3065.511719 2563.550781 C 3064.140625 2572.359375 3062.058594 2577 3060.921875 2578.648438 C 3002.300781 2612.890625 2933.261719 2653.230469 2855.660156 2702.140625 C 2855.628906 2693.550781 2857 2684.738281 2859.738281 2675.699219 C 2923.699219 2639.109375 2991.589844 2600.429688 3060.628906 2560.078125 C 3062.480469 2559.769531 3063.621094 2558.949219 3064.640625 2558.78125 C 3065.160156 2558.679688 3065.640625 2558.761719 3066.199219 2559.148438" fill-opacity="1" fill="rgb(6.32782%, 5.79834%, 5.117798%)" fill-rule="evenodd"/>
<path d="M 3804.199219 1964.089844 C 3801.238281 1917.789062 3791.828125 1882.609375 3779.300781 1854.789062 C 3778.171875 1836.980469 3786.359375 1797.109375 3807.46875 1734.960938 C 3810.578125 1727.601562 3813.910156 1723.820312 3817.488281 1723.589844 C 3821.050781 1723.359375 3824.839844 1726.699219 3829.089844 1737.148438 C 3837.140625 1750.949219 3854.140625 1792.789062 3887.238281 1862.21875 C 3920.558594 1935.210938 3941.351562 1980.378906 3946.070312 1997.980469 C 3950.320312 2008.429688 3950.988281 2019.121094 3951.449219 2026.238281 C 3952.820312 2047.621094 3934.078125 2034.5 3892.101562 1994.25 C 3888.078125 1987.359375 3884.730469 1991.160156 3885.429688 2001.839844 C 3885.648438 2005.398438 3905.449219 2147.21875 3941.28125 2427.519531 C 3980.679688 2707.589844 4001.390625 2863.660156 4003.679688 2899.28125 C 4010.738281 3009.710938 3998.820312 3103.480469 3971.960938 3187.46875 C 3965.960938 3205.730469 3963.070312 3216.648438 3956.390625 3224.21875 C 3953.738281 3238.710938 3950.160156 3238.929688 3946.140625 3232.039062 C 3945.46875 3221.339844 3944.550781 3207.101562 3946.289062 3178.378906 C 3947.578125 3142.511719 3948.429688 3099.550781 3945.238281 3049.671875 C 3942.269531 3003.351562 3916.398438 2822.578125 3874.261719 2499.75 C 3832.359375 2180.5 3806.488281 1999.710938 3804.199219 1964.089844" fill-opacity="1" fill="rgb(13.729858%, 12.159729%, 12.548828%)" fill-rule="evenodd"/>
</svg>